<?xml version="1.0" standalone="no"?>
<!DOCTYPE svg PUBLIC "-//W3C//DTD SVG 20010904//EN"
 "http://www.w3.org/TR/2001/REC-SVG-20010904/DTD/svg10.dtd">
<svg version="1.0" xmlns="http://www.w3.org/2000/svg"
 width="1280.000000pt" height="1168.000000pt" viewBox="0 0 1280.000000 1168.000000"
 preserveAspectRatio="xMidYMid meet">
<metadata>
Created by potrace 1.15, written by Peter Selinger 2001-2017
</metadata>
<g transform="translate(0.000000,1168.000000) scale(0.100000,-0.100000)"
fill="#000000" stroke="none">
<path d="M9523 11646 c-6 -19 -9 -37 -7 -39 3 -2 19 -1 36 2 26 5 34 13 39 39
6 31 5 32 -26 32 -27 0 -33 -5 -42 -34z"/>
<path d="M9691 11648 c-1 -11 -12 -18 -33 -20 -24 -2 -36 -10 -46 -30 -9 -19
-25 -29 -61 -39 l-49 -12 -4 -81 c-5 -92 -27 -150 -102 -266 -45 -69 -96 -179
-96 -207 0 -8 13 -13 35 -13 19 0 35 -2 35 -6 0 -3 -18 -32 -40 -65 -38 -55
-40 -62 -34 -107 5 -41 1 -60 -25 -120 -41 -92 -46 -122 -30 -169 8 -24 13
-102 14 -218 l2 -180 -37 -105 c-21 -58 -41 -125 -44 -150 -21 -136 -61 -238
-125 -325 -21 -27 -49 -77 -62 -109 -41 -101 -127 -168 -235 -183 -38 -5 -51
0 -126 45 -45 27 -102 59 -124 70 -78 39 -116 108 -76 138 15 12 13 13 -18 14
l-35 1 37 34 c24 22 48 35 65 35 36 0 133 66 133 91 0 22 -53 34 -107 24 -47
-9 -99 -62 -113 -116 -7 -24 -16 -39 -23 -36 -7 2 -74 25 -149 52 l-137 47
-66 75 c-59 65 -80 80 -179 130 -61 30 -113 57 -115 59 -2 1 1 16 7 32 7 21 6
37 -4 62 -14 32 -15 32 -34 15 -20 -18 -20 -17 -20 11 l-1 29 -20 -27 c-15
-20 -30 -28 -51 -28 -27 0 -30 2 -24 26 l7 26 -29 -21 -30 -21 -93 87 c-52 47
-100 94 -107 104 -7 11 -24 19 -38 19 -39 0 -74 42 -74 88 0 51 50 127 107
161 31 19 46 36 53 61 5 19 18 65 29 103 11 37 17 67 15 67 -3 0 -15 -5 -26
-11 -25 -14 -38 2 -38 46 0 25 6 33 30 42 29 11 30 10 30 -17 0 -37 11 -43 50
-26 l33 13 -32 19 c-33 19 -40 34 -18 34 8 0 22 9 33 21 l19 21 5 -21 c5 -19
9 -17 63 25 56 45 58 48 52 84 -4 26 -2 40 9 49 10 8 13 22 10 40 -5 26 11 42
99 102 8 6 -7 37 -44 91 -3 5 -22 2 -42 -7 l-36 -15 -12 58 c-7 31 -16 61 -20
66 -5 5 -37 -10 -74 -34 -54 -35 -63 -45 -50 -52 12 -8 13 -13 5 -23 -9 -11
-6 -15 14 -21 14 -3 26 -12 26 -19 0 -16 -29 -41 -61 -53 l-26 -10 1 64 c1 35
0 64 -1 64 -2 0 -27 -12 -57 -27 -31 -15 -59 -24 -62 -20 -4 4 12 23 35 43 30
26 39 40 32 47 -16 16 -14 23 20 62 48 54 24 42 -56 -31 -67 -59 -81 -67 -142
-80 -89 -18 -91 -18 -105 12 -9 19 -17 24 -34 20 -16 -4 -27 0 -37 15 -14 20
-17 20 -67 5 -42 -12 -61 -13 -103 -4 -29 6 -61 20 -73 30 -11 10 -32 18 -47
18 -27 0 -36 13 -17 25 27 17 2 25 -74 25 l-84 0 3 47 3 48 -29 -33 c-38 -42
-56 -37 -104 29 -20 27 -40 49 -44 49 -3 0 -23 -11 -43 -25 -20 -14 -39 -25
-41 -25 -2 0 -7 39 -11 87 -3 48 -9 89 -11 91 -9 9 -43 -29 -49 -54 -6 -23 -8
-24 -28 -10 -20 14 -24 14 -39 0 -14 -13 -22 -13 -39 -4 -30 16 -82 5 -110
-25 l-22 -24 52 -51 c47 -46 53 -49 65 -34 9 13 21 16 49 11 22 -3 34 -2 31 4
-4 5 -2 9 4 9 13 0 31 -33 31 -59 0 -11 9 -22 20 -26 15 -5 20 -15 20 -41 0
-54 -15 -74 -55 -74 -24 0 -35 -5 -35 -15 0 -25 -40 -37 -129 -39 -128 -2
-175 9 -190 42 l-13 27 -15 -28 c-9 -19 -20 -27 -30 -23 -8 3 -17 6 -19 6 -2
0 -4 9 -4 20 0 11 -4 20 -9 20 -20 0 -41 -33 -41 -64 0 -24 -7 -38 -29 -54
-28 -20 -32 -21 -66 -6 -21 8 -38 14 -40 12 -1 -2 -8 -13 -14 -25 -6 -13 -20
-23 -30 -23 -12 0 -25 -17 -40 -55 -12 -30 -31 -57 -40 -60 -23 -7 -81 -79
-81 -100 0 -8 8 -18 18 -21 9 -3 28 -10 42 -16 l25 -10 -30 -24 c-16 -13 -46
-27 -66 -30 -34 -6 -37 -9 -48 -58 -27 -121 -28 -122 -75 -136 -41 -11 -44
-15 -61 -68 -10 -32 -20 -62 -22 -69 -3 -7 15 -22 41 -35 37 -17 48 -29 56
-57 11 -42 8 -46 -20 -31 -17 9 -25 8 -40 -5 -12 -10 -26 -14 -43 -10 -19 5
-28 2 -36 -14 l-11 -20 -48 21 c-29 13 -76 23 -122 26 -74 4 -76 4 -123 -32
-26 -20 -49 -36 -52 -36 -2 0 5 21 16 47 11 25 18 51 16 57 -3 6 -25 17 -50
23 -39 11 -48 18 -66 57 -45 93 -140 176 -200 176 -20 0 -31 5 -31 14 0 9 -7
12 -18 9 -10 -2 -26 5 -36 16 -35 39 -116 20 -116 -27 0 -9 -5 -35 -11 -57
l-11 -39 -19 23 c-20 24 -17 41 7 41 23 0 16 37 -8 43 -23 7 -39 -8 -32 -28 4
-10 -65 -65 -81 -65 -3 0 -5 15 -5 34 0 19 -6 38 -12 42 -26 16 -50 11 -59
-13 -14 -38 -11 -51 19 -67 24 -14 25 -15 6 -16 -28 0 -46 -23 -53 -68 l-6
-36 -30 57 c-17 31 -32 57 -35 57 -3 0 -23 -29 -44 -65 -21 -36 -42 -65 -47
-65 -5 0 -14 9 -21 20 -17 27 -26 25 -30 -7 l-4 -28 -11 24 -10 25 -18 -27
c-15 -24 -16 -35 -6 -84 19 -95 18 -97 -30 -72 -37 18 -43 19 -57 6 -13 -14
-17 -13 -33 6 -16 19 -20 20 -29 7 -15 -24 -13 -27 30 -34 45 -7 44 -5 28 -57
-10 -37 -14 -39 -50 -39 -27 0 -38 4 -38 15 0 10 -10 15 -30 15 -23 0 -31 -5
-36 -25 -5 -19 -13 -25 -33 -25 -22 -1 -24 -2 -9 -11 12 -7 24 -6 39 1 11 7
23 9 26 7 2 -3 -1 -31 -7 -62 -13 -61 -5 -175 12 -175 5 0 18 5 29 10 15 9 19
7 19 -7 0 -26 -12 -40 -35 -44 -11 -2 -27 -18 -36 -35 -15 -31 -16 -31 -40
-15 -33 22 -127 53 -139 46 -6 -3 -10 1 -10 10 0 11 -6 15 -17 11 -37 -11 -92
-9 -107 3 -19 16 -22 14 -31 -20 -6 -22 -2 -28 34 -44 47 -21 49 -25 21 -50
-39 -35 -34 -49 42 -123 l73 -72 -37 0 -38 0 0 -62 c0 -45 -3 -59 -10 -48 -6
10 -10 11 -10 3 0 -30 -23 -8 -65 64 -25 43 -48 92 -51 111 -5 26 -12 34 -35
39 -16 3 -29 8 -28 12 0 3 24 26 54 51 l53 45 -56 3 c-55 3 -58 2 -87 -34 -16
-20 -43 -61 -60 -92 -22 -42 -44 -66 -86 -93 -92 -61 -97 -77 -91 -281 l2 -87
30 5 c25 6 30 3 36 -20 8 -32 16 -23 -92 -99 -76 -54 -89 -67 -92 -94 -3 -25
-9 -33 -31 -38 -24 -5 -29 -12 -34 -46 -16 -120 -118 -235 -271 -309 -197 -94
-340 -134 -422 -119 -65 12 -98 -1 -155 -59 -43 -45 -52 -49 -175 -83 -126
-35 -129 -36 -149 -73 -16 -31 -30 -41 -75 -56 -69 -24 -82 -24 -111 -1 -23
18 -24 18 -78 0 -73 -25 -76 -24 -52 14 l21 34 -24 22 -24 22 -13 -50 c-13
-51 -13 -51 -33 -32 -18 17 -24 18 -45 6 -24 -13 -24 -13 -3 -19 l22 -7 -21
-28 c-11 -16 -40 -39 -62 -52 -23 -12 -92 -71 -154 -131 -62 -59 -118 -108
-125 -108 -7 0 -62 -33 -122 -73 l-109 -72 -61 -117 c-34 -65 -63 -118 -66
-118 -3 0 -14 29 -24 65 -14 48 -17 81 -12 121 6 50 5 54 -11 45 -51 -27 -79
-88 -118 -251 l-18 -76 24 -44 c17 -34 24 -66 27 -135 4 -87 3 -93 -34 -175
-37 -80 -39 -91 -39 -185 0 -97 1 -101 33 -148 18 -26 44 -73 58 -104 14 -30
57 -98 97 -150 121 -158 134 -180 141 -226 8 -51 -2 -129 -15 -121 -14 8 -51
85 -59 119 l-7 30 -18 -37 c-20 -41 -35 -49 -35 -20 0 41 -23 94 -65 147 l-44
58 -11 -27 c-27 -71 1 -140 91 -224 64 -61 72 -84 40 -123 l-19 -23 -51 103
c-51 100 -52 102 -81 96 -29 -6 -31 -4 -72 79 -31 63 -48 86 -62 86 -16 0 -18
-5 -13 -40 8 -60 137 -258 210 -321 126 -110 247 -291 247 -369 0 -73 20 -112
95 -190 52 -53 80 -91 95 -129 12 -30 38 -75 59 -100 59 -71 71 -103 91 -240
26 -184 74 -302 193 -478 51 -77 104 -161 117 -187 24 -51 33 -130 31 -295 0
-48 6 -106 14 -135 20 -68 19 -114 -6 -161 -30 -57 -46 -67 -96 -59 l-43 6 -2
-33 c-5 -118 13 -199 55 -251 12 -15 19 -16 47 -7 46 16 92 0 171 -61 48 -37
93 -60 165 -85 93 -33 104 -34 184 -28 47 4 114 6 150 5 81 -2 149 13 223 50
62 31 62 30 47 58 -9 16 -3 24 34 52 24 18 54 50 67 72 21 37 23 38 65 32 32
-4 60 0 100 15 53 20 55 22 39 39 -16 18 -16 21 5 55 13 21 41 50 63 66 33 24
50 29 95 29 34 0 87 11 141 29 78 27 101 30 239 33 93 2 151 -1 149 -7 -2 -5
4 -17 12 -27 14 -17 17 -16 42 8 25 24 36 27 126 30 74 3 104 1 118 -10 17
-12 23 -11 54 9 20 13 53 26 73 29 51 9 96 65 133 165 42 116 69 145 158 172
49 14 123 52 232 119 217 132 197 124 278 116 71 -7 275 16 326 36 14 5 85 30
156 55 72 25 157 59 190 76 123 62 158 68 430 76 138 4 258 11 267 15 29 13
122 -13 174 -48 27 -18 80 -54 119 -81 72 -49 96 -53 170 -30 15 4 40 -7 85
-37 62 -41 68 -43 138 -42 l73 1 -33 -34 -33 -35 52 20 c29 11 54 17 57 14 4
-3 6 -25 6 -49 l0 -43 38 0 c25 0 45 -7 55 -18 23 -25 22 -28 -13 -41 -25 -8
-30 -16 -30 -41 0 -18 6 -33 15 -36 10 -4 13 -13 10 -25 -4 -11 3 -31 16 -49
21 -27 28 -30 80 -30 32 0 61 -5 64 -11 4 -6 9 -38 13 -72 5 -57 9 -67 53
-114 50 -55 74 -112 85 -198 5 -41 4 -48 -7 -37 -21 19 -34 14 -46 -19 -11
-29 -11 -31 10 -25 19 4 28 -6 65 -74 24 -44 45 -80 47 -80 2 0 19 9 39 20
l34 21 7 -21 c7 -22 30 -27 38 -8 2 7 12 56 22 109 l18 96 76 60 c42 33 119
83 171 111 l95 51 65 110 c64 109 66 110 96 105 28 -5 33 -2 42 23 7 18 11 22
11 10 1 -10 8 -32 17 -49 16 -30 16 -31 -15 -55 -25 -20 -31 -32 -31 -63 0
-55 -14 -85 -65 -144 -30 -34 -51 -70 -62 -106 -8 -30 -24 -72 -34 -92 -24
-46 -24 -47 1 -41 14 4 19 1 16 -8 -3 -8 -10 -40 -16 -71 l-11 -56 -52 5 c-42
4 -55 2 -69 -13 -20 -23 -60 -114 -50 -114 4 0 42 7 85 15 43 8 98 15 122 15
42 0 42 0 68 58 14 31 42 104 63 161 l39 104 37 -79 c44 -94 60 -172 48 -234
-5 -25 -9 -48 -10 -52 0 -15 -64 -80 -91 -94 -16 -8 -29 -21 -29 -29 0 -26 65
-33 168 -20 l63 8 53 -55 c88 -91 158 -227 170 -331 5 -44 3 -51 -24 -79 -30
-29 -30 -32 -21 -84 12 -63 30 -100 65 -135 15 -15 24 -33 21 -40 -2 -8 14
-45 38 -84 35 -59 50 -74 92 -93 133 -61 139 -66 165 -116 14 -27 32 -52 39
-54 7 -2 23 8 36 24 l22 28 49 -19 c96 -35 186 -87 267 -150 90 -72 132 -95
171 -95 14 0 78 27 141 60 63 33 124 60 134 60 31 0 69 -21 87 -48 16 -24 37
-26 87 -7 14 6 17 2 15 -16 -2 -19 7 -29 44 -49 63 -34 95 -66 110 -107 12
-34 18 -36 59 -18 13 5 20 -2 29 -30 7 -20 10 -47 7 -61 -4 -22 -1 -24 39 -24
l44 0 0 55 c0 48 3 55 20 55 38 0 126 42 225 108 192 127 278 142 505 88 129
-31 150 -29 237 14 55 28 72 45 87 93 3 10 10 16 15 13 5 -3 11 25 13 62 5 80
52 193 103 242 20 20 31 38 28 49 -12 47 50 169 133 261 21 23 64 55 96 71 53
27 58 32 58 62 0 17 19 76 42 131 38 89 47 101 94 135 39 27 62 53 89 103 21
40 77 111 137 175 95 103 105 110 180 138 44 17 87 40 96 52 9 12 28 23 42 25
21 2 28 13 46 68 16 47 43 92 104 170 98 126 153 230 170 325 7 41 26 93 44
125 51 88 104 204 142 309 19 53 48 113 64 134 92 115 88 107 104 215 13 91
13 108 -1 147 -14 43 -14 47 16 127 30 83 60 242 48 254 -16 16 -37 -24 -48
-92 -7 -41 -16 -74 -20 -74 -13 0 -29 28 -24 42 4 10 -1 17 -14 21 -14 3 -21
13 -21 29 0 12 -3 34 -7 47 -5 21 -3 23 16 18 13 -3 24 -1 26 6 2 7 8 71 14
143 7 104 15 143 36 195 20 47 28 83 29 135 1 69 3 74 59 159 55 82 59 92 64
161 3 41 3 74 -2 74 -4 0 -20 -8 -35 -17 -24 -14 -30 -24 -32 -62 -3 -39 -8
-49 -38 -69 -28 -18 -34 -29 -32 -49 4 -26 2 -25 -48 17 -57 48 -60 53 -89
155 -16 56 -29 79 -64 113 -27 26 -61 79 -92 142 -48 97 -50 100 -101 121 -51
21 -52 22 -58 73 -3 28 -6 68 -6 88 0 32 -5 40 -31 54 -25 13 -37 14 -57 5
-13 -7 -27 -9 -31 -6 -15 16 -18 143 -4 200 23 91 20 152 -10 211 -35 68 -49
79 -71 55 -17 -18 -17 -20 2 -30 14 -8 18 -17 14 -37 l-5 -27 -31 34 c-16 18
-38 33 -47 31 -12 -2 -21 8 -29 35 -19 58 -38 83 -65 83 -21 0 -24 -5 -31 -56
-6 -54 -7 -55 -33 -49 -33 8 -33 8 -60 74 -21 50 -22 56 -7 66 15 11 14 16 -5
59 -21 47 -20 54 6 118 5 12 -1 18 -22 22 -27 6 -28 9 -29 69 -1 80 -24 132
-67 157 -22 13 -46 42 -66 79 -17 32 -31 61 -31 64 0 15 37 10 52 -8 17 -20
17 -20 18 10 l1 30 24 -27 c43 -50 82 -29 44 23 -18 26 -20 35 -10 55 15 34
14 44 -6 44 -9 0 -24 7 -33 15 -14 13 -16 11 -12 -23 l4 -37 -48 45 c-27 25
-60 55 -72 65 l-24 20 -23 -29 -23 -29 -6 30 c-4 17 -20 43 -36 58 -23 22 -35
27 -59 22 -29 -6 -30 -5 -33 36 -2 32 -8 43 -22 45 -10 2 -23 -3 -28 -12 -13
-23 -28 -20 -28 7 0 29 -42 118 -64 136 -14 12 -19 12 -26 2 -12 -20 -48 -4
-66 30 -14 28 -16 29 -36 15 -19 -13 -24 -13 -50 0 -28 15 -29 16 -13 34 16
18 15 19 -22 26 -117 21 -134 58 -118 253 l8 84 -52 -6 -53 -6 20 33 c11 18
27 44 36 58 11 17 13 28 7 33 -6 3 -11 38 -10 78 0 49 -8 99 -25 157 -31 103
-31 100 -6 100 34 0 22 24 -26 49 -52 28 -85 64 -120 133 -25 49 -25 50 -5 55
26 7 26 7 -5 176 -14 77 -23 152 -19 166 3 14 10 49 15 76 4 28 11 57 14 65 4
11 -29 39 -115 100 -69 48 -125 94 -130 108 -5 13 -9 41 -9 62 0 21 -4 41 -8
44 -5 3 -25 -6 -45 -20 l-37 -25 0 26 c0 34 -14 31 -45 -9 -54 -71 -102 -81
-129 -28 -35 69 -60 188 -62 297 -1 61 -3 117 -5 125 -1 8 1 39 5 68 l7 52
-36 0 -35 0 21 42 22 43 -57 50 c-32 29 -56 59 -56 70 0 24 36 85 50 85 26 0
5 18 -44 39 -46 19 -57 29 -70 62 -9 22 -16 67 -16 102 0 81 -15 134 -51 179
-25 32 -28 41 -19 58 6 12 9 31 7 43 -3 14 -5 16 -6 5z m-286 -9609 c8 -57 -5
-80 -56 -98 -28 -10 -28 -10 -35 40 -5 35 -11 49 -23 49 -14 1 84 58 101 60 3
0 9 -23 13 -51z"/>
<path d="M5490 11588 c0 -8 -14 -41 -31 -73 -23 -43 -29 -64 -24 -87 6 -27 5
-29 -13 -23 -16 5 -24 -1 -36 -23 l-15 -30 112 -7 c62 -4 141 -10 177 -14 63
-8 67 -7 140 33 67 37 75 45 75 71 1 17 4 35 8 41 11 19 -12 70 -38 84 -20 11
-38 8 -131 -24 -121 -40 -104 -43 -186 33 -26 24 -38 30 -38 19z"/>
<path d="M7605 11514 c-32 -43 -84 -101 -114 -128 -61 -55 -48 -55 35 0 64 43
119 104 135 151 20 63 3 56 -56 -23z"/>
<path d="M7562 10663 c-35 -35 -69 -37 -77 -3 l-7 25 -24 -28 c-34 -39 -30
-47 21 -47 l46 0 -7 -37 c-4 -21 -13 -46 -22 -55 -18 -22 -20 -21 116 -46
l102 -19 0 29 c0 26 -3 28 -40 28 -23 0 -40 5 -40 11 0 6 13 38 30 70 31 62
31 66 -1 49 -17 -10 -19 -7 -19 20 0 26 -4 30 -25 30 -15 0 -38 -12 -53 -27z"/>
<path d="M8495 9468 c-13 -19 -13 -24 -2 -26 23 -5 67 17 67 33 0 24 -46 18
-65 -7z"/>
<path d="M10820 8754 c0 -31 26 -64 49 -64 8 0 5 13 -10 38 -33 55 -39 59 -39
26z"/>
<path d="M616 8120 c-18 -46 -20 -66 -6 -75 12 -7 40 47 40 79 0 41 -17 39
-34 -4z"/>
<path d="M11609 7926 c16 -19 44 -21 39 -3 -3 6 -15 14 -28 15 -21 3 -22 2
-11 -12z"/>
<path d="M33 6555 c0 -38 2 -53 4 -32 2 20 2 52 0 70 -2 17 -4 1 -4 -38z"/>
<path d="M3040 3699 c7 -11 14 -19 16 -16 7 7 -7 37 -17 37 -6 0 -5 -9 1 -21z"/>
<path d="M7233 3136 c-86 -21 -99 -43 -66 -111 l17 -35 117 0 c113 0 117 1
133 25 15 23 23 25 86 25 63 0 70 2 70 19 0 27 -14 33 -43 20 -35 -16 -87 12
-87 46 0 25 -1 25 -87 24 -49 0 -111 -6 -140 -13z"/>
<path d="M9015 1541 c-30 -6 -30 -7 -39 -94 -5 -48 -7 -90 -3 -93 9 -10 57 28
73 57 15 29 20 125 7 132 -5 2 -21 1 -38 -2z"/>
<path d="M9920 1432 c0 -12 19 -26 26 -19 2 2 -2 10 -11 17 -9 8 -15 8 -15 2z"/>
<path d="M10038 1285 c-22 -29 -22 -42 -3 -88 18 -43 19 -61 4 -52 -11 7 -49
-22 -49 -37 0 -11 38 -10 45 2 4 7 13 7 26 0 26 -14 24 -25 -7 -38 -26 -13
-26 -17 -3 -79 8 -21 10 -21 59 -8 29 8 55 16 58 19 3 3 0 30 -7 60 -10 43
-10 64 0 95 12 39 11 42 -30 96 -46 60 -67 67 -93 30z"/>
<path d="M9160 1178 c-34 -74 -60 -168 -60 -218 0 -52 26 -152 60 -232 l30
-71 -16 -114 -15 -115 51 -133 c38 -97 56 -132 66 -128 11 4 14 -7 14 -46 l0
-51 35 0 c20 0 61 -13 93 -29 83 -42 99 -45 106 -24 4 10 13 26 20 36 14 18
16 18 40 2 21 -14 29 -15 41 -5 8 7 15 21 15 31 0 12 10 23 25 29 21 8 24 14
19 39 -6 26 -3 30 26 36 17 4 33 5 35 3 2 -1 0 -22 -5 -46 -8 -47 -9 -46 42
-60 42 -11 44 -9 53 65 4 27 2 60 -4 76 -10 25 -9 27 14 27 25 0 65 31 65 51
0 6 -9 8 -21 4 -18 -6 -20 -4 -14 17 18 56 66 128 86 128 5 0 2 -18 -6 -39
-12 -35 -12 -39 1 -34 22 8 41 51 49 108 4 28 20 109 37 180 23 100 29 145 25
198 -2 37 -6 70 -9 72 -2 2 -20 -1 -40 -7 -31 -9 -41 -8 -72 10 l-35 21 -29
-37 c-29 -35 -31 -36 -58 -22 -18 10 -47 14 -88 11 -168 -10 -178 -9 -242 33
-32 21 -89 63 -125 92 -53 43 -74 54 -103 54 -35 0 -36 1 -36 35 0 39 -2 40
-32 24 -23 -13 -20 -5 19 47 29 39 29 44 -3 44 -21 0 -30 -10 -54 -62z"/>
</g>
</svg>
