<?xml version="1.0" encoding="utf-8"?>
<!-- Svg Vector Icons : http://www.onlinewebfonts.com/icon -->
<!DOCTYPE svg PUBLIC "-//W3C//DTD SVG 1.1//EN" "http://www.w3.org/Graphics/SVG/1.1/DTD/svg11.dtd">
<svg version="1.1" xmlns="http://www.w3.org/2000/svg" xmlns:xlink="http://www.w3.org/1999/xlink" x="0px" y="0px" viewBox="0 0 1000 1000" enable-background="new 0 0 1000 1000" xml:space="preserve">
<metadata> Svg Vector Icons : http://www.onlinewebfonts.com/icon </metadata>
<g><g transform="translate(0.000000,511.000000) scale(0.100000,-0.100000)"><path d="M6005.4,4932.1c-12.3-16.4-37-24.6-51.3-20.5c-37,14.4-59.5-106.8-43.1-227.9c10.3-59.5,8.2-92.4-6.2-92.4c-12.3,0-22.6-18.5-22.6-43.1c0-41.1-14.4-43.1-117-4.1c-14.4,6.2-26.7-4.1-26.7-22.6c0-22.6-18.5-32.9-65.7-32.9c-55.4,0-75.9,14.4-115,71.9c-51.3,82.1-100.6,92.4-110.9,26.7c-4.1-28.7-18.5-45.2-36.9-43.1c-22.6,4.1-30.8-14.4-30.8-71.9c0-41.1,10.3-82.1,20.5-90.3c39-28.7-32.9-53.4-100.6-34.9c-104.7,30.8-115,24.6-115-63.6c0-78-4.1-82.1-49.3-69.8c-43.1,10.3-53.4,2.1-73.9-67.8c-14.4-43.1-36.9-84.2-49.3-92.4c-16.4-10.3-14.4-22.6,4.1-41.1c37-36.9,30.8-94.4-20.5-166.3c-24.6-34.9-43.1-84.2-41.1-110.9c2.1-32.8-10.3-49.3-45.2-59.5c-43.1-10.3-47.2-20.5-37-110.9c6.2-76-2-131.4-37-215.6c-43.1-108.8-45.2-117-10.3-154c55.4-61.6,32.9-112.9-55.4-119.1c-55.4-4.1-88.3-22.6-115-61.6c-41.1-57.5-71.9-176.6-51.3-195c12.3-14.4,26.7-178.6,26.7-324.4c0-80.1,8.2-100.6,51.3-129.3c41.1-26.7,49.3-45.2,39-80.1c-8.2-24.6-28.7-55.4-45.2-67.8c-22.6-16.4-24.6-30.8-6.2-65.7c41.1-76,28.7-203.3-22.6-238.1c-36.9-26.7-47.2-55.4-49.3-158.1c-4.1-139.6-14.4-158.1-59.5-121.1c-28.7,24.6-30.8,16.4-20.5-63.6c20.5-139.6,26.7-149.9,61.6-121.1c49.3,41.1,61.6,6.2,32.9-76c-20.5-55.4-22.6-78-4.1-84.2c12.3-4.1,22.6-26.7,22.6-49.3c0-39,115-225.8,147.8-238.1c24.6-10.3,20.5-65.7-6.2-65.7c-12.3,0-16.4-14.4-10.3-32.9c6.2-16.4,4.1-24.6-8.2-18.5c-12.3,6.2-20.5-2.1-20.5-18.5c0-18.5-18.5-32.9-41.1-32.9s-41.1-8.2-41.1-20.5c0-10.3-14.4-20.5-30.8-20.5s-30.8-8.2-30.8-18.5s-20.5-22.6-45.2-30.8c-37-8.2-41.1-16.4-20.5-37c12.3-12.3,24.6-41.1,24.6-61.6c0-20.5,8.2-36.9,16.4-36.9c10.3,0,32.9-12.3,53.4-26.7c51.3-39,22.6-100.6-41.1-84.2c-26.7,6.2-49.3,4.1-49.3-8.2c0-34.9,53.4-63.6,96.5-53.4c49.3,14.4,82.1,69.8,41.1,69.8c-16.4,0-16.4,6.2,4.1,18.5c14.4,10.3,22.6,26.7,14.4,39c-6.2,12.3,4.1,30.8,22.6,43.1c32.8,18.5,32.8,24.6,6.2,43.1s-26.7,24.6,6.2,43.1c18.5,10.3,34.9,45.2,37,76v55.4l34.9-49.3c18.5-26.7,32.8-67.8,34.9-92.4c0-32.9,10.3-41.1,51.3-37c28.7,2.1,69.8,6.2,92.4,8.2c51.3,4.1,76,39,49.3,71.9c-26.7,30.8-4.1,108.8,32.8,108.8c14.4,0,30.8,8.2,34.9,20.5c4.1,10.3,47.2,22.6,98.5,28.7c86.2,6.2,92.4,12.3,98.5,71.9c4.1,34.9,14.4,63.6,24.7,63.6c24.6,0,34.9,326.4,10.3,336.7c-12.3,6.2-12.3,14.4,2.1,26.7c12.3,8.2,20.5,59.5,20.5,112.9c-2,71.9,6.2,102.6,34.9,123.2c22.6,14.4,47.2,49.3,59.5,78c10.3,28.7,24.6,41.1,32.8,28.7c8.2-12.3,28.8-6.2,51.3,16.4c32.9,34.9,32.9,39,2.1,51.3c-18.5,6.2-39,4.1-47.2-6.2c-16.4-22.6-106.8-26.7-92.4-4.1c10.3,16.4-63.6,26.7-139.6,20.5c-20.5-2.1-36.9,4.1-36.9,14.4c0,24.6,65.7,39,151.9,30.8c69.8-6.2,71.9-4.1,51.3,37c-18.5,32.8-16.4,39,6.2,32.8c14.4-6.2,28.8-28.7,32.8-53.4c8.2-51.3,37-57.5,71.9-18.5c112.9,121.1,112.9,106.8-8.2,219.7c-59.5,57.5-121.1,98.5-137.5,92.4c-30.8-12.3-65.7,69.8-65.7,156c0,34.9-10.3,80.1-20.5,102.6c-16.4,28.7-14.4,39,6.1,39c30.8,0,43.1,156,12.3,174.5c-28.7,18.5-22.6,51.3,12.3,51.3c18.5,0,41.1,22.6,51.3,49.3c10.3,26.7,28.7,55.4,41.1,63.6c10.3,6.2,16.4,20.5,10.3,30.8c-6.2,10.3,16.4,47.2,51.3,82.1c34.9,34.9,57.5,71.9,51.3,84.2c-8.2,10.3-2.1,18.5,12.3,18.5c43.1,0,141.7,106.8,141.7,154c0,22.6,14.4,63.6,32.8,90.3c30.8,43.1,30.8,47.2-10.3,76c-51.3,36.9-53.4,63.6-12.3,112.9c28.7,30.8,28.7,36.9-2.1,67.7c-32.9,32.9-30.8,37,10.3,47.2c22.6,6.2,45.2,18.5,45.2,28.7c2,10.3,6.2,28.7,8.2,39c2.1,12.3,6.1,34.9,8.2,53.4c2.1,28.7,6.2,30.8,37,6.2c26.7-22.6,34.9-22.6,41.1-2.1c6.2,12.3,30.8,24.6,55.4,24.6s57.5,12.3,71.9,26.7c20.5,20.5,30.8,18.5,49.3-8.2c14.4-18.5,43.1-36.9,65.7-41.1c24.6-6.2,43.1-28.7,49.3-59.5c2-28.7,16.4-57.5,30.8-67.7c14.4-10.3,4.1-28.8-32.9-57.5c-32.8-22.6-57.5-61.6-57.5-86.2c0-24.6-14.4-71.9-30.8-104.7c-16.4-30.8-30.8-71.9-30.8-86.2c0-16.4-14.4-34.9-30.8-41.1c-16.4-8.2-30.8-30.8-30.8-53.4c0-20.5-8.2-32.8-20.5-26.7c-12.3,8.2-20.5-12.3-20.5-45.2c0-67.7-32.9-110.9-71.9-96.5c-14.4,6.2-32.9,2.1-41.1-10.3c-6.2-12.3-2.1-22.6,8.2-22.6c32.9,0,26.7-43.1-8.2-82.1c-30.8-32.8-20.5-123.2,12.3-123.2c10.3,0,18.5-24.6,18.5-53.4s20.5-82.1,45.2-117c32.8-45.2,37-65.7,20.5-71.9c-20.5-6.2-20.5-14.4-2.1-37c12.3-14.4,16.4-51.3,10.3-78c-12.3-53.4,16.4-158.1,43.1-151.9c34.9,8.2,149.9-28.8,149.9-47.2c0-12.3,8.2-16.4,18.5-10.3c10.3,6.2,22.6,0,28.7-14.4c16.4-43.1,219.7-16.4,219.7,28.7c0,10.3,14.4,18.5,30.8,18.5c16.4,0,49.3,18.5,71.9,41.1s53.4,34.9,71.9,28.7c36.9-14.4,41.1,14.4,6.1,49.3c-20.5,20.5-16.4,24.6,14.4,22.6c80.1-8.2,135.5,2.1,123.2,22.6c-6.2,12.3,8.2,20.5,36.9,20.5c41.1,0,63.7,28.7,143.7,190.9c104.7,209.4,205.3,517.4,195,591.3c-4.1,36.9-39,65.7-123.2,110.9c-117,61.6-117,61.6-104.7,137.6c10.3,69.8,6.2,80.1-45.1,98.5c-41.1,14.4-53.4,32.9-45.2,59.5c6.2,26.7-6.1,45.2-36.9,59.5c-32.8,14.4-51.3,49.3-65.7,125.2c-14.4,71.9-14.4,104.7,0,110.9c26.7,8.2-45.1,117-145.8,223.8l-71.9,76l26.7,112.9c26.7,110.9,26.7,112.9-32.8,164.2c-32.9,28.7-76,53.4-94.5,53.4c-43.1,0-78,59.5-78,131.4c0,28.7-10.3,53.4-22.6,53.4c-10.3,0-14.4,10.3-6.2,24.6c22.6,36.9,22.6,145.8,0,176.5c-14.4,20.5-141.7,86.2-166.3,86.2C6034.1,4960.8,6019.7,4948.5,6005.4,4932.1z"/><path d="M2774,2156.4c-34.9-24.6-34.9-28.7-8.2-28.7c18.5,0,41.1,10.3,47.2,22.6C2835.6,2185.2,2817.1,2187.2,2774,2156.4z"/><path d="M5512.7,2084.6c0-10.3,10.3-14.4,20.5-8.2c12.3,6.2,20.5,16.4,20.5,22.6c0,4.1-8.2,8.2-20.5,8.2C5522.9,2107.2,5512.7,2096.9,5512.7,2084.6z"/><path d="M6816.3,2084.6c-32.8-10.3-98.6-16.4-143.7-14.4c-51.3,2-104.7-10.3-137.6-32.9c-30.8-20.5-65.7-30.8-78-22.6c-10.3,6.2-20.5,4.1-20.5-8.2c0-10.3-20.5-22.6-45.2-26.7c-26.7-4.1-43.1-14.4-36.9-22.6c6.1-10.3-16.4-32.9-49.3-49.3c-55.4-28.7-57.5-34.9-26.7-57.5c18.5-12.3,28.8-30.8,22.6-36.9c-8.2-8.2,2-45.2,20.5-86.2c34.9-69.8,80-92.4,104.7-51.3c30.8,51.3,55.4,16.4,45.1-63.6c-8.2-55.4,0-108.8,20.5-154c30.8-61.6,30.8-71.9-2-119.1c-45.2-69.8-129.4-71.9-156-4.1c-10.3,26.7-37,55.4-59.5,63.6c-24.6,6.2-43.1,22.6-43.1,32.9c0,34.9-55.4,18.5-110.9-32.9c-45.1-41.1-53.4-63.6-43.1-110.9c8.2-37,2.1-65.7-16.4-80.1c-20.5-18.5-24.6-49.3-12.3-131.4c26.7-178.6,41.1-232,61.6-238.1c10.3-4.1,18.5-24.6,18.5-45.2c0-43.1,119.1-92.4,178.6-73.9c61.6,18.5,98.6-20.5,100.6-108.8c0-76-6.2-86.2-65.7-104.7c-37-12.3-147.8-24.6-248.4-28.7c-98.5-2.1-201.2-16.4-227.9-30.8c-61.6-32.9-125.2-10.3-147.8,51.3c-10.3,26.7-34.9,49.3-55.4,49.3c-59.5,2.1-273-110.9-285.4-147.8c-6.2-18.5-30.8-41.1-55.4-49.3c-133.4-39-283.3-119.1-273-145.8c20.5-49.3-57.5-20.5-80.1,30.8c-10.3,24.6-30.8,45.2-43.1,45.2s-34.9,14.4-49.3,30.8c-22.6,26.7-20.5,28.7,6.2,18.5c47.2-16.4,84.2,8.2,57.5,41.1c-12.3,14.4-16.4,30.8-10.3,37c4.1,6.2-4.1,16.4-20.5,22.6c-18.5,8.2-34.9-4.1-43.1-28.7c-10.3-32.8-26.7-39-63.6-30.8c-34.9,10.3-53.4,2.1-69.8-28.7c-12.3-22.6-39-41.1-61.6-41.1c-22.6,0-55.4-24.6-73.9-53.4c-24.6-34.9-39-43.1-49.3-26.7c-8.2,12.3-24.6,18.5-37,10.3c-34.9-20.5-47.2,22.6-14.4,49.3c47.2,39,41.1,88.3-8.2,61.6c-28.7-14.4-45.2-14.4-53.4,0c-8.2,12.3-24.6,20.5-36.9,18.5c-57.5-6.2-69.8,4.1-59.5,53.4c6.2,41.1,0,51.3-32.8,51.3c-34.9,0-41.1,10.3-37,57.5c4.1,30.8,8.2,76,10.3,102.7c2.1,55.4,34.9,59.5,51.3,8.2c16.4-49.3,108.8-100.6,133.4-73.9c22.6,22.6,4.1,135.5-18.5,121.1c-10.3-6.2-24.6-2.1-30.8,10.3c-10.3,16.4-22.6,16.4-41.1,0c-16.4-14.4-39-16.4-53.4-8.2c-16.4,10.3-14.4,18.5,10.3,32.8c18.5,10.3,32.9,34.9,32.9,57.5c0,69.8,22.6,106.8,51.3,82.1c20.5-18.5,32.9-12.3,51.3,20.5c26.7,49.3,10.3,84.2-30.8,69.8c-41.1-16.4-61.6,82.1-34.9,172.5c12.3,43.1,20.5,94.4,18.5,119.1c-2.1,39-8.2,39-55.4,14.4c-30.8-14.4-65.7-49.3-78-78c-18.5-41.1-39-51.3-96.5-51.3c-63.6,0-76-8.2-102.7-73.9c-36.9-86.2-39-178.6-10.3-236.1c16.4-30.8,14.4-47.2-10.3-71.9c-43.1-43.1-39-59.5,22.6-88.3c47.2-20.5,51.3-30.8,39-96.5c-8.2-51.3-2.1-88.3,20.5-125.2c28.7-43.1,30.8-55.4,8.2-69.8c-20.5-12.3-22.6-18.5-4.1-18.5c18.5,0,24.6-24.6,20.5-71.9c-2.1-53.4-14.4-71.9-39-71.9c-28.7,0-36.9-16.4-36.9-71.9c0-84.2-32.9-94.4-65.7-20.5c-30.8,69.8-149.9,73.9-170.4,8.2c-10.3-28.7-4.1-51.3,12.3-61.6c16.4-10.3,20.5-18.5,10.3-18.5c-10.3,0-34.9,14.4-55.4,32.8c-53.4,47.2-203.2,22.6-264.8-43.1c-26.7-28.8-63.6-51.3-84.2-51.3c-22.6,0-39-22.6-47.2-71.9c-8.2-39-37-98.5-63.6-131.4c-28.7-32.8-51.3-69.8-51.3-82.1c0-12.3-8.2-22.6-20.5-22.6c-10.3,0-20.5-8.2-20.5-20.5c0-10.3,16.4-20.5,34.9-20.5c18.5,0,26.7-6.2,20.5-12.3c-6.2-8.2-4.1-30.8,8.2-53.4c18.5-34.9,16.4-39-16.4-28.7c-119.1,34.9-149.9,34.9-227.9-6.2c-47.2-24.6-110.9-43.1-143.7-43.1c-78,0-102.7-30.8-112.9-141.7c-8.2-98.5-28.8-117-174.5-151.9c-73.9-18.5-98.5-34.9-102.7-69.8c-8.2-59.5-55.4-73.9-145.8-45.2c-41.1,14.4-86.2,26.7-102.6,32.9c-16.4,4.1-22.6,22.6-16.4,45.2c8.2,30.8-4.1,41.1-51.3,47.2c-57.5,8.2-59.5,6.2-47.2-43.1c8.2-28.7,14.4-86.2,14.4-125.2c-2.1-39,8.2-84.2,22.6-100.6c20.5-24.6,14.4-26.7-41.1-18.5c-36.9,4.1-71.9,0-76-12.3c-6.2-14.4-18.5-8.2-32.9,14.4c-18.5,26.7-30.8,30.8-63.6,14.4c-20.5-12.3-39-14.4-39-4.1c0,10.3-18.5,39-41.1,65.7c-28.7,32.8-51.3,41.1-76,28.8c-20.5-8.2-76-12.3-125.2-10.3c-86.2,4.1-158.1-26.7-137.6-61.6c6.2-8.2,24.6-12.3,41.1-6.2c18.5,8.2,26.7-2.1,24.6-30.8c-2.1-26.7-16.4-43.1-39-43.1c-32.8,0-32.8-4.1,4.1-41.1c24.6-24.6,51.3-37,61.6-30.8c10.3,6.2,41.1-6.2,65.7-30.8c24.6-22.6,57.5-37,73.9-30.8c14.4,4.1,30.8-4.1,37-20.5c8.2-16.4,26.7-30.8,43.1-30.8c16.4,0,22.6-10.3,16.4-20.5c-6.2-12.3,6.2-20.5,30.8-20.5c34.9,0,41.1-8.2,30.8-41.1c-8.2-26.7,2.1-51.3,28.7-76c26.7-22.6,34.9-43.1,22.6-57.5c-32.8-39,22.6-151.9,88.3-180.6c53.4-22.6,57.5-30.8,49.3-121.1c-6.2-67.8,0-104.7,18.5-121.1c16.4-12.3,28.7-39,28.7-55.4c0-26.7-6.2-24.6-30.8,8.2c-26.7,32.9-32.9,34.9-51.3,8.2c-10.3-16.4-20.5-47.2-20.5-67.7c0-20.5-10.3-55.4-20.5-78c-18.5-30.8-14.4-39,14.4-39c30.8,0,30.8-2.1,2-26.7c-18.5-12.3-49.3-82.1-69.8-154c-49.3-182.7-156-240.2-275.1-147.8c-36.9,28.8-57.5,32.8-78,16.4c-18.5-16.4-37-12.3-71.9,20.5c-34.9,30.8-69.8,41.1-147.8,39s-135.5,14.4-234,63.6c-73.9,36.9-156,65.7-184.8,65.7c-129.3,0-211.5,26.7-234,76c-16.4,37-34.9,45.2-84.2,41.1c-34.9-4.1-92.4-22.6-129.3-41.1c-36.9-20.5-88.3-34.9-115-34.9c-28.7,0-61.6-12.3-73.9-28.8c-30.8-36.9-6.2-94.4,41.1-94.4c47.2,0,49.3-16.4,4.1-65.7c-30.8-34.9-30.8-37,2.1-37c32.8,0,32.8-2,4.1-32.8c-18.5-16.4-32.8-47.2-32.8-67.8c0-18.5-10.3-45.1-24.6-59.5c-18.5-18.5-18.5-24.6,2.1-24.6c20.5,0,20.5-8.2,6.2-26.7c-12.3-12.3-20.5-78-20.5-145.8c0-75.9-8.2-125.2-24.6-135.5c-14.4-10.3-55.4-76-90.3-145.8c-37-78-84.2-141.7-115-156c-28.7-14.4-45.2-26.7-34.9-26.7c8.2,0,0-28.8-16.4-63.6c-43.1-82.1-24.6-182.7,34.9-182.7c34.9,0,39-10.3,28.7-65.7c-6.2-37-14.4-96.5-20.5-131.4c-4.1-34.9-22.6-92.4-41.1-127.3c-32.9-63.7-32.9-65.7,8.2-65.7c24.6,0,76-16.4,119.1-39c49.3-24.6,90.3-32.8,117-20.5c22.6,8.2,61.6,16.4,86.2,16.4c57.5,2,199.1-129.4,184.8-170.4c-8.2-18.5-4.1-37,6.2-43.1c10.3-6.2,14.4-24.6,8.2-39c-6.2-16.4,16.4-59.5,49.3-98.5l61.6-67.7l67.8,49.3c41.1,30.8,92.4,49.3,125.2,47.2c28.7-2.1,59.5,4.1,67.7,16.4c16.4,26.7,156,26.7,229.9-2.1c30.8-12.3,108.8-22.6,170.4-22.6c61.6-2,123.2-10.3,137.6-20.5c14.4-12.3,30.8-8.2,45.2,8.2c131.4,166.3,139.6,170.4,238.1,166.3c82.1-2,92.4,0,69.8,28.8c-22.6,24.6-20.5,34.9,8.2,49.3c18.5,12.3,34.9,28.8,34.9,41.1c0,32.9,88.3,110.9,160.1,139.6l65.7,28.7l-51.3,47.2c-88.3,82.1-71.9,164.2,65.7,318.2c63.6,71.9,129.3,135.5,143.7,137.6c16.4,4.1,24.6,20.5,18.5,34.9c-16.4,43.1,34.9,71.9,174.5,94.4c71.9,12.3,145.8,32.9,162.2,49.3c16.4,14.4,69.8,43.1,119.1,61.6c84.2,34.9,96.5,49.3,86.2,110.9c-2.1,16.4,8.2,34.9,22.6,45.2c18.5,10.3,20.5,22.6,4.1,43.1c-47.2,55.4-28.7,221.7,24.6,221.7c14.4,0,49.3,18.5,80.1,43.1c47.2,37,61.6,39,125.2,18.5c39-12.3,71.9-30.8,71.9-41.1c0-8.2,18.5-12.3,41.1-6.2c22.6,6.2,41.1,18.5,41.1,28.7c0,10.3,10.3,18.5,22.6,18.5s18.5-12.3,12.3-28.8c-12.3-32.8,112.9-102.6,180.7-100.6c94.4,2,110.9,8.2,123.2,45.2c6.2,20.5,30.8,47.2,57.5,59.5c24.6,12.3,32.8,22.6,20.5,22.6c-14.4,2-26.7,16.4-26.7,32.8c0,34.9,22.6,41.1,53.4,10.3c34.9-34.9,180.7,18.5,223.8,80.1c63.6,98.5,102.6,110.9,188.9,65.7c43.1-22.6,106.7-53.4,141.7-69.8c47.2-22.6,71.9-55.4,98.5-129.3c20.5-55.4,37-121.1,37-145.8c0-26.7,10.3-47.2,20.5-47.2c22.6,0,119.1-102.6,119.1-125.2c0-8.2,22.6-20.5,49.3-26.7c28.7-6.2,57.5-30.8,63.6-53.4c6.2-22.6,22.6-41.1,34.9-41.1c12.3,0,51.3-32.8,88.3-73.9c84.2-90.3,145.8-125.2,234-127.3c71.9-2.1,145.8-53.4,145.8-98.5c0-16.4,18.5-26.7,47.2-22.6c32.9,2.1,43.1-6.2,39-32.8c-6.2-32.9,0-34.9,37-14.4c36.9,20.5,49.3,16.4,71.9-14.4c14.4-20.5,22.6-45.2,16.4-53.4c-14.4-24.6,57.5-73.9,110.9-76c45.2,0,49.3-8.2,174.5-281.3c24.6-49.3,8.2-88.3-37-88.3c-22.6,0-26.7-12.3-18.5-39c6.1-22.6-2.1-53.4-22.6-73.9c-26.7-26.7-30.8-43.1-14.4-69.8c30.8-47.2,73.9-41.1,102.6,18.5c14.4,26.7,39,61.6,57.5,73.9c22.6,16.4,28.7,41.1,18.5,78c-10.3,47.2-4.1,57.5,63.7,86.2c67.7,26.7,73.9,37,61.6,84.2c-14.4,61.6-63.7,106.8-117,108.8c-39,0-57.5,39-36.9,82.1c8.2,16.4,30.8,65.7,49.3,108.8c32.9,76,59.5,94.5,84.2,55.4c6.1-12.3,43.1-20.5,82.1-20.5c55.4,0,75.9-12.3,96.5-55.4c37-73.9,73.9-82.1,90.3-16.4c12.3,47.2,2,65.7-55.4,110.9c-88.3,69.8-264.8,158.1-351.1,176.6c-36.9,8.2-94.4,28.8-125.2,45.2c-55.4,26.7-57.5,32.8-26.7,65.7c59.5,65.7,39,80-90.3,69.8c-119.1-12.3-123.2-10.3-223.8,73.9c-82.1,67.7-112.9,112.9-156,227.9c-30.8,80.1-67.7,143.7-82.1,143.7c-49.3,0-234,162.2-248.4,217.6c-8.2,28.7-2.1,73.9,12.3,100.6c20.5,39,20.5,55.4-8.2,94.4c-47.2,67.8-43.1,73.9,59.5,121.1c51.3,22.6,92.4,51.3,92.4,61.6c0,32.8,112.9,6.2,119.1-28.8c4.1-18.5-4.1-32.9-16.4-32.9c-24.6,0-14.4-57.5,24.6-137.5c32.8-65.7,51.3-59.5,80.1,24.6c30.8,82.1,41.1,84.2,110.9,39c34.9-22.6,51.3-53.4,51.3-92.4c0-32.9,16.4-73.9,39-92.4c20.5-18.5,32.9-49.3,28.7-69.8c-8.2-26.7,14.4-53.4,73.9-94.4c47.2-28.8,84.2-65.7,84.2-78c0-12.3,39-22.6,88.3-24.6c57.5-2.1,112.9-20.5,166.3-57.5c108.8-71.9,135.5-67.7,51.3,10.3c-195,178.6-281.3,264.8-273,264.8c4.1,0-4.1,26.7-22.6,61.6c-18.5,32.8-41.1,61.6-51.3,61.6c-24.7,0-26.7,117-2.1,131.4c10.3,6.2,28.7-2.1,43.1-18.5c32.8-39,61.6-39,61.6-2c0,36.9,82.1,51.3,190.9,32.8c47.2-10.3,96.5-10.3,106.8-2c32.8,26.7,154,14.3,172.5-16.4c10.3-14.4,28.7-20.5,41.1-14.4c28.7,18.5,28.7,115,0,115c-12.4,0-18.5,14.4-10.3,30.8c6.1,16.4,4.1,30.8-6.2,30.8c-30.8,0-39,100.6-10.3,125.2c16.4,12.3,28.8,16.4,28.8,8.2c0-10.3,18.5,0,41.1,20.5c22.6,20.5,65.7,41.1,96.5,43.1c69.8,8.2,184.8-75.9,195-139.6c4.1-32.8,26.7-51.3,82.1-63.6c69.8-16.4,76-24.6,69.8-76c-6.2-51.3,2.1-61.6,57.5-73.9c34.9-6.2,75.9-22.6,90.3-32.9c18.5-16.4,24.7-8.2,24.7,32.9c0,49.3,4.1,51.3,51.3,28.7c36.9-16.4,45.1-28.7,28.7-49.3c-14.4-18.5-12.3-37,4.1-65.7c20.5-32.9,20.5-47.2,0-73.9c-39-45.1,2.1-135.5,80.1-180.7c55.4-32.8,59.5-39,36.9-88.3c-12.3-28.8-34.9-51.3-51.3-51.3c-30.8,0-36.9-73.9-8.2-90.3c10.3-6.2,14.4-30.8,8.2-53.4c-8.2-26.7,2.1-45.2,26.7-53.4c71.9-26.7,110.9-76,110.9-139.6c0-92.4-51.3-156-123.2-156c-37,0-67.8-14.4-80.1-36.9c-10.3-20.5-55.4-49.3-100.6-61.6c-69.8-22.6-80.1-30.8-69.8-76c4.1-30.8,0-51.3-14.4-51.3c-12.3,0-22.6-18.5-22.6-39c0-22.6-16.4-55.4-34.9-75.9c-20.5-20.5-39-45.2-39-57.5c-2.1-12.3-4.1-34.9-6.2-47.2c0-14.4-18.5-26.7-37-26.7c-26.7,0-16.4-16.4,34.9-59.6c39-32.8,82.1-71.9,92.4-84.2c12.3-12.3,45.1-49.3,78-80.1c30.8-32.8,55.4-67.7,55.4-78c0-26.7,119.1-30.8,133.4-4.1c8.2,10.3,39,18.5,73.9,18.5c32.8,0,59.5,10.3,59.5,22.6c0,16.4,10.3,16.4,30.8-2.1c16.4-14.4,30.8-18.5,30.8-8.2c0,8.2,10.3,6.2,24.6-8.2c14.4-14.4,47.2-24.6,76-24.6c49.2,0,49.2,0,10.3-39c-22.6-22.6-47.2-30.8-59.5-20.5c-10.3,10.3-39,18.5-65.7,18.5c-24.6,0-69.8,10.3-98.5,24.6c-47.2,20.5-57.5,20.5-73.9-10.3c-12.3-18.5-30.8-34.9-45.2-34.9c-14.4,0-34.9-22.6-47.2-47.2c-22.6-51.3-10.3-71.9,71.9-117c36.9-18.5,45.2-36.9,36.9-78c-10.3-55.4,39-156,67.8-137.5c10.3,6.2,12.3,28.8,6.1,53.4c-18.4,69.8,55.5,41.1,98.6-39c49.3-92.4,65.7-106.8,49.3-43.1c-16.4,67.8,20.5,96.5,67.7,55.4c18.5-16.4,49.3-39,65.7-47.2c26.7-14.4,26.7-12.3,4.1,14.4c-14.4,18.5-24.6,41.1-20.5,49.3c6.2,24.6-57.5,139.6-94.4,170.4c-43.1,37-20.5,69.8,28.8,43.1c20.5-10.3,59.6-20.5,84.2-20.5c43.1,0,41.1,4.1-22.6,61.6c-37,32.8-65.7,63.6-59.5,67.7c4.1,4.1,34.9,16.4,65.7,30.8c51.3,22.6,65.7,18.5,121.1-18.5l61.6-45.2l-14.4,47.2c-8.2,24.6-16.4,61.6-18.5,80.1c-4.1,16.4-22.6,36.9-45.1,45.1c-112.9,37-131.4,45.2-131.4,61.6c0,10.3-12.3,12.3-28.8,6.2c-16.4-6.2-34.9-2.1-43.1,10.3c-6.2,12.3-32.8,22.6-57.5,24.6c-39,0-36.9,4.1,14.4,22.6c45.1,16.4,73.9,14.4,127.3-12.3c39-16.4,69.8-43.1,69.8-55.4c0-12.3,16.4-18.5,39-12.3c20.5,4.1,51.3,0,69.8-10.3c28.8-14.4,30.8-10.3,16.4,28.8c-12.3,32.8-39,51.3-94.4,59.5c-41.1,6.2-84.2,24.6-92.4,39s-30.8,20.5-49.3,14.4c-49.3-18.5-94.4,4.1-94.4,49.3c0,32.9,8.2,34.9,51.3,18.5c43.1-16.4,32.8,0-47.2,82.1c-106.7,108.8-143.7,207.3-92.4,248.4c20.5,18.5,26.7,16.4,26.7-8.2c0-34.9,98.5-55.4,162.2-30.8c43.1,14.4,61.6,98.5,22.6,98.5c-10.3,0-20.5,10.3-20.5,20.5c0,12.3,22.6,20.5,51.3,20.5s59.6,16.4,71.9,43.1c14.4,26.7,34.9,37,55.4,30.8c18.5-8.2,45.2-2,63.6,12.3c16.4,14.4,86.3,26.7,156.1,26.7l125.2,2.1l6.1,69.8c4.1,39,20.5,80.1,39,92.4c28.8,20.5,28.8,26.7-2.1,55.4c-16.4,18.5-43.1,36.9-57.5,43.1c-16.4,6.2,0,32.9,45.2,73.9c57.5,53.4,84.2,63.6,133.4,55.4c34.9-6.2,75.9,0,96.5,16.4c32.8,24.6,32.8,28.7-6.1,59.5c-20.5,18.5-53.4,34.9-69.8,34.9c-16.4,0-30.8,10.3-30.8,20.5c0,12.3,10.3,20.5,20.5,20.5c12.3,0,20.5,14.4,20.5,30.8s8.2,30.8,18.5,30.8c12.3,0,14.4,30.8,8.2,69.8c-12.3,78,20.5,156,67.8,156c26.7,0,28.7,14.4,16.4,88.3c-22.6,110.9-20.5,199.1,2,248.4c10.3,24.6,10.3,34.9-2,26.7c-12.4-6.2-20.5,10.3-18.5,36.9c0,61.6,30.8,94.4,30.8,34.9c0-39,6.1-41.1,51.3-20.5c51.3,22.6,59.5,51.3,39,135.5c-16.4,55.4-57.5,57.5-125.3,4.1c-59.5-47.2-139.6-53.4-164.2-14.4c-34.9,55.4-67.7,172.5-67.7,252.5c0,78-12.3,96.5-137.6,217.6c-78,71.9-160.1,158.1-186.8,188.9c-43.1,53.4-49.3,55.4-92.4,26.7c-24.6-16.4-45.1-43.1-45.1-57.5c0-16.4-37-41.1-80.1-55.4c-45.1-14.4-94.4-45.2-110.9-67.8c-26.7-39-30.8-39-65.7-8.2c-20.5,18.5-55.5,28.8-76,22.6c-20.5-6.2-82.1-12.3-139.6-14.4c-55.4-2.1-108.8-14.4-117-26.7c-12.3-16.4-20.5-16.4-30.8,0c-10.3,12.3-36.9,28.8-59.5,37c-65.7,20.5-121.1,88.3-96.5,119.1c12.3,14.4,26.7,51.3,34.9,84.2c6.1,30.8,20.5,55.4,30.8,55.4s10.3,30.8-2.1,67.7c-18.4,59.6-12.3,84.2,45.2,197.1c36.9,75.9,82.1,133.4,104.7,139.6c43.1,12.3,53.4,57.5,16.4,78c-12.4,8.2-16.4,26.7-10.3,41.1c6.1,16.4-12.4,43.1-41.1,59.6c-26.7,18.5-49.3,49.3-49.3,69.8s-8.2,45.2-18.5,55.4c-10.3,12.3-22.6,53.4-26.7,92.4c-4.1,55.4-16.4,73.9-51.3,78c-59.5,8.2-59.5,28.8,4.1,102.7c65.7,78,63.6,112.9-10.3,250.5c-32.8,61.6-59.5,119.1-61.6,127.3c0,8.2,34.9,20.5,78,28.7c51.3,8.2,96.5,36.9,143.7,88.3c53.4,59.5,69.8,67.8,86.3,43.1c10.3-16.4,24.6-22.6,34.9-14.4c8.2,10.3,4.1,22.6-8.2,30.8c-32.8,20.5-28.7,162.2,6.2,190.9c16.4,12.3,28.8,37,28.8,51.3c0,16.4,14.4,28.7,30.8,28.7c16.4,0,30.8,14.4,30.8,32.9c0,16.4-8.2,24.6-20.5,18.5c-12.3-8.2-20.5,12.3-20.5,47.2c0,63.6,53.4,127.3,108.8,127.3c18.5,0,34.9,16.4,34.9,34.9c0,18.5,14.4,49.3,32.8,69.8c37,43.1,16.4,94.4-61.6,158.1c-34.9,26.7-49.3,55.4-45.2,94.4c6.1,43.1-4.1,61.6-41.1,73.9c-51.3,20.5-71.9,112.9-28.8,127.3c12.3,4.1,6.1,24.6-16.4,49.3c-20.5,22.6-45.1,67.7-55.4,100.6c-20.5,86.2-14.4,238.1,12.3,271C6916.9,2111.3,6904.6,2111.3,6816.3,2084.6z M4219.3,1062.2c0-22.6,6.2-53.4,12.3-71.9c6.2-18.5,2.1-32.9-10.3-32.9c-12.3,0-22.6,14.4-22.6,34.9c0,30.8-2.1,30.8-36.9,0c-43.1-39-86.2-45.2-86.2-12.3c0,10.3,10.3,14.4,20.5,8.2c12.3-6.2,20.5,10.3,20.5,39c0,26.7,12.3,55.4,26.7,59.5C4194.7,1109.4,4219.3,1101.2,4219.3,1062.2z M4311.7,115.8c6.2-10.3,4.1-20.5-8.2-20.5c-10.3,0-26.7,10.3-32.8,20.5c-6.2,12.3-4.1,20.5,8.2,20.5C4289.1,136.3,4305.5,128.1,4311.7,115.8z M4153.6-1526.6c78,0,127.3-53.4,112.9-125.2c-8.2-45.2-4.1-59.5,20.5-59.5c16.4,0,34.9-10.3,39-24.6c8.2-20.5,22.6-20.5,86.2,6.2c10.3,4.1,20.5-22.6,20.5-57.5c2.1-55.4-4.1-65.7-34.9-55.4c-28.8,10.3-34.9,2.1-26.7-41.1c6.2-28.7,0-53.4-10.3-53.4s-18.5,10.3-18.5,20.5c0,12.3-20.5,16.4-49.3,8.2c-34.9-8.2-55.4,0-71.9,26.7c-20.5,34.9-20.5,32.8-22.6-8.2c0-24.6-8.2-51.3-20.5-57.5c-10.3-6.2-20.5-34.9-20.5-63.6c0-43.1-4.1-47.2-28.7-24.6c-16.4,14.4-24.6,32.9-20.5,41.1c6.2,8.2-10.3,24.6-32.9,36.9c-22.6,12.3-41.1,37-41.1,55.4c0,24.6-6.2,26.7-30.8,6.2c-16.4-14.4-26.7-32.9-20.5-41.1c18.5-30.8-55.4-69.8-139.6-76c-82.1-6.2-145.8,37-129.3,88.3c4.1,12.3,2.1,32.9-6.2,47.2c-18.5,28.7-84.2,8.2-84.2-28.8c0-14.4-14.4-30.8-30.8-37c-22.6-10.3-26.7,0-16.4,53.4c6.2,37,24.6,76,39,88.3c16.4,12.3,28.7,30.8,28.7,41.1c0,10.3,26.7,45.2,61.6,76c32.9,32.9,59.5,69.8,55.4,82.1c-2.1,14.4,14.4,24.6,37,26.7c22.6,0,57.5,8.2,78,16.4c18.5,10.3,67.8,12.3,106.8,8.2c53.4-6.2,69.8-2,63.6,16.4c-6.2,14.4,0,30.8,14.4,34.9c14.4,4.1,28.8,0,30.8-8.2C4096.1-1518.4,4122.8-1526.6,4153.6-1526.6z M2618-2881.6c-41.1-24.6-67.7-2.1-39,32.8c18.5,22.6,30.8,24.6,47.2,8.2C2642.6-2856.9,2640.6-2867.2,2618-2881.6z M6781.4-3786.9c-36.9-24.6-51.3-22.6-63.6,8.2c-8.2,20.5,4.1,26.7,41.1,18.5C6795.8-3766.4,6801.9-3774.6,6781.4-3786.9z"/><path d="M2433.2,1862.9c0-26.7,59.5-71.9,76-55.4c6.2,6.2,2,12.3-10.3,12.3c-14.4,0-24.6,14.4-24.6,30.8s-8.2,30.8-20.5,30.8C2443.5,1881.3,2433.2,1873.1,2433.2,1862.9z"/><path d="M6140.9,1807.4c-6.2-18.5-4.1-45.2,4.1-61.6c12.4-22.6,22.6-20.5,51.3,12.3c30.8,36.9,30.8,41.1-4.1,61.6C6161.4,1834.1,6151.1,1832.1,6140.9,1807.4z"/><path d="M1928.2,1762.3c-22.6-20.5-53.4-32.8-67.7-28.8c-20.5,6.2-24.6-2-18.5-32.8c6.2-24.6,2-47.2-12.3-51.3c-12.3-4.1-14.4-16.4-6.2-26.7c10.3-10.3,26.7-2.1,37,16.4c10.3,20.5,30.8,30.8,45.2,24.6c22.6-8.2,90.3,106.8,71.9,125.2C1971.3,1795.1,1950.8,1782.8,1928.2,1762.3z"/><path d="M2158.1,1745.8c-6.2-18.5-8.2-41.1,0-51.3c6.2-10.3-4.1-18.5-22.6-18.5c-18.5,0-39-18.5-45.2-41.1c-6.2-22.6-18.5-34.9-28.7-28.7c-10.3,6.2-18.5,0-18.5-12.3s-8.2-16.4-20.5-10.3c-10.3,6.2-20.5-2.1-20.5-18.5c0-16.4,10.3-37,20.5-43.1c26.7-16.4,26.7-112.9-2.1-112.9c-10.3,0-14.4-8.2-8.2-20.5c6.2-10.3-6.2-20.5-28.7-20.5c-24.6,0-43.1-14.4-43.1-30.8c0-16.4-12.3-30.8-28.7-30.8c-16.4,0-37-10.3-43.1-20.5c-8.2-14.4,6.2-18.5,45.2-10.3c30.8,6.2,45.2,4.1,28.7-2.1c-14.4-8.2-45.2-30.8-65.7-51.3c-53.4-53.4,2.1-51.3,63.6,2.1c55.4,47.2,100.6,55.4,53.4,10.3c-34.9-34.9-61.6-110.9-47.2-127.3c6.2-4.1,28.8,0,53.4,12.3c39,22.6,41.1,16.4,37-94.4c-2.1-78-16.4-131.4-39-156c-41.1-47.2-61.6-117-32.8-117c12.3,0,34.9-16.4,49.3-34.9c26.7-34.9,26.7-34.9,28.7,4.1c0,30.8,4.1,34.9,18.5,12.3c12.3-20.5,45.2-24.6,117-14.4c69.8,8.2,86.2,6.2,55.4-6.2c-24.6-12.3-53.4-34.9-63.6-55.4c-34.9-61.6,18.5-174.5,71.9-158.1c14.4,6.2,18.5-6.2,12.3-32.9c-6.2-24.6-20.5-43.1-30.8-43.1c-12.3,0-16.4-14.4-8.2-30.8c6.2-16.4,2.1-30.8-8.2-30.8c-8.2,0-24.6-30.8-32.8-65.7c-8.2-36.9-18.5-55.4-22.6-41.1c-6.2,12.3-41.1,24.6-78,24.6s-73.9,12.3-78,26.7c-6.2,14.4-12.3,10.3-12.3-10.3c-2.1-20.5-24.6-51.3-53.4-69.8c-28.7-18.5-51.3-43.1-51.3-53.4c0-12.3,12.3-10.3,30.8,4.1c41.1,32.8,71.9,8.2,71.9-59.5c0-73.9-43.1-108.8-160.1-135.5c-104.7-22.6-119.1-43.1-76-100.6c24.6-32.8,36.9-34.9,55.4-16.4c39,39,78,28.8,78-18.5c0-32.9,8.2-39,43.1-28.8c30.8,10.3,45.2,4.1,53.4-28.8c12.3-49.3,28.7-51.3,125.2-24.6l65.7,20.5l-61.6-61.6c-49.3-51.3-67.7-57.5-100.6-39c-51.3,26.7-145.8,26.7-145.8,0c0-10.3-8.2-20.5-18.5-20.5s-57.5-37-106.8-82.1s-106.7-82.1-125.2-82.1c-45.2,0-47.2-14.4-6.2-53.4c26.7-28.8,32.8-28.8,43.1,0c18.5,47.2,121.1,61.6,195,24.6c82.1-41.1,73.9-43.1,110.9,30.8c34.9,67.8,53.4,67.8,193,4.1c53.4-24.6,71.9-24.6,84.2-6.2c8.2,14.4,32.8,18.5,59.5,10.3c26.7-8.2,43.1-4.1,43.1,10.3s12.3,16.4,39,2.1c20.5-12.3,43.1-14.4,51.3-8.2c6.2,6.2,12.3,2.1,12.3-12.3c0-14.4,18.5-18.5,49.3-10.3c26.7,6.2,67.8,2.1,92.4-10.3c57.5-32.9,268.9,47.2,268.9,100.6c0,26.7-10.3,34.9-41.1,26.7c-24.6-6.2-41.1,0-41.1,14.4s-14.4,20.5-30.8,14.4c-16.4-8.2-34.9-2.1-43.1,12.3s-8.2,18.5,2.1,10.3c26.7-24.6,96.5,24.6,84.2,57.5c-10.3,24.6-2.1,28.8,34.9,16.4c24.6-6.2,39-6.2,32.9,0c-8.2,8.2,8.2,37,34.9,63.6c57.5,57.5,84.2,147.8,55.4,193c-10.3,18.5-51.3,43.1-90.3,57.5c-57.5,18.5-73.9,18.5-94.4-8.2c-20.5-26.7-30.8-28.7-57.5-6.2c-30.8,24.6-30.8,30.8,10.3,61.6c41.1,30.8,43.1,41.1,20.5,84.2c-14.4,26.7-28.7,90.3-30.8,141.7c-4.1,108.8-55.4,217.6-110.9,236.1c-45.2,14.4-63.6,67.7-63.6,188.9c0,92.4-61.6,217.6-119.1,244.3c-18.5,8.2-55.4,12.3-80.1,10.3c-22.6-2.1-49.3,4.1-55.4,14.4c-14.4,24.6,84.2,51.3,115,32.9c16.4-10.3,18.5-2.1,8.2,22.6c-10.3,26.7,4.1,57.5,45.2,100.6c76,82.1,151.9,217.6,139.6,248.4c-12.3,37-229.9,67.7-320.3,47.2c-14.4-4.1-30.8,6.2-34.9,20.5c-6.2,14.4,8.2,24.6,34.9,24.6c24.6,0,39,8.2,30.8,20.5c-6.2,10.3,24.6,43.1,69.8,71.9c43.1,30.8,84.2,71.9,90.3,94.4c10.3,34.9,0,39-98.5,39c-61.6,0-117,10.3-123.2,20.5C2199.2,1789,2172.5,1782.8,2158.1,1745.8z"/><path d="M6167.6,1692.5c-55.4-18.5-92.4-88.3-59.5-108.8c26.7-16.4,119,30.8,133.4,67.7C6257.9,1698.6,6229.2,1715,6167.6,1692.5z"/><path d="M5607.1,1370.1c-22.6-41.1-26.7-76-14.4-121.1c10.3-34.9,14.4-67.8,6.2-73.9c-6.2-6.2-6.2-12.3,0-12.3c6.2,0,30.8,32.9,55.4,71.9c22.6,39,30.8,71.9,20.5,71.9c-12.3,0-16.4,14.4-10.3,30.8c6.2,16.4,18.5,45.2,24.6,61.6C5711.8,1456.4,5637.9,1431.7,5607.1,1370.1z"/><path d="M5362.8,1093c-8.2-20.5-14.4-65.7-12.3-100.6c2-63.6,2-63.6,20.5,14.4C5391.5,1095,5385.4,1154.6,5362.8,1093z"/><path d="M1893.3,994.4c-20.5-45.2-32.8-86.2-28.8-92.4c16.4-16.4,92.4,131.4,78,154C1934.3,1068.4,1913.8,1041.7,1893.3,994.4z"/><path d="M1406.7,898c0-26.7-16.4-43.1-45.2-47.2c-45.2-8.2-45.2-10.3,8.2-36.9c61.6-28.7,57.5-61.6-6.2-61.6c-22.6,0-36.9-8.2-30.8-18.5c6.2-8.2-16.4-16.4-49.3-14.4c-34.9,2.1-61.6,14.4-61.6,28.7c0,14.4-24.6,24.6-59.5,24.6c-51.3,0-57.5-6.2-47.2-51.3c4.1-28.7,18.5-51.3,28.8-51.3c10.3,0,12.3-8.2,6.2-20.5c-6.2-10.3-30.8-20.5-53.4-20.5c-20.5,0-39-8.2-39-20.5c0-10.3-14.4-20.5-32.9-20.5c-16.4,0-24.6-8.2-18.5-20.5c6.2-10.3,28.7-20.5,49.3-20.5c20.5,0,43.1-18.5,49.3-41.1c6.2-26.7,28.8-41.1,57.5-41.1c43.1,0,39-26.7-4.1-32.9c-10.3-2.1-26.7-4.1-39-6.2c-10.3,0-20.5-16.4-20.5-32.8c0-18.5-14.4-36.9-32.9-45.2c-22.6-8.2-24.6-16.4-8.2-26.7c16.4-10.3,4.1-20.5-28.7-28.7c-28.7-6.2-53.4-22.6-53.4-34.9s-18.5-16.4-43.1-8.2c-32.9,10.3-41.1,6.2-34.9-12.3c6.2-16.4,26.7-26.7,45.2-26.7c57.5,6.2,34.9-30.8-22.6-37c-76-8.2-73.9-45.2,4.1-55.4c53.4-6.2,57.5-8.2,20.5-22.6c-36.9-16.4-36.9-18.5,10.3-20.5c49.3-2,49.3-2,12.3-30.8c-30.8-22.6-32.8-30.8-10.3-32.8c16.4,0,69.8-4.1,117-6.2c53.4-4.1,94.4,4.1,98.5,18.5c6.2,12.3,43.1,24.6,86.2,24.6c41.1,2,78,10.3,82.1,22.6c2.1,10.3,49.3,14.4,102.6,10.3c94.4-10.3,96.5-8.2,151.9,80.1c45.2,71.9,57.5,119.1,61.6,232c6.2,149.9,12.3,158.1,135.5,213.5c45.2,22.6,65.7,104.7,22.6,104.7c-10.3,0-14.4,10.3-8.2,20.5c8.2,12.3,2.1,34.9-10.3,51.3s-18.5,36.9-12.3,47.2c24.6,41.1-47.2,69.8-149.9,57.5c-76-8.2-102.6-4.1-98.5,14.4c2.1,14.4-24.6,26.7-61.6,30.8C1419,939,1406.7,932.9,1406.7,898z M1170.6,300.5c6.2-10.3-2.1-20.5-18.5-20.5c-18.5,0-32.9,10.3-32.9,20.5c0,12.3,8.2,20.5,18.5,20.5C1150.1,321.1,1164.5,312.9,1170.6,300.5z"/><path d="M1971.3,567.4c-20.5-22.6-26.7-41.1-16.4-41.1c26.7,0,78,59.5,63.6,71.9C2012.3,604.4,1991.8,590,1971.3,567.4z"/><path d="M1942.5,308.8c0-22.6,6.2-28.7,12.3-12.3c6.2,14.4,4.1,32.8-2.1,39C1946.6,343.7,1940.5,331.3,1942.5,308.8z"/><path d="M3213.3-393.4c0-10.3,14.4-26.7,32.9-32.9c20.5-8.2,28.7-2.1,24.6,12.3C3260.6-383.1,3213.3-366.7,3213.3-393.4z"/><path d="M5943.8-2799.4c0-10.3,10.3-20.5,22.6-20.5c10.3,0,14.4,10.3,8.2,20.5c-6.2,12.3-16.4,20.5-22.6,20.5C5947.9-2778.9,5943.8-2787.1,5943.8-2799.4z"/><path d="M6025.9-2848.7c0-4.1,14.4-14.4,32.8-20.5c16.4-6.2,24.6-4.1,18.5,8.2C6064.9-2840.5,6025.9-2832.3,6025.9-2848.7z"/><path d="M4198.8-2891.8c0-16.4-14.4-30.8-30.8-30.8c-59.5,0-112.9-78-106.8-154c2.1-39,10.3-71.9,18.5-71.9c8.2,0,10.3-12.3,4.1-28.8c-6.2-16.4,10.3-49.3,34.9-71.8l47.2-43.1l28.7,53.4c32.9,61.6,51.3,377.8,22.6,377.8C4207-2861,4198.8-2875.4,4198.8-2891.8z"/><path d="M7380.9-3300.4c0-4.1,16.4-20.5,36.9-34.9c30.8-26.7,32.9-24.6,6.2,8.2C7397.3-3294.2,7380.9-3283.9,7380.9-3300.4z"/><path d="M4106.4-3396.9c-49.3-37-94.4-55.4-117-47.2c-45.2,14.4-47.2-8.2-4.1-92.4c18.5-39,26.7-86.2,20.5-115c-8.2-28.8-4.1-51.3,6.2-51.3c12.3,0,10.3-37-6.2-92.4c-24.6-78-24.6-94.4,0-115c16.4-12.3,28.7-37,28.7-51.3c0-49.3,61.6-30.8,82.1,24.6c16.4,43.1,30.8,51.3,71.9,41.1c63.6-16.4,69.8-4.1,73.9,164.2c4.1,78,14.4,156,24.6,174.5c14.4,22.6,10.3,47.2-12.3,80.1c-16.4,24.6-26.7,57.5-20.5,71.9c4.1,16.4-8.2,37-28.8,47.2C4196.7-3341.4,4170-3349.6,4106.4-3396.9z"/><path d="M7309-3374.3c6.1-10.3,20.5-20.5,32.8-20.5c10.3,0,18.5,10.3,18.5,20.5c0,12.3-14.4,20.5-32.8,20.5C7311.1-3353.7,7302.9-3362,7309-3374.3z"/><path d="M7233-3409.2c14.4-6.2,32.9-4.1,39,2.1c8.2,6.2-4.1,12.3-26.7,10.3C7222.8-3396.9,7216.6-3403,7233-3409.2z"/><path d="M2997.8-3620.6c-6.2-10.3,4.1-20.5,24.6-20.5c22.6,0,49.3-10.3,63.6-24.6c14.4-14.4,24.6-18.5,24.6-12.3c0,20.5-61.6,78-82.1,78C3018.3-3600.1,3003.9-3608.3,2997.8-3620.6z"/><path d="M2769.9-3649.4c-76-32.8-108.8-73.9-57.5-73.9c18.5,0,51.3-20.5,71.9-45.2c36.9-41.1,41.1-43.1,80.1-6.2c49.3,45.2,53.4,92.4,8.2,92.4c-20.5,0-28.7,12.3-20.5,30.8C2866.4-3614.5,2852-3614.5,2769.9-3649.4z"/><path d="M2628.2-3786.9c-8.2-12.3-10.3-26.7-4.1-32.9c14.4-14.4,55.4,12.3,55.4,37C2679.6-3758.2,2644.7-3758.2,2628.2-3786.9z"/><path d="M2679.6-3846.5c0-10.3,8.2-20.5,18.5-20.5c12.3,0,26.7,10.3,32.9,20.5c6.2,12.3-2.1,20.5-18.5,20.5C2693.9-3825.9,2679.6-3834.1,2679.6-3846.5z"/><path d="M7514.3-3887.5c6.1-10.3,26.7-20.5,43.1-20.5c16.4,0,28.8,10.3,28.8,20.5c0,12.3-18.5,20.5-43.1,20.5C7520.5-3867,7508.1-3875.2,7514.3-3887.5z"/><path d="M6678.7-3951.2c-16.4-41.1,4.1-67.8,55.4-76c36.9-4.1,36.9-2.1,8.2,20.5c-18.5,14.4-37,41.1-43.1,55.4C6691.1-3924.5,6689-3924.5,6678.7-3951.2z"/><path d="M9797.2-4053.8c-88.3-69.8-143.7-92.4-205.3-82.1c-10.3,2.1-12.3-16.4-4.1-39c10.3-30.8,4.1-41.1-24.7-41.1c-55.4,0-98.5-76-65.7-115c45.1-53.4,141.7-24.6,238.1,69.8c49.3,47.2,100.6,86.2,115,86.2c12.3,0,8.2,10.3-10.3,22.6c-49.2,26.7-47.2,45.2,16.4,119.1C9924.5-3953.2,9918.3-3955.3,9797.2-4053.8z"/><path d="M5518.8-4144.1c-24.6-16.4-57.5-26.7-71.9-20.5c-16.4,6.2-53.4,0-82.1-16.4c-71.9-37-260.7-30.8-283.3,8.2c-16.4,24.6-24.6,22.6-49.3-12.3c-22.6-32.8-34.9-34.9-59.5-14.4c-22.6,20.5-34.9,18.5-53.4-4.1c-45.2-53.4-18.5-123.2,49.3-137.5c34.9-6.2,104.7-37,158.1-65.7c53.4-30.8,112.9-55.4,135.5-55.4c20.5,0,55.4-18.5,76-41.1c20.5-22.6,63.6-41.1,94.4-41.1c78,0,106.7,55.4,75.9,139.6c-20.5,55.4-18.5,80.1,20.5,172.5c24.7,57.5,41.1,108.8,39,112.9C5564-4117.5,5541.4-4127.7,5518.8-4144.1z"/><path d="M784.7-4456.2c-24.6-22.6-16.4-67.7,12.3-67.7c14.4,0,26.7,18.5,26.7,41.1C823.7-4441.8,809.3-4431.6,784.7-4456.2z"/><path d="M7483.5-4643v-61.6l117,8.2c90.3,6.2,125.2,2.1,141.7-22.6c22.6-28.8,32.8-28.8,102.6-2.1c45.1,16.4,119.1,41.1,168.3,53.4c47.2,12.3,86.2,34.9,86.2,49.3c0,18.5-14.4,24.6-41.1,18.5c-22.6-6.2-41.1-18.5-41.1-28.7s-8.2-18.5-20.5-18.5c-10.3,0-20.5,14.4-20.5,30.8c0,16.4-12.3,24.6-28.8,18.5c-88.3-32.9-396.2-39-435.2-6.2C7489.7-4585.5,7483.5-4591.7,7483.5-4643z"/></g></g>
</svg>