<?xml version="1.0" standalone="no"?>
<!DOCTYPE svg PUBLIC "-//W3C//DTD SVG 20010904//EN"
 "http://www.w3.org/TR/2001/REC-SVG-20010904/DTD/svg10.dtd">
<svg version="1.0" xmlns="http://www.w3.org/2000/svg"
 width="1280.000000pt" height="974.000000pt" viewBox="0 0 1280.000000 974.000000"
 preserveAspectRatio="xMidYMid meet">
<metadata>
Created by potrace 1.15, written by Peter Selinger 2001-2017
</metadata>
<g transform="translate(0.000000,974.000000) scale(0.100000,-0.100000)"
fill="#000000" stroke="none">
<path d="M10430 9546 l-115 -51 57 -3 c32 -2 66 2 77 8 37 19 81 12 118 -20
38 -34 59 -39 47 -12 -4 9 -8 30 -8 46 -1 19 -8 31 -20 36 -10 3 -23 15 -30
26 -11 20 -14 19 -126 -30z"/>
<path d="M9955 9444 c-48 -27 -71 -34 -115 -34 l-55 0 1 -60 c0 -39 6 -66 16
-77 8 -10 21 -28 27 -40 7 -14 21 -23 35 -23 40 0 50 -23 21 -50 -35 -33 -43
-78 -15 -97 l21 -15 -22 -24 c-28 -30 -77 -32 -110 -5 -21 17 -22 23 -12 40
10 16 9 24 -7 43 l-20 23 -20 -24 c-15 -17 -20 -38 -20 -80 0 -81 -17 -101
-84 -101 l-54 0 -11 -44 c-6 -25 -11 -52 -11 -61 0 -10 -11 -30 -24 -46 -14
-16 -23 -38 -21 -49 5 -25 -12 -26 -38 -2 -14 12 -21 14 -24 5 -3 -7 -13 -23
-24 -35 -19 -23 -19 -23 -17 64 1 48 0 89 -2 91 -3 2 -19 7 -37 10 -24 5 -33
2 -38 -11 -3 -9 -1 -18 4 -20 17 -6 13 -62 -4 -62 -8 0 -15 7 -15 15 0 8 -4
15 -10 15 -18 0 -11 -34 15 -72 14 -20 25 -39 25 -42 0 -16 -61 -4 -72 13 -11
19 -13 18 -30 -10 -10 -16 -22 -29 -28 -29 -5 0 -19 -19 -31 -42 -12 -24 -32
-55 -45 -69 l-24 -26 20 -18 c28 -26 25 -39 -17 -74 -35 -29 -36 -31 -20 -49
12 -13 17 -36 17 -80 l0 -61 -42 -25 c-24 -13 -54 -27 -68 -31 -14 -4 -32 -14
-41 -21 -13 -12 -23 -9 -70 21 -30 19 -66 35 -81 35 -15 0 -39 5 -53 12 -22
10 -25 17 -25 59 0 46 2 50 35 63 19 8 35 20 35 25 0 6 11 11 23 11 39 0 39
11 -1 46 -22 20 -48 33 -65 34 -20 0 -31 7 -39 26 -9 19 -17 24 -32 19 -12 -3
-40 -9 -63 -12 -55 -7 -62 -28 -23 -68 22 -23 30 -40 30 -68 0 -20 5 -37 10
-37 6 0 10 -7 10 -15 0 -8 4 -15 10 -15 6 0 6 -9 0 -26 -6 -14 -10 -45 -10
-69 l0 -44 47 -3 c49 -3 51 -5 97 -92 15 -27 14 -30 -10 -59 l-25 -30 37 -38
c21 -21 36 -40 33 -42 -21 -19 -52 -27 -64 -17 -10 8 -19 8 -34 1 -23 -13 -71
-15 -71 -3 1 4 7 18 15 32 16 30 2 58 -21 39 -12 -10 -42 -9 -83 2 -10 3 -23
-16 -40 -59 -19 -45 -35 -68 -58 -82 -24 -14 -33 -27 -33 -46 0 -29 -14 -60
-42 -91 -11 -12 -17 -26 -14 -32 4 -6 34 -27 66 -47 33 -20 60 -42 60 -49 0
-6 11 -22 24 -34 13 -12 29 -42 36 -65 l12 -43 36 8 c65 15 81 11 102 -23 25
-41 25 -51 1 -38 -11 5 -36 10 -56 10 -21 0 -58 11 -86 26 -41 23 -51 25 -64
14 -12 -10 -19 -10 -27 -2 -7 7 -17 8 -29 1 -22 -11 -59 -4 -111 22 -21 11
-46 19 -58 19 -11 0 -20 5 -20 10 0 6 -22 10 -49 10 -27 0 -61 4 -75 10 -22 8
-26 7 -26 -9 0 -10 -7 -24 -15 -31 -22 -18 -19 -24 28 -55 30 -20 55 -28 91
-29 58 -2 80 -24 91 -92 3 -25 5 -47 3 -47 -2 -1 -18 -12 -36 -25 -25 -18 -36
-20 -51 -12 -11 5 -37 10 -57 10 -32 0 -46 8 -86 47 -26 26 -48 43 -48 38 0
-6 -4 -17 -10 -25 -8 -12 -11 -12 -27 2 -10 8 -31 20 -48 25 -19 6 -31 17 -33
31 -2 12 -8 22 -13 22 -5 0 -9 9 -9 19 0 11 -16 52 -37 91 -30 60 -34 76 -25
91 15 23 15 56 2 64 -5 3 -10 14 -10 24 0 10 -10 27 -23 39 -19 18 -35 22 -84
22 -40 0 -65 5 -72 14 -10 11 -8 15 6 19 14 4 13 5 -5 6 -12 0 -25 8 -28 16
-4 8 -17 15 -29 15 -31 0 -69 52 -61 84 4 16 1 26 -9 30 -28 11 -15 26 23 26
29 0 45 -7 67 -30 30 -31 51 -38 57 -19 3 8 18 4 46 -10 22 -11 52 -21 65 -21
13 0 32 -7 43 -15 10 -8 40 -15 66 -15 26 0 59 -5 74 -10 22 -9 31 -7 49 10
27 25 42 25 50 0 6 -17 15 -20 74 -20 59 0 70 3 91 25 13 14 31 25 40 25 24 0
60 29 70 56 5 13 16 24 25 24 9 0 15 9 15 25 0 15 6 25 14 25 21 0 32 82 16
120 -7 17 -10 33 -7 36 6 7 -41 54 -54 54 -4 0 -9 12 -11 28 -2 22 -9 28 -33
30 -16 2 -33 10 -38 17 -10 19 -70 29 -94 16 -17 -8 -25 -5 -49 20 -20 21 -35
28 -50 25 -14 -4 -29 3 -49 24 -21 22 -38 30 -63 30 -22 0 -53 12 -84 31 -29
19 -61 31 -76 30 -159 -11 -245 -11 -257 -1 -10 8 -19 8 -34 1 -27 -15 -28
-14 -35 11 -4 18 -8 20 -17 11 -9 -9 -23 -1 -59 38 l-47 50 -11 -26 c-15 -32
-31 -32 -59 3 l-22 27 -1 -37 c0 -34 -3 -38 -25 -38 -14 0 -34 5 -45 12 -14 9
-25 9 -42 1 -13 -5 -40 -18 -61 -26 -42 -19 -77 -68 -77 -110 0 -15 -12 -50
-27 -77 l-27 -50 37 -38 c20 -21 37 -43 37 -50 0 -7 4 -12 10 -12 5 0 25 -14
45 -31 30 -27 35 -37 35 -74 0 -24 -4 -47 -10 -50 -5 -3 -10 -34 -10 -67 0
-70 34 -143 75 -158 47 -18 107 -175 75 -195 -7 -4 -6 -13 1 -27 8 -15 8 -27
-2 -44 -10 -19 -10 -27 -1 -36 7 -7 12 -29 12 -49 0 -38 13 -58 25 -39 10 16
19 12 33 -18 11 -23 10 -29 -4 -39 -16 -12 -16 -13 -1 -19 10 -3 17 -17 17
-30 0 -18 5 -24 23 -24 14 0 26 -10 35 -27 24 -54 10 -103 -30 -103 -27 0 -22
-18 10 -34 16 -8 34 -22 41 -30 7 -9 45 -26 83 -38 114 -37 153 -113 78 -156
-28 -16 -50 -49 -50 -76 0 -7 -11 -23 -25 -36 -14 -13 -25 -34 -25 -46 0 -13
-5 -26 -10 -29 -8 -5 -7 -11 1 -21 13 -16 -4 -44 -27 -44 -7 0 -22 -19 -33
-42 -12 -24 -36 -63 -56 -88 -19 -25 -44 -57 -55 -72 -11 -14 -23 -41 -27 -59
-7 -35 -7 -35 81 -13 l29 7 -7 -47 c-6 -39 -5 -46 9 -46 9 0 28 -9 41 -19 20
-16 35 -18 78 -14 68 7 116 -12 116 -44 0 -22 -3 -23 -90 -23 -72 0 -92 -3
-97 -15 -3 -9 -15 -15 -27 -13 -18 3 -21 -3 -24 -34 -4 -42 -16 -49 -32 -18
-18 34 -30 22 -30 -29 0 -31 5 -53 15 -61 23 -19 18 -51 -12 -82 -24 -25 -25
-30 -14 -52 10 -17 10 -29 2 -43 -5 -11 -8 -23 -4 -27 3 -3 9 -23 12 -43 5
-28 13 -41 34 -51 32 -16 46 -57 25 -78 -13 -13 -18 -12 -41 6 -16 13 -28 17
-32 10 -8 -14 13 -40 31 -40 12 0 12 -5 -1 -29 -8 -16 -20 -31 -27 -34 -7 -3
4 -6 25 -6 l37 -1 0 -51 c0 -43 -3 -52 -20 -56 -16 -4 -18 -8 -9 -19 6 -8 19
-14 29 -14 16 0 30 -31 45 -105 9 -40 23 -55 51 -55 13 0 24 -4 24 -10 0 -6
28 -10 65 -10 52 0 68 -4 84 -21 21 -23 61 -19 61 7 0 27 48 15 83 -21 19 -19
41 -35 51 -35 19 0 21 -22 5 -48 -9 -15 -7 -26 13 -58 29 -46 50 -103 42 -115
-3 -5 2 -9 10 -9 10 0 16 -9 16 -24 0 -21 7 -26 53 -36 77 -19 87 -26 87 -65
l0 -34 58 -3 c49 -3 57 -6 57 -23 0 -13 8 -21 22 -23 13 -2 30 -13 38 -25 14
-20 13 -24 -18 -55 -17 -18 -52 -47 -76 -64 -38 -25 -48 -28 -68 -19 -13 6
-26 11 -29 11 -11 0 4 -96 24 -150 20 -56 59 -91 73 -68 4 6 35 12 69 14 39 1
68 8 79 18 21 19 52 21 68 5 9 -9 19 -9 42 1 40 16 54 10 91 -41 25 -35 30
-51 30 -101 l0 -58 54 0 c35 0 58 5 66 15 20 24 35 18 49 -20 9 -26 18 -35 35
-35 19 0 25 -8 36 -56 8 -31 18 -58 24 -60 6 -2 38 -5 71 -7 33 -2 68 -8 78
-12 14 -6 28 2 56 29 41 40 80 47 88 17 3 -11 23 -31 44 -46 40 -26 71 -23 82
7 3 9 12 6 30 -10 22 -21 28 -22 48 -11 17 9 24 9 27 0 5 -14 32 -15 32 -1 0
6 18 10 40 10 22 0 40 -4 40 -10 0 -5 15 -10 33 -10 17 -1 43 -7 57 -15 33
-19 66 -19 74 0 3 8 15 15 26 15 17 0 20 -6 20 -44 0 -44 -10 -59 -53 -81 -31
-16 -33 -35 -3 -35 39 0 43 -26 10 -61 -15 -16 -23 -29 -17 -29 6 0 22 -17 37
-38 29 -42 35 -104 15 -160 -10 -30 -13 -31 -77 -34 l-67 -3 -15 -42 c-11 -34
-21 -45 -47 -54 -30 -10 -33 -14 -33 -50 0 -31 4 -39 18 -39 10 0 23 5 30 12
9 9 12 7 12 -9 0 -35 15 -34 50 2 23 24 43 35 62 35 26 0 28 -3 28 -38 0 -36
-3 -40 -49 -62 -58 -27 -67 -41 -40 -66 10 -9 19 -20 19 -24 0 -15 -54 -21
-81 -10 -24 10 -32 9 -53 -7 -31 -25 -18 -43 30 -43 23 0 38 -8 52 -25 11 -13
32 -29 47 -35 27 -10 27 -11 9 -25 -10 -8 -25 -15 -31 -15 -16 0 -17 -22 -3
-36 8 -8 6 -15 -5 -24 -13 -11 -19 -9 -39 9 -26 24 -36 19 -36 -19 0 -14 -5
-31 -11 -37 -8 -8 -8 -13 0 -17 6 -4 11 -20 11 -37 0 -24 -4 -29 -25 -29 -26
0 -49 -37 -43 -68 4 -22 72 -54 119 -56 30 -2 46 -9 60 -27 16 -21 20 -23 40
-11 15 10 24 11 32 3 6 -6 24 -11 39 -11 17 0 28 -5 28 -13 0 -16 42 -37 74
-37 13 0 31 -9 41 -20 10 -11 29 -20 42 -20 16 0 33 -13 55 -45 30 -42 32 -44
45 -25 9 13 26 20 47 20 32 0 66 24 66 48 0 22 20 22 76 -3 36 -16 75 -25 108
-25 29 0 57 -5 63 -11 11 -11 99 -8 171 7 19 4 43 2 55 -5 12 -6 54 -12 92
-13 62 -3 71 -6 80 -26 10 -23 58 -32 70 -12 3 6 19 17 35 25 22 12 35 12 61
3 29 -10 34 -9 50 10 20 25 69 30 69 7 0 -19 19 -19 26 0 8 20 63 19 92 -1 12
-8 22 -26 22 -38 0 -22 4 -24 58 -24 111 0 185 -13 212 -37 58 -53 121 -60
167 -21 25 22 26 27 15 45 -11 20 -10 21 23 21 29 0 35 4 35 21 0 11 5 29 10
39 9 17 4 23 -40 45 -69 35 -178 107 -217 143 -28 25 -33 37 -33 75 0 31 -6
49 -20 62 -11 10 -20 28 -20 41 0 32 -21 74 -37 74 -7 0 -13 7 -13 15 0 8 -4
15 -9 15 -4 0 -25 11 -46 25 -34 24 -39 25 -55 10 -16 -15 -20 -14 -54 6 -20
11 -36 28 -36 36 0 24 22 107 31 118 5 5 9 21 9 35 0 14 5 31 11 37 8 8 8 13
0 17 -16 10 -13 88 4 110 8 11 15 31 15 44 0 19 5 23 23 20 26 -3 92 48 121
94 10 15 23 25 30 22 19 -7 27 21 15 56 -9 24 -17 30 -39 30 -77 0 -102 39
-54 87 14 14 24 26 22 28 -2 1 -32 21 -67 45 -35 24 -82 59 -103 78 -29 27
-42 32 -50 24 -7 -7 -22 -12 -34 -12 -14 0 -25 -8 -29 -20 -8 -25 -21 -25 -62
0 -28 17 -33 25 -33 59 0 34 -4 40 -30 51 -24 10 -37 10 -56 1 -14 -6 -27 -11
-29 -11 -3 0 -5 26 -5 58 0 41 6 64 20 82 25 32 25 50 1 50 -10 0 -29 9 -42
19 -19 16 -22 22 -11 32 19 20 14 78 -8 106 -11 14 -20 34 -20 44 0 11 9 28
20 39 22 22 27 66 9 72 -14 5 30 78 47 78 12 0 58 -40 65 -56 5 -10 70 -58 72
-52 1 1 10 13 20 25 18 21 18 23 -5 82 -15 38 -31 64 -45 70 -13 6 -23 14 -23
19 0 11 46 32 70 32 18 0 20 7 20 70 0 68 1 70 25 70 14 0 33 10 43 21 9 12
29 36 43 53 36 42 49 70 49 100 0 32 25 34 56 5 30 -28 56 -13 89 50 13 27 31
51 40 55 28 10 58 7 75 -9 16 -14 18 -13 30 15 10 25 18 30 46 30 19 0 49 -11
70 -25 23 -15 51 -25 73 -25 21 0 41 -4 47 -9 12 -12 94 -19 94 -9 0 5 -6 17
-12 28 -23 36 1 42 88 24 43 -9 87 -20 96 -25 20 -11 38 15 38 55 0 13 6 26
13 29 9 3 9 9 -1 26 -12 20 -10 21 33 21 42 0 45 1 35 20 -9 16 -6 22 20 35
22 11 35 13 49 5 33 -17 61 -12 61 10 0 13 7 20 19 20 15 0 19 7 17 32 -1 26
5 36 33 55 46 31 67 29 87 -8 15 -30 18 -31 60 -25 24 3 64 9 88 12 43 6 45 8
48 43 3 33 7 37 56 57 68 27 142 96 142 132 0 34 -33 88 -58 96 -12 4 -34 -1
-54 -14 -26 -15 -50 -20 -111 -20 -99 0 -142 17 -150 59 -9 42 -39 41 -88 -4
-43 -39 -63 -43 -98 -19 -35 25 -81 104 -81 139 0 21 -9 40 -25 55 -14 13 -25
29 -25 35 0 6 -11 22 -25 35 -30 28 -33 84 -10 149 l14 42 -34 20 c-33 20 -35
24 -35 72 l0 51 -39 -80 c-22 -43 -46 -87 -54 -96 -12 -15 -206 -95 -210 -86
-1 1 -17 22 -35 46 -28 35 -33 49 -30 85 3 41 4 42 56 61 51 18 56 18 82 3 38
-23 40 -22 40 18 0 20 12 58 26 86 23 47 24 52 10 74 -9 13 -25 26 -36 30 -11
3 -20 13 -20 22 0 14 -2 14 -18 0 -10 -10 -32 -17 -48 -17 -17 0 -59 -16 -94
-35 -89 -48 -106 -46 -131 11 -11 26 -32 66 -48 89 -29 43 -27 65 6 65 17 0
17 59 1 97 -7 15 -23 45 -37 66 -23 36 -24 39 -8 72 9 18 25 36 36 40 25 7 25
12 6 45 -8 14 -14 49 -15 78 0 45 -3 52 -20 52 -14 0 -20 7 -20 23 0 23 -50
109 -82 141 -10 10 -18 22 -18 27 0 5 -9 8 -20 6 -16 -2 -26 10 -46 58 -42 97
-53 128 -64 173 -9 34 -21 50 -56 75 -38 27 -44 36 -44 67 0 27 -7 43 -30 65
-17 16 -30 39 -30 52 0 30 -21 72 -49 97 -12 11 -28 43 -37 73 -10 34 -23 57
-37 65 -12 6 -43 32 -68 57 -38 38 -48 55 -54 94 -3 27 -13 51 -21 54 -8 3
-14 16 -14 28 0 13 -6 30 -13 37 -20 20 -37 54 -37 76 0 10 -14 44 -31 75 -24
45 -36 57 -55 57 -20 0 -24 5 -24 30 0 25 4 30 23 30 40 0 47 18 47 123 0 83
3 102 17 112 29 21 31 142 3 210 -19 47 -21 59 -10 84 6 16 21 38 32 48 31 27
47 65 37 88 -4 11 -8 37 -8 58 -1 51 -25 104 -50 112 -16 5 -21 13 -19 32 2
17 -4 30 -19 40 -21 14 -23 13 -34 -11 -16 -34 -40 -33 -60 3 -9 16 -30 35
-45 43 -17 7 -30 23 -32 36 -3 18 -10 22 -37 22 -19 0 -37 -4 -40 -10 -10 -16
-65 -12 -65 5 0 8 -10 25 -21 36 -18 18 -20 25 -10 40 17 28 15 29 -46 28 -47
0 -70 -7 -118 -35z"/>
<path d="M10173 9455 c-3 -9 -3 -18 0 -21 9 -9 48 16 42 27 -9 14 -35 11 -42
-6z"/>
<path d="M1928 8829 c13 -24 14 -33 5 -36 -7 -3 -13 -19 -13 -38 0 -40 -23
-63 -45 -45 -8 7 -15 19 -15 26 0 8 -4 14 -10 14 -5 0 -10 13 -10 30 0 19 -7
33 -20 40 -18 10 -20 7 -21 -22 -1 -18 -1 -38 0 -44 1 -7 -16 -19 -36 -27 -34
-14 -35 -16 -12 -16 26 -1 69 -38 69 -59 0 -7 11 -12 25 -12 21 0 25 -5 25
-30 0 -33 -12 -37 -50 -15 -43 25 -56 18 -26 -14 49 -51 8 -95 -43 -47 -15 14
-33 26 -39 26 -7 0 -31 9 -54 21 -25 13 -49 18 -64 15 -38 -10 -28 -26 17 -26
47 0 79 -14 79 -35 0 -8 5 -15 10 -15 14 0 12 -36 -2 -61 -10 -17 -10 -23 0
-26 39 -15 -27 -83 -80 -83 -20 0 -40 -5 -43 -10 -4 -6 -14 -9 -23 -8 -26 5
-27 -31 0 -41 13 -5 36 -23 52 -40 20 -20 39 -31 58 -31 27 0 28 -2 28 -48 0
-41 5 -53 33 -80 18 -18 43 -32 55 -32 16 0 22 -6 22 -22 0 -15 11 -29 29 -39
27 -16 30 -16 45 0 13 12 19 13 24 4 6 -10 15 -10 40 -1 24 9 39 10 61 1 21
-8 32 -8 40 0 9 9 17 8 31 -1 11 -6 28 -12 39 -12 11 0 21 -5 23 -11 2 -6 15
-1 31 11 24 19 32 21 56 10 23 -9 33 -9 49 1 18 11 24 10 39 -3 16 -14 22 -15
54 -2 20 8 41 26 48 40 10 24 12 24 35 9 37 -24 70 -16 74 18 2 15 12 33 23
40 10 6 19 18 19 25 0 7 6 21 12 32 10 16 10 24 0 40 -6 11 -12 29 -12 40 0
13 -7 20 -20 20 -23 0 -29 37 -7 46 8 3 11 17 9 40 -3 24 0 39 9 45 10 6 8 9
-8 9 -18 0 -23 6 -23 28 0 15 6 34 13 41 10 10 8 15 -7 26 -17 13 -20 12 -30
-7 -6 -12 -24 -29 -39 -38 -27 -14 -29 -14 -47 8 l-19 23 -41 -21 c-52 -27
-74 -21 -60 15 6 15 10 32 10 38 -1 18 -29 -35 -30 -54 0 -9 -7 -22 -15 -29
-21 -17 -45 4 -45 40 0 15 7 33 15 40 8 7 15 20 15 30 0 23 -26 45 -35 30 -3
-6 -10 -8 -15 -5 -5 3 -22 -9 -38 -26 -41 -46 -62 -35 -62 31 0 27 -4 50 -8
50 -5 0 -17 -18 -27 -40 -12 -26 -25 -40 -37 -40 -10 0 -18 5 -18 10 0 24 -40
7 -60 -25 -19 -30 -23 -33 -36 -21 -16 17 -19 52 -4 61 6 3 10 26 10 51 0 36
3 44 19 44 24 0 52 31 34 37 -18 6 -16 28 2 43 23 19 19 73 -8 98 -35 33 -49
28 -29 -9z"/>
<path d="M8842 8825 c-18 -39 -15 -73 8 -85 11 -6 20 -16 20 -23 0 -14 61 -47
86 -47 11 0 13 4 6 17 -7 11 -5 27 6 49 22 46 3 90 -41 97 -18 3 -41 8 -53 12
-16 5 -23 0 -32 -20z"/>
<path d="M6811 8787 c-11 -13 -21 -29 -21 -35 0 -7 -11 -18 -25 -24 -22 -10
-25 -18 -25 -61 0 -42 -2 -48 -15 -37 -22 18 -45 69 -46 104 l-1 31 -7 -30
c-4 -16 -23 -59 -42 -95 l-34 -65 -3 49 c-3 42 0 53 18 66 22 16 64 99 56 108
-3 2 -21 -5 -40 -17 -22 -14 -37 -18 -41 -11 -9 14 -22 12 -29 -5 -3 -9 5 -20
22 -29 l27 -14 -30 -11 c-16 -7 -35 -13 -41 -16 -6 -2 -17 2 -23 8 -17 17 -31
-3 -33 -46 -1 -24 -9 -44 -25 -59 -23 -21 -25 -22 -34 -5 -15 26 -29 20 -29
-12 0 -38 -24 -59 -46 -40 -13 10 -17 10 -24 -1 -7 -11 -11 -11 -24 -1 -18 15
-46 8 -46 -11 0 -7 -10 -18 -22 -23 -28 -12 -37 -62 -14 -71 10 -4 16 -18 16
-35 0 -34 -10 -37 -35 -9 -10 11 -24 20 -31 20 -7 0 -16 -9 -19 -20 -7 -24
-23 -26 -31 -5 -4 8 -10 15 -15 15 -12 0 -11 -41 2 -79 14 -38 6 -50 -19 -28
-16 15 -18 14 -31 -14 -10 -24 -16 -27 -27 -18 -8 6 -14 18 -14 25 0 8 -4 14
-10 14 -5 0 -10 -15 -10 -34 0 -30 -3 -35 -27 -38 -23 -2 -28 -7 -25 -27 1
-14 -7 -34 -19 -47 -17 -19 -19 -25 -8 -42 21 -33 -4 -54 -60 -50 l-46 2 3
-32 c4 -36 -15 -102 -29 -102 -5 0 -9 22 -9 48 0 48 0 49 -30 44 -33 -5 -37
-13 -15 -32 17 -14 20 -40 6 -40 -6 0 -13 5 -16 10 -5 8 -11 7 -21 -1 -11 -9
-18 -9 -26 -1 -19 19 -28 14 -28 -13 0 -23 2 -24 21 -15 24 14 49 -2 49 -31 0
-15 -7 -19 -33 -19 -31 0 -57 -14 -57 -32 0 -4 9 -8 20 -8 15 0 20 -7 20 -25
0 -17 -6 -25 -17 -25 -9 0 -29 -12 -45 -27 -24 -23 -31 -25 -52 -15 -28 13
-46 0 -46 -34 0 -14 -8 -24 -22 -27 -18 -5 -19 -8 -8 -21 16 -20 -2 -46 -32
-46 -18 0 -18 -1 -3 -16 12 -13 19 -14 30 -4 13 11 15 8 15 -19 0 -29 -2 -31
-35 -31 -36 0 -43 -8 -23 -28 12 -12 -5 -42 -25 -42 -24 0 -46 -32 -41 -59 7
-34 -18 -60 -40 -42 -11 9 -16 9 -22 0 -4 -6 0 -16 10 -21 24 -14 20 -54 -9
-76 -14 -11 -25 -27 -25 -35 0 -9 -12 -25 -26 -36 -20 -15 -22 -21 -10 -21 21
0 21 -38 0 -61 -13 -14 -20 -16 -40 -7 -13 6 -24 17 -24 23 0 7 -6 18 -13 24
-11 8 -19 5 -37 -14 -13 -14 -32 -25 -42 -25 -10 0 -18 -6 -18 -14 0 -25 -53
-96 -72 -96 -13 0 -18 -8 -18 -29 0 -32 -14 -49 -25 -30 -5 7 -15 3 -30 -11
-13 -12 -28 -19 -33 -16 -15 9 -81 -36 -82 -56 0 -10 -4 -18 -10 -18 -5 0 -10
-7 -10 -15 0 -17 -31 -20 -47 -4 -8 8 -13 8 -17 0 -4 -6 -23 -11 -43 -11 -37
0 -38 -4 -18 -52 6 -15 2 -18 -19 -18 -15 0 -41 7 -58 16 -37 19 -53 8 -39
-29 10 -26 9 -27 -23 -27 -26 0 -40 -7 -55 -27 l-20 -28 -1 29 c0 28 0 29 -20
11 -19 -17 -21 -17 -40 0 -23 20 -53 13 -48 -12 2 -10 13 -22 26 -28 12 -5 22
-17 22 -25 0 -16 -43 -40 -72 -40 -19 0 -24 -15 -8 -25 6 -3 10 -15 10 -26 0
-16 -5 -18 -25 -13 -28 7 -31 -2 -13 -41 7 -16 19 -25 34 -25 12 0 25 -7 28
-16 5 -14 1 -16 -34 -10 -49 8 -52 -4 -14 -59 23 -34 24 -40 10 -53 -12 -12
-18 -13 -30 -3 -11 9 -16 9 -22 0 -4 -7 2 -19 14 -30 28 -22 28 -29 0 -29
l-21 0 23 -25 c25 -27 67 -33 101 -15 34 18 21 -6 -27 -50 -45 -41 -45 -42
-25 -57 28 -19 27 -33 -2 -33 -13 0 -29 -6 -35 -12 -10 -10 -17 -10 -32 0 -17
10 -22 9 -34 -11 -17 -27 -30 -97 -19 -97 5 0 17 14 26 30 14 23 25 30 48 30
27 0 29 -3 29 -39 0 -25 -5 -41 -15 -45 -8 -3 -15 -17 -15 -31 0 -22 -9 -30
-32 -26 -5 0 -8 -21 -8 -48 0 -43 4 -53 31 -75 17 -14 36 -26 42 -26 7 0 19
-4 27 -10 12 -7 11 -12 -5 -30 -14 -16 -16 -23 -7 -32 9 -9 15 -9 24 0 19 19
28 14 28 -13 0 -23 3 -25 50 -25 28 0 64 7 80 15 21 11 29 12 32 3 7 -19 48
15 72 59 16 27 33 42 62 52 22 8 45 24 50 35 11 26 74 36 74 12 0 -20 16 -29
40 -21 14 4 20 15 20 34 0 15 9 36 20 46 21 19 27 69 9 81 -15 9 80 104 104
104 28 0 20 -62 -10 -75 -27 -12 -30 -31 -5 -38 9 -3 29 -14 44 -23 32 -21 50
-11 74 45 27 62 30 66 61 69 25 3 31 9 41 48 17 62 15 117 -5 160 l-18 36 38
32 c32 26 37 37 37 72 0 29 -6 46 -21 60 -22 19 -22 19 -3 142 4 27 2 48 -5
55 -14 14 -15 104 -1 112 6 3 10 39 10 78 0 53 5 80 19 103 22 35 82 66 89 45
3 -9 11 -6 28 10 14 13 43 25 67 29 46 6 45 3 27 85 -17 76 -16 78 17 99 33
23 42 45 50 139 3 39 13 71 29 94 13 20 24 49 24 64 0 24 7 31 37 44 54 23 73
44 73 81 0 27 7 37 42 61 23 15 50 43 60 62 18 33 18 34 -2 68 l-21 36 23 24
c13 14 36 32 51 41 16 10 37 37 48 61 20 46 16 45 87 25 20 -6 22 -3 22 28 0
28 5 35 29 45 23 8 32 8 44 -4 13 -13 15 -12 21 11 16 64 25 77 45 66 18 -9
20 -6 23 32 2 36 7 44 26 46 15 2 22 10 22 25 0 24 26 67 40 67 23 0 86 -55
98 -86 12 -27 20 -34 42 -34 16 0 32 -4 35 -10 3 -5 21 -10 40 -10 19 0 37 5
40 10 10 17 44 11 55 -9 8 -17 14 -18 40 -8 16 6 30 17 30 23 0 6 11 27 24 46
23 35 31 69 42 178 7 64 17 80 50 80 14 0 42 11 64 25 37 23 70 32 70 19 0 -3
-5 -14 -10 -24 -9 -17 -5 -21 32 -31 44 -13 98 -54 98 -75 0 -6 -7 -17 -15
-24 -17 -14 -21 -110 -5 -110 6 0 10 14 10 30 0 60 60 130 111 130 21 0 34 17
43 53 6 26 5 27 -29 27 -39 0 -40 2 -23 30 10 16 10 24 0 40 -16 26 -16 27 8
33 24 6 27 42 5 64 -15 15 -40 14 -77 -1 -12 -6 -17 -2 -20 15 -6 47 -108 41
-108 -6 0 -7 -7 -18 -16 -26 -13 -10 -17 -10 -25 2 -19 30 -21 60 -5 78 17 19
22 56 7 65 -4 3 -18 -5 -30 -17z"/>
<path d="M1710 8765 c0 -9 -9 -15 -25 -15 -14 0 -25 -4 -25 -10 0 -5 14 -10
30 -10 25 0 30 4 30 25 0 14 -2 25 -5 25 -3 0 -5 -7 -5 -15z"/>
<path d="M6800 8505 c-19 -13 -47 -24 -61 -24 -36 -1 -46 -17 -53 -81 -11
-109 -19 -143 -42 -178 -13 -19 -24 -40 -24 -46 0 -7 -16 -18 -37 -25 -34 -13
-37 -12 -54 10 -14 19 -20 22 -30 12 -15 -15 -109 -17 -109 -3 0 6 -13 10 -29
10 -24 0 -31 6 -43 34 -7 19 -30 46 -51 60 l-37 25 -16 -24 c-23 -35 -14 -55
36 -85 26 -15 46 -35 48 -47 3 -21 7 -24 114 -69 53 -23 68 -34 68 -50 0 -12
7 -27 16 -35 12 -9 15 -27 12 -66 -2 -38 1 -53 10 -53 7 0 12 -14 12 -35 0
-19 9 -51 21 -71 17 -30 19 -42 10 -61 -20 -44 -13 -117 14 -157 14 -20 25
-45 25 -54 0 -18 41 -42 72 -42 10 0 18 -6 18 -14 0 -7 7 -19 15 -26 10 -9 15
-32 15 -76 0 -34 5 -66 10 -69 24 -15 9 -35 -25 -35 -22 0 -35 -5 -35 -13 0
-7 -11 -28 -23 -47 -13 -19 -27 -48 -31 -63 -4 -16 -25 -48 -46 -71 -22 -24
-40 -53 -40 -65 0 -13 -10 -26 -25 -33 -14 -6 -25 -18 -25 -26 0 -9 -3 -12 -7
-9 -14 14 -33 -17 -33 -54 0 -33 -4 -41 -26 -51 -20 -9 -30 -9 -45 0 -26 16
-29 15 -29 -10 0 -12 -9 -32 -21 -44 -24 -26 -31 -80 -12 -96 18 -15 16 -73
-3 -89 -14 -11 -13 -14 10 -26 25 -13 26 -16 26 -112 0 -92 -2 -100 -23 -114
-49 -32 -6 -137 56 -137 18 0 41 -7 51 -15 11 -8 35 -15 53 -15 35 0 53 -21
53 -63 0 -39 39 -67 92 -67 37 0 48 4 53 19 3 11 13 25 21 32 14 11 18 10 30
-6 13 -18 14 -18 38 4 27 25 115 61 151 61 19 0 25 5 25 23 0 22 16 47 31 47
4 0 10 -9 14 -19 6 -19 7 -19 40 2 18 12 38 33 45 46 8 18 14 21 22 13 7 -7
29 -12 49 -12 29 0 43 6 58 26 12 15 21 32 21 39 0 13 33 60 92 130 20 24 44
67 53 96 11 32 20 47 25 39 11 -18 32 -2 25 20 -3 10 -1 21 5 25 5 3 10 19 10
34 0 16 10 37 25 51 14 13 25 29 25 36 0 25 23 64 42 70 10 3 26 16 34 30 15
23 15 26 -9 57 -18 24 -40 37 -87 51 -34 10 -74 29 -90 42 -15 13 -33 24 -38
24 -11 0 -42 39 -42 52 0 5 10 8 23 8 47 0 62 46 28 88 -11 12 -26 22 -35 22
-10 0 -16 9 -16 23 0 16 -9 28 -27 37 l-28 12 23 11 c24 11 25 32 1 32 -28 1
-39 17 -39 55 0 21 -4 41 -9 45 -11 6 -9 120 2 131 24 24 -36 154 -80 173 -62
26 -112 204 -68 241 8 7 15 27 15 45 0 25 -8 40 -35 64 -20 17 -40 31 -45 31
-6 0 -10 6 -10 13 0 7 -16 28 -35 47 -36 34 -44 67 -24 87 7 7 11 42 10 87 -1
46 3 83 11 95 10 17 9 24 -10 43 -12 13 -42 29 -68 36 -42 11 -46 15 -40 37 4
14 5 25 4 24 -2 0 -19 -11 -38 -24z"/>
<path d="M5920 8330 c0 -5 -9 -10 -20 -10 -13 0 -20 -7 -20 -18 0 -10 -5 -23
-10 -28 -12 -12 -3 -44 11 -44 5 0 9 7 9 15 0 9 9 15 23 15 27 0 52 51 34 69
-14 14 -27 14 -27 1z"/>
<path d="M6150 8155 c0 -42 -2 -45 -19 -35 -29 15 -30 14 -37 -31 -7 -44 -25
-59 -48 -39 -26 20 -56 -5 -56 -47 0 -32 -2 -35 -22 -28 -67 21 -75 19 -89
-20 -8 -21 -27 -44 -44 -55 -17 -11 -40 -29 -50 -40 -17 -19 -17 -21 0 -53 17
-31 16 -34 -1 -72 -11 -22 -36 -51 -57 -64 -30 -20 -37 -30 -37 -57 0 -39 -20
-61 -77 -86 -35 -16 -43 -24 -43 -46 0 -15 -9 -42 -20 -60 -11 -18 -20 -50
-20 -73 0 -22 -7 -56 -15 -76 -8 -19 -15 -43 -15 -52 0 -9 -14 -24 -30 -33
-28 -16 -30 -20 -24 -60 4 -24 12 -57 19 -75 12 -27 11 -33 -4 -47 -10 -9 -33
-16 -53 -16 -23 0 -41 -7 -54 -21 -12 -14 -26 -19 -44 -16 -57 11 -82 -27 -92
-138 -3 -44 -10 -95 -13 -113 -5 -21 -3 -42 5 -57 12 -22 10 -58 -5 -145 -6
-29 -2 -39 19 -59 20 -19 26 -34 26 -67 0 -37 -5 -46 -40 -74 -39 -31 -39 -32
-25 -60 18 -35 20 -127 3 -181 -9 -33 -15 -39 -40 -39 -24 0 -31 -7 -50 -47
-11 -27 -30 -58 -40 -69 -13 -14 -16 -24 -9 -29 17 -10 13 -61 -5 -76 -14 -11
-19 -10 -35 10 -19 23 -19 23 -19 -74 0 -94 9 -125 38 -125 5 0 15 -6 21 -14
10 -11 9 -21 -3 -45 -21 -40 -21 -144 -1 -161 14 -12 14 -15 -1 -31 -21 -23
-15 -51 14 -64 17 -7 22 -18 22 -46 0 -28 5 -38 25 -47 27 -13 35 -55 12 -69
-6 -4 -18 -20 -26 -35 -12 -23 -11 -31 5 -67 10 -23 21 -41 26 -41 12 0 10
-88 -2 -95 -6 -4 -8 -11 -4 -16 4 -6 11 -6 20 2 10 8 17 9 28 0 10 -8 21 -8
45 0 24 9 35 9 44 0 6 -6 21 -11 34 -11 21 0 23 4 23 58 0 62 11 82 46 82 13
0 24 8 27 19 2 11 18 26 35 35 25 13 36 14 57 4 14 -6 25 -17 25 -25 0 -9 13
-13 40 -13 37 0 40 2 40 28 0 15 11 45 25 67 13 22 25 52 25 66 0 14 11 36 25
49 18 17 22 26 13 31 -9 6 -9 15 4 41 9 19 13 47 10 66 -2 19 0 43 6 55 47
101 48 106 27 147 -14 26 -13 30 2 39 16 8 14 10 -10 16 -30 8 -34 17 -14 34
10 8 22 7 45 -1 28 -11 34 -10 57 12 14 13 25 34 25 48 0 22 3 24 36 20 30 -4
41 1 72 32 36 36 37 37 17 52 -20 16 -20 16 -1 37 11 11 24 21 30 21 21 0 44
53 39 87 -5 29 -8 32 -29 27 -20 -5 -24 -2 -24 18 0 14 -11 35 -25 48 -14 13
-25 32 -25 42 0 16 -3 17 -21 7 -17 -9 -25 -7 -45 12 -14 13 -24 34 -24 50 0
14 -7 32 -15 39 -9 7 -13 15 -10 18 3 3 -2 13 -10 22 -14 15 -13 18 10 28 23
11 25 16 25 86 0 41 5 78 10 81 6 3 10 19 10 35 0 16 5 32 10 35 6 3 10 17 10
31 0 21 -5 24 -33 24 -28 0 -33 3 -32 24 2 39 22 57 49 45 17 -8 30 -6 57 9
19 10 47 22 62 26 21 5 27 11 22 25 -3 11 3 25 15 36 13 11 18 25 14 37 -4 14
0 18 20 18 16 0 27 7 31 20 7 21 20 26 30 10 10 -16 35 1 32 22 -2 20 6 27 56
47 23 9 27 16 27 51 0 41 23 100 39 100 14 0 52 70 45 82 -10 16 -7 127 4 141
6 6 12 26 14 42 2 24 10 32 36 40 31 9 32 11 32 63 0 54 0 54 28 49 17 -3 33
0 45 10 14 13 22 14 40 5 12 -6 38 -13 57 -14 45 -4 50 17 16 67 -22 31 -26
49 -26 106 0 37 4 70 10 74 5 3 1 20 -10 41 -11 19 -20 48 -20 64 0 25 -4 30
-25 30 -25 0 -33 14 -15 25 6 3 10 28 10 55 0 27 -4 52 -10 55 -5 3 -10 17
-10 31 0 13 -4 24 -10 24 -5 0 -42 16 -81 35 -40 19 -78 35 -86 35 -7 0 -13
11 -13 25 0 19 -10 29 -40 45 -21 11 -51 20 -65 20 -23 0 -25 -3 -25 -45z"/>
<path d="M3439 6470 c-3 -17 -12 -26 -27 -28 -16 -3 -20 -7 -14 -15 6 -7 12
-21 14 -32 3 -16 7 -14 22 17 10 20 16 47 14 60 -4 23 -4 23 -9 -2z"/>
<path d="M3080 6231 c0 -6 5 -13 10 -16 6 -3 10 1 10 9 0 9 -4 16 -10 16 -5 0
-10 -4 -10 -9z"/>
<path d="M2550 6190 c0 -25 -16 -26 -29 -2 -9 16 -10 16 -16 -3 -4 -11 -11
-28 -16 -37 -15 -28 -11 -33 11 -13 19 17 22 18 37 2 16 -16 18 -15 29 13 7
17 20 30 29 30 8 0 15 7 15 15 0 10 -10 15 -30 15 -23 0 -30 -4 -30 -20z"/>
<path d="M2819 6148 c-1 -13 -2 -32 -3 -43 -1 -15 -10 -21 -36 -25 -35 -5 -35
-6 -32 -49 3 -33 1 -42 -10 -37 -7 3 -21 9 -30 12 -10 4 -18 11 -18 16 0 5
-10 8 -22 6 -19 -2 -24 -10 -26 -42 -2 -21 1 -43 7 -49 21 -21 13 -47 -14 -47
-20 0 -25 -5 -25 -27 0 -14 -3 -23 -7 -20 -11 11 -33 -14 -33 -38 0 -12 -10
-29 -22 -37 -12 -8 -18 -19 -14 -26 9 -15 36 -16 36 -2 0 6 10 15 23 20 12 6
30 15 39 22 29 21 33 -1 5 -30 -15 -16 -27 -38 -27 -49 0 -16 -7 -23 -27 -25
-31 -4 -67 -47 -61 -74 3 -16 7 -13 21 13 14 27 21 31 40 24 31 -11 37 -60 8
-68 -26 -7 -28 -23 -3 -23 27 0 72 -23 72 -37 0 -7 -4 -13 -9 -13 -5 0 -12 -9
-16 -19 -3 -11 -26 -34 -50 -53 -24 -18 -45 -39 -45 -45 0 -7 -4 -13 -9 -13
-6 0 -21 -11 -35 -24 -19 -17 -26 -33 -26 -60 0 -23 4 -35 10 -31 6 4 9 14 8
23 -5 30 35 20 52 -13 13 -28 15 -28 18 -8 5 36 28 47 45 23 9 -13 20 -18 32
-14 10 4 21 1 26 -7 6 -10 9 -10 9 -1 0 16 32 16 48 0 10 -10 17 -10 32 0 26
16 29 15 23 -8 -4 -13 0 -20 9 -20 8 0 23 9 33 20 10 11 24 20 32 20 7 0 13 5
13 11 0 15 26 39 42 39 8 0 20 -6 27 -12 10 -11 12 -9 9 7 -2 11 5 28 14 37
25 25 22 42 -13 83 -27 31 -37 35 -79 35 -30 0 -52 5 -60 15 -7 8 -19 15 -26
15 -8 0 -14 5 -14 10 0 16 30 24 43 11 14 -14 57 -15 57 -1 0 6 11 10 25 10
14 0 25 4 25 8 0 5 -11 15 -25 22 -39 21 -32 40 14 40 22 0 42 -4 45 -9 7 -11
56 10 56 25 0 6 16 18 35 27 36 17 44 34 23 55 -10 10 -7 17 13 35 14 12 34
27 45 33 10 6 20 21 22 33 3 18 -2 21 -30 21 -25 0 -36 6 -43 23 -9 20 -18 22
-92 25 -58 2 -91 -2 -111 -12 -37 -19 -54 -7 -50 35 2 26 10 37 33 48 17 8 32
18 33 23 8 20 35 38 58 38 13 0 33 9 44 20 11 11 28 20 38 20 19 0 46 36 37
50 -4 6 -17 10 -31 10 -13 0 -24 5 -24 10 0 7 -7 7 -20 0 -16 -9 -28 -7 -52 4
-17 9 -34 13 -39 11 -4 -3 -16 6 -25 20 -20 31 -44 32 -45 3z"/>
<path d="M2503 5995 c-3 -9 -3 -19 1 -22 7 -7 36 16 36 28 0 15 -30 10 -37 -6z"/>
<path d="M2542 5961 c-10 -16 -11 -26 -3 -34 15 -15 23 -3 19 30 l-3 28 -13
-24z"/>
<path d="M6920 5915 c-9 -11 -32 -15 -81 -15 -62 0 -69 -2 -69 -20 0 -16 -7
-20 -33 -20 -40 0 -57 -15 -57 -51 0 -21 5 -28 23 -31 27 -4 39 -58 13 -58
-28 0 -21 -72 9 -100 l25 -24 16 22 c31 44 88 15 65 -34 -6 -14 -11 -36 -11
-50 0 -22 3 -24 23 -19 12 4 32 13 43 20 16 11 24 11 33 2 9 -9 14 -9 19 0 11
17 77 -6 88 -31 7 -16 20 -22 51 -24 31 -2 44 -8 48 -23 8 -24 16 -24 65 1 24
12 41 16 45 10 9 -15 42 -12 48 3 3 7 -4 19 -14 25 -23 15 -25 45 -4 62 13 11
20 9 39 -9 15 -14 26 -19 30 -12 11 17 -12 50 -39 57 -20 5 -25 13 -25 36 0
16 -5 39 -11 50 -8 15 -8 27 0 44 6 15 7 25 1 29 -17 10 -11 41 10 60 14 13
20 29 18 49 l-3 31 -75 3 c-49 2 -80 8 -91 18 -15 14 -20 14 -48 -1 -27 -14
-31 -14 -31 0 0 21 -102 21 -120 0z"/>
<path d="M12340 5903 c-65 -9 -70 -12 -70 -48 0 -20 5 -35 12 -35 6 0 20 -7
30 -16 14 -14 18 -14 23 -3 20 57 35 102 33 103 -2 1 -14 0 -28 -1z"/>
<path d="M5015 5859 c-10 -15 4 -61 15 -54 13 8 13 65 1 65 -6 0 -13 -5 -16
-11z"/>
<path d="M6515 5770 c-19 -8 -19 -9 3 -9 13 -1 22 -7 22 -16 0 -20 16 -19 24
1 12 31 -9 41 -49 24z"/>
<path d="M12299 5703 c-12 -38 -24 -75 -27 -83 -4 -12 -1 -11 15 3 11 9 24 17
30 17 14 0 53 66 53 89 0 20 -19 41 -36 41 -7 0 -22 -30 -35 -67z"/>
<path d="M2495 5740 c-3 -5 1 -10 10 -10 9 0 13 5 10 10 -3 6 -8 10 -10 10 -2
0 -7 -4 -10 -10z"/>
<path d="M6477 5660 c-14 -38 -12 -66 5 -83 16 -15 19 -15 24 -2 4 8 18 15 33
15 34 0 82 66 56 77 -9 3 -29 -4 -45 -16 -37 -27 -44 -26 -57 2 -8 17 -12 19
-16 7z"/>
<path d="M2045 5531 c-3 -6 -20 -11 -36 -11 -18 0 -28 -4 -24 -10 3 -5 0 -10
-8 -10 -8 0 -20 -6 -26 -14 -7 -8 -26 -18 -42 -21 -35 -8 -27 -25 21 -45 24
-10 28 -15 19 -26 -6 -8 -20 -14 -30 -14 -12 0 -19 -7 -19 -20 0 -11 -12 -26
-28 -34 -27 -14 -31 -13 -65 11 -21 14 -37 30 -37 34 0 15 -51 59 -69 59 -35
0 -58 -93 -27 -112 7 -5 6 -8 -5 -8 -8 0 -26 -11 -39 -25 -13 -14 -26 -23 -28
-20 -3 3 -11 0 -17 -5 -15 -13 4 -80 22 -80 7 0 13 -6 13 -13 0 -8 14 -11 45
-9 47 4 54 -3 35 -37 -6 -12 -26 -21 -54 -25 -25 -4 -55 -16 -68 -26 -23 -19
-23 -19 -3 -34 11 -8 30 -16 41 -16 12 0 27 -7 34 -15 11 -13 6 -15 -33 -15
-25 0 -49 5 -52 10 -3 6 -19 10 -36 10 -16 0 -29 -4 -29 -10 0 -5 -18 -10 -41
-10 -42 0 -79 -14 -79 -30 0 -6 17 -10 39 -10 22 0 44 -6 51 -15 11 -13 7 -15
-22 -15 -37 0 -93 -35 -82 -51 3 -6 11 -5 20 2 11 9 18 9 26 1 7 -7 23 -12 38
-13 23 -1 22 -2 -7 -10 -36 -11 -45 -39 -12 -39 11 0 17 -4 14 -10 -3 -5 1
-10 10 -10 9 0 19 -9 22 -19 4 -17 9 -18 29 -9 19 9 28 8 42 -5 22 -20 53 -22
70 -5 10 10 17 10 32 0 25 -16 50 -15 50 1 0 17 48 39 53 23 3 -8 11 -7 29 2
26 14 168 13 200 -2 12 -5 29 4 62 35 25 24 46 49 46 56 0 7 7 13 15 13 11 0
15 11 15 39 0 22 5 43 10 46 6 3 10 17 10 30 0 13 5 27 10 30 6 3 10 24 10 45
0 21 5 42 10 45 6 4 8 15 5 26 -5 13 -2 19 10 19 13 0 14 3 3 21 -7 12 -18 30
-25 42 -6 11 -17 24 -25 28 -19 13 -62 11 -76 -3 -10 -10 -23 -2 -62 38 -48
47 -50 51 -38 77 11 25 17 28 46 23 22 -3 32 -1 32 8 0 7 9 25 21 40 15 19 30
26 55 26 21 0 33 4 29 10 -3 6 5 10 19 10 28 0 39 11 31 32 -3 8 -23 13 -58
13 -28 0 -59 4 -68 8 -10 5 -20 4 -24 -2z"/>
<path d="M6886 5521 c-3 -5 -26 -14 -51 -20 l-45 -11 0 -93 c0 -85 -2 -96 -23
-115 -13 -12 -30 -22 -38 -22 -24 0 -89 73 -89 99 0 25 -19 45 -58 61 -13 6
-26 19 -29 30 -7 27 -33 25 -77 -5 -20 -14 -40 -25 -45 -25 -12 0 -31 -47 -31
-77 0 -14 -10 -41 -21 -60 -12 -19 -27 -64 -34 -99 l-12 -65 46 7 c25 3 55 12
67 19 11 7 54 16 95 19 41 3 102 8 136 12 39 3 69 1 83 -6 16 -9 29 -9 50 0
24 10 32 8 66 -15 21 -15 58 -32 82 -38 24 -6 48 -20 53 -29 5 -10 34 -36 64
-58 44 -32 63 -40 98 -40 24 0 52 6 63 14 13 10 23 11 31 4 9 -7 20 -5 39 7
l26 17 -23 24 c-26 27 -27 25 28 53 41 20 41 21 31 58 -28 107 -31 113 -53
113 -14 0 -26 10 -33 25 -16 35 -16 35 13 35 23 0 25 4 25 40 0 41 -7 49 -27
29 -8 -8 -20 -3 -43 20 l-32 30 -41 -20 -41 -21 -19 26 c-14 19 -28 26 -52 26
-22 0 -39 7 -47 18 -20 29 -53 43 -67 29 -9 -9 -16 -9 -31 1 -23 14 -27 15
-34 3z"/>
<path d="M4754 5476 c-36 -19 -53 -36 -68 -67 l-14 -29 43 0 c26 0 47 -6 55
-15 12 -14 16 -13 42 11 32 32 35 51 11 69 -15 11 -15 15 -4 29 12 14 10 16
-15 15 -16 -1 -39 -6 -50 -13z"/>
<path d="M2205 5460 c-3 -5 -30 -10 -58 -10 -42 0 -57 -5 -74 -24 -13 -13 -23
-31 -23 -40 0 -21 -28 -32 -43 -17 -16 16 -24 14 -31 -11 -4 -17 4 -32 30 -59
32 -33 39 -36 78 -32 45 5 86 -9 86 -30 1 -7 12 -25 26 -42 22 -27 26 -28 37
-13 7 9 24 18 37 20 30 4 47 55 24 72 -18 13 -9 46 12 46 16 0 20 55 4 65 -5
3 -10 19 -10 36 0 27 -3 29 -35 29 -19 0 -35 5 -35 10 0 6 -4 10 -9 10 -6 0
-13 -4 -16 -10z"/>
<path d="M2971 5351 c-6 -11 -11 -27 -11 -36 0 -22 -27 -30 -46 -14 -13 11
-17 11 -25 -1 -14 -25 -23 -35 -40 -45 -9 -5 -28 -18 -43 -29 -20 -14 -29 -16
-40 -7 -11 9 -17 8 -29 -3 -9 -9 -18 -11 -24 -5 -5 5 -18 3 -31 -7 -20 -14
-23 -23 -20 -67 3 -43 7 -54 28 -64 14 -7 21 -13 15 -13 -5 -1 2 -8 18 -16 32
-17 37 -54 7 -54 -11 0 -20 -4 -20 -10 0 -5 -7 -10 -15 -10 -9 0 -15 -9 -15
-24 0 -15 -7 -26 -20 -29 -20 -5 -28 -27 -10 -27 6 0 10 -11 10 -24 0 -13 6
-26 13 -29 16 -6 -3 -27 -29 -32 -11 -2 -20 -4 -22 -4 -1 -1 5 -12 13 -25 17
-26 11 -50 -19 -76 -9 -7 -16 -21 -16 -31 0 -11 -16 -42 -35 -69 -34 -48 -46
-90 -25 -90 6 0 10 -13 10 -30 0 -23 4 -30 20 -30 11 0 20 -4 20 -8 0 -18 -46
-51 -75 -54 -20 -2 -33 -11 -40 -25 -9 -20 -17 -23 -70 -23 -50 0 -65 4 -87
25 -29 27 -58 33 -58 12 0 -7 -5 -18 -12 -25 -9 -9 -16 -8 -29 4 -17 15 -19
14 -33 -20 -11 -27 -21 -36 -39 -36 -29 0 -97 -27 -97 -38 0 -4 -16 -14 -35
-21 -40 -14 -50 -51 -15 -51 11 0 20 5 20 11 0 5 8 9 18 8 9 -2 31 4 47 13 26
14 34 14 55 2 14 -7 37 -13 51 -14 18 0 28 -7 32 -21 4 -16 12 -20 39 -17 29
3 33 7 36 35 4 38 27 62 44 45 7 -7 33 -12 59 -12 41 0 51 -4 79 -36 23 -27
34 -34 43 -25 14 14 64 15 72 1 11 -18 46 -11 65 13 l18 22 24 -22 c13 -13 34
-23 46 -23 13 0 25 -7 28 -15 5 -11 21 -15 60 -15 34 0 66 -7 88 -19 29 -17
39 -18 65 -8 24 9 36 9 50 0 16 -10 22 -8 37 8 9 10 22 19 29 19 6 0 22 11 35
25 20 22 21 25 6 31 -9 3 -23 1 -32 -6 -11 -10 -18 -10 -26 -2 -7 7 -18 12
-25 12 -17 0 -62 50 -63 69 0 11 10 12 45 8 36 -5 45 -4 45 8 0 8 -5 15 -11
15 -8 0 -8 5 1 15 7 8 28 15 46 15 19 0 34 5 34 10 0 6 10 10 22 10 27 0 78
47 78 71 0 10 5 21 10 24 6 3 10 26 10 50 0 41 -3 46 -37 63 -60 30 -96 33
-136 13 -31 -16 -38 -16 -50 -4 -21 22 -9 56 29 82 27 19 34 30 34 56 0 18 -7
38 -15 45 -8 7 -15 18 -15 26 0 11 -30 27 -55 29 -5 0 -11 8 -13 19 -3 16 1
18 32 14 l36 -4 0 76 c0 91 -13 124 -57 141 -31 12 -33 16 -33 61 0 27 6 57
12 68 10 15 10 22 0 32 -15 15 -16 62 -1 89 8 15 6 25 -10 45 -19 24 -20 25
-30 5z"/>
<path d="M4507 5363 c-4 -3 -7 -15 -7 -26 0 -18 1 -18 18 2 13 16 31 21 82 24
l65 3 -76 2 c-42 1 -79 -1 -82 -5z"/>
<path d="M4710 5305 c0 -11 -11 -15 -39 -15 -40 0 -61 -13 -41 -25 5 -3 10
-20 10 -38 l0 -31 -16 22 c-13 18 -19 21 -30 11 -11 -9 -14 -7 -14 16 0 30
-17 30 -34 0 -6 -11 -17 -25 -23 -33 -11 -11 -13 -11 -13 3 0 8 -11 20 -25 25
-14 5 -25 15 -25 22 0 7 -7 0 -15 -16 -10 -19 -15 -58 -15 -115 0 -51 -5 -92
-11 -98 -13 -13 -4 -33 14 -33 19 0 37 -50 37 -104 0 -46 3 -53 31 -68 17 -10
45 -18 62 -18 l30 0 -22 24 c-23 24 -23 25 -4 37 13 8 18 19 15 35 -2 14 0 24
7 24 6 0 11 9 11 20 0 12 13 25 35 36 19 9 35 20 35 25 0 5 11 14 24 20 30 14
49 52 34 67 -8 8 -8 16 2 27 15 18 47 20 52 3 7 -19 28 1 28 26 0 27 -18 46
-43 46 -39 0 -61 46 -33 69 17 14 9 51 -10 51 -8 0 -14 -7 -14 -15z"/>
<path d="M2337 5250 c-3 -11 -1 -20 4 -20 5 0 9 9 9 20 0 11 -2 20 -4 20 -2 0
-6 -9 -9 -20z"/>
<path d="M6635 5160 c-3 -5 -41 -10 -84 -10 -58 0 -82 -4 -91 -15 -7 -8 -25
-15 -40 -15 -15 0 -42 -5 -60 -11 l-32 -12 6 -66 c13 -145 20 -176 41 -180 11
-2 23 -9 28 -16 4 -8 21 -20 37 -29 27 -13 33 -13 58 1 63 36 106 -9 114 -119
4 -51 6 -54 49 -76 24 -13 51 -30 60 -38 8 -8 23 -14 32 -14 9 0 17 -4 17 -10
0 -5 11 -10 25 -10 25 0 51 32 40 50 -3 6 6 10 20 10 46 0 135 31 145 50 6 10
10 46 10 78 l0 60 41 7 c22 4 43 13 46 21 3 9 20 14 43 14 23 0 43 7 53 18 19
21 13 32 -17 32 -43 0 -49 14 -27 59 l21 41 -25 0 c-28 0 -128 68 -144 98 -5
9 -29 23 -53 29 -24 6 -59 22 -79 36 -28 19 -40 22 -57 14 -15 -7 -34 -6 -61
1 -47 15 -108 15 -116 2z"/>
<path d="M2476 5141 c-21 -23 -6 -37 23 -21 12 6 18 16 15 25 -8 20 -17 19
-38 -4z"/>
<path d="M7347 5099 l-37 -20 20 -21 c15 -17 17 -24 8 -35 -20 -25 -64 -43
-75 -32 -8 8 -13 7 -17 0 -4 -6 -20 -11 -35 -11 -21 0 -31 -8 -44 -35 -9 -20
-17 -38 -17 -40 0 -3 21 -10 46 -16 l45 -12 -27 -28 c-20 -21 -37 -29 -61 -29
-18 0 -33 -4 -33 -10 0 -5 -21 -16 -47 -23 l-48 -14 -2 -54 c-1 -30 -2 -59 -2
-66 -1 -7 -12 -23 -24 -37 -17 -18 -27 -22 -34 -15 -8 8 -17 8 -31 0 -11 -6
-31 -11 -44 -11 -15 -1 -30 -12 -43 -33 -15 -23 -29 -33 -53 -35 -18 -2 -32 1
-32 7 0 6 -7 11 -15 11 -19 0 -19 -27 0 -60 8 -14 14 -39 15 -56 0 -17 13 -47
30 -71 29 -39 31 -47 28 -115 -3 -72 -3 -72 -45 -103 -23 -16 -42 -33 -42 -38
-1 -4 10 -13 24 -19 23 -10 25 -15 19 -53 -5 -38 -4 -43 18 -49 19 -5 30 2 59
36 35 40 38 41 110 46 172 10 222 7 267 -17 24 -12 66 -25 93 -28 27 -3 54
-12 60 -19 15 -19 73 -18 89 1 18 21 50 19 76 -6 l22 -21 12 21 c9 17 15 19
30 11 10 -5 21 -19 25 -30 6 -18 8 -17 33 11 26 28 29 29 64 17 29 -9 44 -9
64 1 24 11 30 9 55 -15 l27 -26 4 28 c2 16 -2 41 -9 56 -9 19 -10 34 -3 53 6
15 10 37 10 49 0 13 9 31 20 41 16 15 31 16 110 10 92 -7 115 1 60 22 -16 6
-33 20 -36 30 -3 10 -14 39 -25 65 -10 26 -19 70 -19 99 l0 52 38 -7 c42 -6
62 4 124 62 30 28 35 39 27 54 -5 10 -21 18 -34 18 -20 0 -25 5 -25 25 0 24
-3 25 -54 25 l-55 0 -3 37 c-3 40 -4 41 -95 63 -36 9 -43 15 -43 35 0 22 -4
25 -37 25 l-38 0 24 19 c21 16 23 22 13 50 -6 18 -20 45 -32 60 -21 31 -26 66
-10 76 17 10 11 25 -10 25 -11 0 -26 11 -35 23 -8 13 -27 29 -41 35 -32 15
-34 15 -34 -1 0 -13 -40 -37 -61 -37 -5 0 -14 11 -19 25 -9 24 -14 25 -85 25
-43 0 -75 4 -75 10 0 16 -42 11 -83 -11z"/>
<path d="M4985 5050 c15 -16 15 -22 5 -35 -7 -8 -23 -15 -36 -15 -19 0 -24 -5
-24 -25 0 -28 -21 -33 -40 -10 -17 20 -59 19 -67 -1 -3 -9 -1 -26 6 -37 10
-15 10 -21 1 -27 -7 -4 -10 -16 -8 -26 2 -14 13 -20 46 -22 33 -3 42 -7 42
-22 0 -10 4 -21 9 -24 5 -3 8 2 7 11 0 9 10 22 23 29 32 16 42 35 29 52 -9 10
-4 21 21 45 29 31 31 37 25 80 -6 42 -9 47 -32 47 -24 0 -25 -1 -7 -20z"/>
<path d="M4714 4939 c-3 -5 -16 -9 -30 -9 -20 0 -24 -5 -24 -30 0 -25 4 -30
25 -30 14 0 25 -4 25 -10 0 -5 14 -10 30 -10 28 0 30 2 30 38 0 30 -5 39 -25
49 -14 6 -27 7 -31 2z"/>
<path d="M2390 4915 c0 -11 7 -15 23 -13 12 2 22 8 22 13 0 6 -10 11 -22 13
-16 2 -23 -2 -23 -13z"/>
<path d="M2493 4856 c-23 -6 -45 -14 -49 -18 -4 -5 -18 -8 -30 -8 -26 0 -40
-15 -21 -23 7 -3 25 -3 40 0 30 6 38 -16 13 -37 -8 -6 -16 -30 -18 -53 -2 -31
-9 -44 -25 -53 -13 -6 -31 -18 -40 -27 -14 -12 -37 -15 -100 -14 -78 3 -82 2
-86 -20 -4 -20 0 -23 24 -23 32 0 41 -26 12 -33 -17 -4 -17 -4 0 -12 11 -5 24
-2 36 9 10 9 30 16 44 16 22 0 27 -5 27 -25 0 -14 6 -25 13 -25 8 0 7 -4 -3
-10 -11 -7 -5 -10 24 -10 33 0 37 -2 26 -15 -22 -27 14 -55 70 -55 37 0 51 5
68 25 23 26 29 55 12 55 -16 0 -12 48 6 75 9 13 14 30 12 37 -3 7 5 17 16 23
12 6 22 22 24 37 2 14 12 34 23 44 24 22 24 28 -3 86 -17 35 -29 48 -45 48
-12 0 -23 4 -25 8 -1 5 -22 4 -45 -2z"/>
<path d="M4470 4792 c0 -17 5 -34 10 -37 23 -14 9 -43 -27 -58 -21 -9 -32 -16
-25 -16 6 -1 12 -12 12 -26 0 -17 8 -29 25 -37 28 -12 30 -19 14 -35 -7 -7 0
-16 25 -31 26 -16 36 -28 36 -47 0 -35 -13 -31 -33 10 -15 32 -20 35 -62 35
l-45 0 0 -44 c0 -26 -6 -48 -15 -56 -8 -7 -15 -20 -15 -29 -1 -25 -29 30 -30
59 -1 14 -4 19 -7 13 -2 -7 -14 -13 -25 -13 -17 0 -19 4 -14 27 9 34 -5 43
-74 43 -50 0 -56 -3 -67 -27 -7 -15 -10 -29 -5 -32 4 -3 13 -18 21 -34 11 -21
12 -30 3 -39 -7 -7 -12 -27 -12 -45 0 -18 -4 -33 -10 -33 -5 0 -10 -22 -10
-49 0 -28 -4 -53 -10 -56 -6 -4 -6 -12 2 -24 8 -13 7 -29 -4 -62 -14 -42 -16
-44 -58 -47 -24 -2 -54 2 -67 9 -20 11 -31 9 -71 -7 l-47 -20 -3 -61 c-2 -51
-6 -63 -22 -68 -14 -4 -20 -15 -20 -35 0 -16 -4 -40 -10 -54 -6 -16 -6 -27 0
-31 15 -10 12 -45 -5 -51 -26 -10 -19 -77 11 -105 24 -22 26 -29 21 -89 -6
-102 40 -170 117 -170 14 0 28 -4 31 -10 3 -5 19 -10 34 -10 16 0 34 -7 41
-15 10 -13 6 -23 -29 -60 -23 -25 -44 -59 -48 -75 -3 -17 -10 -33 -14 -36 -5
-3 -9 -27 -9 -53 0 -31 -5 -53 -15 -61 -21 -17 -19 -55 3 -59 9 -1 68 -5 130
-7 88 -4 112 -8 112 -20 0 -8 10 -14 25 -14 15 0 25 -6 25 -14 0 -18 30 -30
44 -16 17 17 38 12 67 -16 46 -44 114 -35 131 18 5 14 58 -13 58 -29 0 -16 32
-17 48 -1 10 10 17 10 32 0 26 -16 45 -15 60 3 10 12 31 15 84 14 87 -3 126
-20 126 -55 0 -20 4 -25 16 -20 9 3 17 6 19 6 5 0 -24 87 -36 112 -5 10 -9 36
-9 58 0 40 0 40 38 40 39 0 62 16 75 52 4 11 19 18 43 20 l37 3 -38 45 c-20
24 -46 49 -58 55 -12 6 -34 36 -50 68 -16 31 -33 57 -38 57 -5 0 -9 18 -9 39
0 27 -8 49 -25 69 -14 17 -25 35 -25 41 0 6 -9 20 -20 31 -14 14 -20 33 -20
63 1 42 1 42 19 21 12 -16 25 -20 43 -17 14 3 29 0 32 -6 4 -6 16 -11 26 -11
34 0 185 77 234 119 52 45 85 52 93 21 6 -23 14 -25 31 -8 19 19 16 242 -4
273 -9 13 -14 39 -13 57 2 18 -1 40 -6 48 -18 28 -30 47 -48 80 -19 32 -19 32
7 59 23 24 26 35 26 98 l0 72 -32 3 c-32 3 -33 5 -36 51 -3 46 -4 47 -36 47
-28 0 -34 5 -46 35 -14 36 -24 43 -35 25 -3 -5 -17 -10 -31 -10 -14 0 -46 -11
-72 -24 -58 -29 -175 -36 -207 -12 -11 9 -14 16 -7 16 6 0 12 7 12 15 0 8 5
15 10 15 6 0 10 7 10 15 0 17 -35 21 -45 5 -10 -16 -21 -11 -33 15 -8 17 -20
25 -37 25 -14 0 -25 5 -25 10 0 6 -11 10 -25 10 -27 0 -33 18 -13 38 9 9 7 16
-7 32 -10 11 -24 20 -32 20 -8 0 -12 4 -9 9 3 5 -7 11 -22 13 -15 3 -35 9 -44
13 -15 6 -18 2 -18 -23z"/>
<path d="M6314 4799 c-2 -4 1 -9 7 -11 15 -5 -14 -63 -36 -72 -38 -14 -55 -7
-55 24 0 17 -2 30 -5 30 -13 0 -55 -33 -55 -43 0 -6 -7 -19 -17 -29 -15 -17
-15 -18 0 -18 26 0 20 -37 -8 -56 -17 -11 -25 -25 -25 -45 0 -27 -3 -29 -39
-29 -22 0 -41 5 -43 12 -4 10 -13 10 -43 1 -47 -15 -65 -4 -65 39 0 46 -29 88
-62 88 -15 0 -30 -4 -33 -10 -8 -13 -51 -13 -74 0 -14 7 -25 4 -43 -13 -43
-38 -68 -49 -83 -37 -9 8 -16 5 -28 -13 -8 -12 -37 -34 -63 -47 -27 -14 -52
-29 -56 -35 -4 -5 -23 -8 -42 -7 -19 2 -48 -4 -64 -12 -33 -17 -77 -82 -61
-91 5 -4 9 -13 9 -21 0 -18 -56 -19 -63 -1 -3 6 -6 -15 -6 -47 -1 -47 -6 -65
-23 -83 -18 -19 -19 -26 -10 -45 29 -55 49 -82 66 -88 16 -5 16 -7 2 -19 -20
-17 -21 -51 -1 -77 9 -12 14 -43 15 -86 0 -44 4 -68 13 -71 10 -4 10 -7 0 -18
-7 -7 -13 -28 -13 -46 0 -31 2 -33 35 -33 35 0 35 0 35 -43 0 -35 4 -46 23
-55 25 -12 78 -28 120 -37 35 -7 44 -30 22 -55 -17 -19 -17 -20 3 -20 11 0 28
-10 36 -22 13 -18 18 -19 30 -8 9 7 13 16 10 22 -3 5 22 8 61 6 66 -2 68 -3
93 -41 28 -42 67 -67 105 -67 13 0 37 -15 57 -35 22 -22 43 -35 60 -35 14 0
32 -6 39 -12 11 -10 14 -10 18 0 3 6 12 12 22 12 9 0 22 5 28 11 14 14 32 4
43 -25 7 -16 9 -17 9 -4 1 27 39 43 67 27 19 -10 27 -10 36 -1 20 20 28 14 28
-19 0 -29 2 -31 28 -24 15 3 39 17 53 31 25 24 25 24 45 4 58 -60 108 -95 131
-92 13 2 31 -2 39 -9 8 -6 16 -10 19 -8 2 3 8 41 14 86 11 86 25 120 52 128 9
3 22 19 29 36 18 43 66 80 95 73 41 -10 73 59 39 86 -8 7 -14 23 -12 36 3 24
-48 114 -64 114 -10 0 -3 188 7 198 3 3 -9 13 -25 23 -17 11 -30 23 -30 28 0
5 16 19 36 31 53 34 67 61 62 125 -3 37 -13 66 -31 93 -15 21 -27 51 -27 68
-1 16 -7 40 -15 54 -8 14 -14 39 -15 56 0 35 -19 55 -73 78 -41 17 -58 47 -50
90 7 36 -23 103 -51 110 -13 3 -31 -2 -48 -14 -37 -27 -109 -27 -125 -1 -12
19 -50 25 -59 10z"/>
<path d="M4790 4762 c0 -5 10 -18 23 -30 23 -22 57 -30 57 -13 0 13 -26 32
-33 24 -4 -3 -7 1 -7 10 0 10 -8 17 -20 17 -11 0 -20 -4 -20 -8z"/>
<path d="M4910 4735 c0 -9 6 -12 15 -9 8 4 15 10 15 15 0 5 -7 9 -15 9 -8 0
-15 -7 -15 -15z"/>
<path d="M4050 4506 c-24 -22 -60 -30 -60 -13 0 20 -73 6 -109 -20 -23 -18
-26 -27 -29 -94 -3 -86 -18 -109 -69 -109 -34 0 -34 0 -30 40 2 24 13 50 27
65 19 20 21 27 10 40 -29 35 -70 6 -70 -48 0 -14 -7 -30 -15 -37 -8 -7 -15
-19 -15 -26 0 -8 -4 -14 -9 -14 -5 0 -13 -9 -16 -20 -4 -13 -18 -23 -36 -27
-26 -5 -43 -33 -19 -33 21 0 9 -37 -15 -48 -22 -10 -25 -9 -25 8 0 11 -4 20
-10 20 -5 0 -10 -15 -10 -34 0 -26 5 -36 20 -41 11 -3 20 -10 20 -15 0 -5 14
-11 30 -15 17 -4 37 -14 46 -22 11 -12 18 -13 27 -4 21 21 44 11 96 -44 64
-68 79 -65 83 18 l3 62 59 23 c42 17 62 20 69 13 6 -6 32 -11 59 -11 46 0 47
1 54 37 4 21 2 43 -4 54 -8 12 -8 20 -2 24 6 3 10 29 10 56 0 35 4 51 15 55 9
4 15 19 15 38 0 18 5 37 11 43 7 7 7 13 1 17 -6 3 -13 2 -17 -4 -3 -5 -15 -10
-26 -10 -16 0 -19 7 -19 45 0 37 -3 45 -18 45 -10 0 -24 -6 -32 -14z"/>
<path d="M8262 4258 c-19 -19 -89 -37 -100 -26 -15 15 -52 -9 -52 -34 0 -20
-3 -21 -93 -14 -132 10 -129 14 -128 -193 0 -25 -2 -47 -4 -50 -3 -2 -19 8
-35 24 -27 26 -33 28 -51 17 -16 -10 -28 -10 -55 -2 -45 15 -70 6 -84 -33
l-11 -32 -20 38 c-22 42 -35 47 -44 17 -3 -11 -10 -20 -14 -20 -4 0 -16 9 -26
20 -19 21 -60 27 -70 10 -8 -13 -92 -13 -99 -1 -4 5 -25 12 -49 16 -23 4 -69
19 -102 33 -64 29 -98 31 -250 17 -79 -7 -80 -7 -121 -53 -37 -41 -43 -45 -58
-33 -22 19 -28 10 -31 -46 -1 -37 3 -51 17 -61 10 -7 18 -18 18 -23 0 -6 11
-25 25 -43 18 -24 22 -35 14 -43 -9 -9 -6 -19 9 -38 17 -21 19 -31 11 -53 -16
-41 -29 -52 -64 -52 -34 0 -76 -37 -90 -78 -3 -11 -16 -24 -29 -30 -25 -11
-42 -61 -50 -147 -6 -66 -15 -92 -32 -99 -8 -3 -14 -13 -14 -22 0 -9 -7 -22
-16 -29 -10 -7 -18 -29 -19 -53 -3 -47 -2 -47 99 -42 34 1 69 -6 118 -26 63
-25 71 -26 79 -12 14 25 81 33 118 13 33 -16 55 -11 81 19 8 11 30 16 66 16
48 0 56 3 66 25 15 34 69 51 109 35 38 -16 83 -7 121 25 30 25 108 36 108 15
0 -5 10 -10 22 -10 12 0 32 -10 45 -21 18 -18 25 -20 37 -9 13 10 22 8 49 -9
19 -11 37 -18 40 -15 4 4 20 1 37 -6 21 -9 30 -19 30 -36 0 -13 5 -24 10 -24
6 0 10 -25 10 -55 0 -47 3 -55 19 -55 21 0 48 -35 53 -71 2 -16 10 -25 26 -27
15 -2 22 -10 22 -24 0 -20 64 -101 73 -92 3 3 18 -7 33 -23 l29 -28 5 40 c10
71 39 102 67 74 12 -12 60 8 82 35 16 19 47 21 54 4 3 -7 6 15 6 50 1 35 4 61
9 58 4 -2 18 -26 31 -53 13 -26 28 -56 33 -66 11 -22 4 -32 -20 -32 -11 0 -18
-10 -20 -27 -3 -24 3 -31 43 -50 43 -21 47 -21 73 -6 24 15 63 35 116 61 19 9
36 -4 36 -30 0 -27 22 -11 38 27 18 41 30 48 50 28 9 -9 15 -9 24 0 7 7 33 12
59 12 37 0 49 -4 52 -17 4 -17 5 -17 6 0 0 9 7 17 15 17 8 0 17 14 21 30 8 37
65 74 65 42 0 -34 13 -32 61 11 115 101 129 108 171 86 22 -12 49 3 29 15 -17
11 -13 24 8 31 11 3 29 22 40 41 11 19 32 39 46 44 14 5 28 16 31 25 5 11 11
12 25 4 18 -9 19 -5 19 56 l0 66 36 15 c26 11 40 26 54 59 l19 45 64 0 64 0
11 39 c7 21 12 51 12 66 0 33 -36 95 -56 95 -23 0 -16 32 13 62 l27 28 -26 0
c-28 0 -53 23 -43 40 4 6 24 22 46 36 31 19 39 30 39 54 0 30 -13 40 -26 19
-6 -10 -23 -9 -116 7 -27 4 -38 3 -38 -6 0 -10 -3 -10 -15 0 -8 7 -15 19 -15
26 0 20 -40 17 -62 -3 -15 -14 -23 -15 -37 -6 -10 7 -28 9 -40 6 -12 -3 -27 0
-34 6 -10 8 -22 7 -45 -1 -36 -14 -67 -2 -113 45 -35 34 -49 34 -83 -2 -25
-26 -36 -30 -78 -29 -27 1 -51 5 -54 10 -3 4 -27 8 -55 8 -39 0 -49 3 -49 16
0 40 -24 93 -42 96 -11 2 -27 17 -36 33 -9 17 -18 32 -20 34 -1 3 -8 -1 -14
-7 -7 -7 -40 -12 -75 -12 l-63 0 0 58 c0 49 -5 66 -29 100 -39 53 -47 57 -76
38 -23 -15 -28 -15 -55 -1 -35 18 -33 18 -48 3z"/>
<path d="M2658 4133 c6 -2 18 -2 25 0 6 3 1 5 -13 5 -14 0 -19 -2 -12 -5z"/>
<path d="M3381 4096 c-7 -9 -17 -13 -22 -10 -5 2 -20 -3 -34 -12 -17 -11 -25
-25 -25 -46 0 -37 27 -78 51 -78 12 0 19 -7 19 -19 0 -13 8 -21 22 -23 15 -2
24 -13 30 -35 7 -28 13 -32 46 -35 34 -3 37 -6 40 -36 2 -18 -2 -40 -8 -47 -7
-8 -9 -19 -5 -25 9 -15 42 -12 49 5 10 26 25 16 45 -28 25 -56 99 -129 126
-125 18 3 20 9 17 59 -3 53 -2 57 32 87 20 17 36 38 36 47 0 8 5 15 10 15 6 0
10 9 10 20 0 11 -5 20 -10 20 -7 0 -7 6 0 19 5 11 10 42 10 68 0 45 -4 52 -50
98 -47 46 -50 48 -68 32 -22 -20 -42 -22 -42 -4 0 8 -19 20 -42 26 -39 12 -43
11 -59 -8 -22 -26 -109 -31 -109 -6 0 9 -11 20 -24 25 -13 5 -26 14 -28 20 -2
8 -8 7 -17 -4z"/>
<path d="M3142 4048 c-7 -7 -12 -22 -12 -34 0 -13 -4 -26 -10 -29 -5 -3 -10
-28 -10 -56 0 -42 -3 -49 -20 -49 -11 0 -28 -4 -38 -9 -64 -35 -141 -61 -181
-61 l-46 -1 48 -25 c43 -22 61 -44 37 -44 -5 0 -10 -7 -10 -15 0 -14 -3 -14
-30 0 -16 8 -49 15 -75 15 -25 0 -45 5 -45 10 0 6 -9 10 -20 10 -12 0 -40 10
-62 21 -28 14 -43 18 -46 10 -2 -7 -13 -6 -33 5 -23 11 -28 18 -20 28 7 9 7
16 0 23 -6 6 -9 19 -7 29 2 12 -5 24 -20 32 -32 16 -42 15 -42 -3 0 -8 -4 -15
-10 -15 -14 0 -12 -84 2 -98 10 -10 10 -17 0 -32 -15 -24 -16 -66 -2 -75 18
-11 10 -35 -12 -35 -26 0 -91 22 -99 33 -3 5 -36 9 -73 9 l-66 0 0 34 c0 30
-3 34 -25 34 -15 0 -25 6 -25 14 0 16 -34 31 -50 21 -5 -3 -10 -13 -10 -21 0
-9 -11 -14 -30 -14 -16 0 -30 5 -30 10 0 6 -15 10 -33 10 -18 0 -38 5 -45 12
-8 8 -15 8 -24 1 -7 -6 -25 -10 -40 -9 -16 1 -28 -2 -28 -6 0 -4 14 -8 30 -8
26 0 30 -4 30 -26 0 -30 -18 -51 -48 -56 -20 -3 -20 -3 3 -32 19 -24 31 -30
59 -29 24 1 36 -3 36 -13 0 -7 11 -21 25 -31 50 -36 63 -49 66 -68 3 -16 15
-21 54 -26 28 -3 46 -7 41 -7 -5 -1 -2 -10 8 -21 9 -10 14 -25 10 -35 -8 -21
21 -45 56 -47 24 -2 24 -2 3 -6 -23 -4 -33 -23 -13 -23 18 0 10 -26 -15 -50
-14 -13 -25 -30 -25 -37 0 -8 11 -25 25 -39 14 -14 25 -31 25 -37 0 -22 24
-65 43 -77 14 -8 22 -8 33 1 13 11 15 6 13 -30 -2 -23 -7 -45 -11 -47 -4 -3
-8 -21 -8 -40 0 -19 -6 -44 -12 -55 -10 -17 -10 -23 0 -26 6 -3 12 -15 12 -28
0 -13 5 -27 10 -30 6 -3 10 -31 10 -62 0 -48 -2 -54 -15 -43 -8 7 -15 20 -15
29 0 9 -8 32 -18 51 -35 68 -37 69 -44 10 -4 -30 -10 -71 -14 -91 -4 -23 -2
-39 6 -44 17 -11 -8 -35 -36 -35 -19 0 -24 -5 -24 -24 0 -13 -7 -29 -15 -36
-8 -7 -15 -19 -15 -26 0 -8 -4 -14 -10 -14 -5 0 -10 -9 -10 -20 0 -11 -7 -20
-16 -20 -8 0 -21 -15 -29 -32 -7 -18 -29 -48 -49 -67 l-35 -34 19 -25 c11 -14
20 -33 20 -43 0 -13 7 -19 23 -19 13 0 34 -11 47 -25 13 -14 29 -25 35 -25 7
0 17 -11 23 -25 8 -16 20 -25 35 -25 13 0 36 -13 52 -30 16 -17 34 -30 42 -30
16 0 86 -32 95 -44 3 -5 28 -6 56 -3 60 7 80 -5 84 -53 3 -38 25 -50 62 -32
44 21 59 22 77 6 11 -10 19 -28 19 -41 0 -17 6 -23 23 -23 13 0 28 -5 34 -11
6 -6 32 -11 59 -12 l49 -1 -2 53 c-1 65 20 119 51 131 13 5 27 14 31 19 3 6
23 11 44 11 25 0 44 7 56 20 10 11 28 20 40 20 12 0 30 -9 40 -20 11 -12 31
-20 52 -20 21 0 36 -6 39 -15 8 -19 38 -19 54 0 19 23 40 18 40 -10 0 -18 5
-25 20 -25 11 0 23 -7 26 -15 4 -8 9 -13 14 -10 9 5 49 -36 64 -67 9 -19 21
-24 65 -26 59 -3 81 9 81 44 0 21 5 24 35 24 25 0 35 4 35 16 0 11 8 15 29 12
33 -3 63 19 85 63 17 34 13 39 -34 39 -30 0 -39 5 -48 25 -15 32 -16 131 -2
140 17 10 11 55 -7 62 -29 10 -53 35 -53 55 0 14 8 18 38 18 29 0 45 7 66 29
l29 30 -22 41 c-25 48 -26 60 -6 60 17 0 21 35 5 45 -5 3 -10 24 -10 46 0 32
3 39 20 39 22 0 25 12 10 41 -10 18 -14 16 -54 -26 -51 -53 -69 -56 -86 -16
-13 33 -6 54 30 86 12 11 28 34 35 52 12 27 19 33 45 33 45 0 66 14 83 59 20
50 33 58 59 35 19 -18 20 -18 33 -1 6 9 17 17 24 17 6 0 11 11 11 24 0 14 5
28 10 31 6 3 10 30 10 60 0 35 4 55 14 58 7 3 16 19 19 36 4 17 23 48 42 70
40 44 39 61 -5 61 -16 0 -32 5 -35 10 -3 6 -18 10 -32 10 -41 0 -89 39 -114
92 -12 27 -29 48 -37 48 -9 0 -31 5 -49 12 -27 10 -38 10 -53 0 -25 -15 -30
-15 -30 1 0 15 -41 57 -56 57 -5 0 -20 25 -34 55 -23 50 -40 70 -40 45 0 -16
-56 -12 -70 5 -10 12 -10 19 -2 27 7 7 12 27 12 45 0 31 -2 33 -34 33 -28 0
-36 5 -46 30 -8 18 -20 30 -31 30 -14 0 -19 7 -19 25 0 19 -5 25 -22 25 -27 0
-48 38 -48 87 l0 33 -68 0 c-40 0 -73 -5 -80 -12z"/>
<path d="M5173 3738 c-26 -23 -66 -49 -88 -59 -23 -10 -44 -21 -48 -25 -12
-12 -80 -34 -107 -34 -15 0 -31 5 -37 11 -8 8 -17 8 -31 0 -27 -15 -30 -14
-35 7 -4 13 -5 11 -6 -5 0 -13 8 -32 19 -43 11 -11 20 -25 20 -31 0 -6 11 -24
25 -41 16 -19 25 -42 25 -63 0 -19 5 -37 10 -40 6 -4 24 -33 41 -66 16 -33 38
-63 49 -67 10 -4 32 -25 49 -46 40 -50 72 -66 132 -66 45 0 51 3 60 27 6 15
16 31 22 35 20 13 92 9 113 -7 10 -8 33 -15 50 -15 21 0 39 -9 57 -30 15 -16
39 -32 54 -36 16 -3 32 -7 37 -8 12 -3 35 -76 29 -92 -3 -8 16 -27 50 -48 31
-20 58 -40 62 -46 8 -12 115 -13 147 -1 13 5 30 21 37 35 13 24 19 26 81 26
71 0 66 -2 172 80 15 12 33 33 40 48 13 26 17 27 101 30 76 2 90 0 109 -18 25
-23 28 -23 62 -10 16 6 27 6 31 0 11 -18 25 -10 25 15 0 14 8 33 18 43 10 10
17 23 15 29 -2 5 3 16 11 22 23 19 8 41 -28 41 -24 0 -41 9 -66 35 -19 19 -40
35 -47 35 -7 0 -17 9 -24 21 -11 21 -11 21 -32 1 -20 -17 -77 -42 -98 -42 -5
0 -9 11 -9 24 0 19 -6 24 -36 29 -41 7 -64 0 -64 -18 0 -7 -6 -18 -14 -24 -12
-10 -15 -7 -18 16 -2 23 -7 28 -27 25 -14 -1 -33 -10 -43 -19 -17 -15 -19 -15
-36 0 -10 10 -27 17 -38 17 -11 0 -35 16 -54 35 -23 22 -45 34 -62 35 -42 0
-70 17 -101 61 -21 29 -34 38 -47 34 -10 -3 -21 -1 -25 5 -3 5 -17 10 -31 10
-14 0 -23 -4 -20 -9 3 -5 -3 -11 -14 -14 -11 -3 -24 -15 -28 -27 -8 -22 -9
-21 -30 14 -16 26 -28 36 -47 36 -30 0 -32 11 -5 35 23 21 18 35 -15 35 -13 0
-39 6 -57 14 -18 8 -48 21 -65 28 -30 12 -33 17 -33 55 0 35 -3 43 -18 43 -11
0 -27 -9 -37 -20 -10 -11 -26 -20 -35 -20 -10 0 -20 9 -23 20 -7 29 -20 25
-74 -22z"/>
<path d="M3760 3705 c-17 -18 -21 -31 -16 -52 4 -15 7 -38 7 -50 -1 -17 8 -24
37 -33 58 -16 62 -14 62 28 0 28 -7 45 -25 62 -14 13 -25 31 -25 41 0 29 -15
30 -40 4z"/>
<path d="M5260 3187 c-13 -29 -20 -32 -63 -35 -31 -2 -57 2 -72 12 -20 13 -24
13 -29 1 -3 -8 -17 -15 -31 -15 -17 0 -38 -12 -59 -35 -24 -26 -42 -35 -65
-35 -27 0 -31 -4 -31 -25 0 -14 7 -37 16 -50 9 -13 13 -28 10 -33 -3 -5 1 -18
9 -28 20 -27 18 -57 -4 -76 -18 -15 -20 -15 -35 1 -9 10 -16 27 -16 39 0 24
-38 41 -50 22 -5 -9 -9 -9 -14 -1 -9 14 -113 15 -121 1 -8 -13 -58 -13 -72 1
-8 8 -13 8 -17 0 -13 -20 -63 -12 -80 12 -15 21 -16 21 -30 3 -22 -28 -67 -49
-80 -36 -5 5 -17 10 -25 10 -8 0 -28 12 -43 27 -27 25 -29 26 -45 10 -16 -16
-16 -18 6 -33 18 -13 22 -23 17 -44 -8 -42 19 -60 87 -60 50 0 57 -2 57 -20 0
-16 7 -20 30 -20 17 0 39 9 50 20 22 22 45 26 55 10 3 -5 32 -10 64 -10 50 0
61 -4 84 -28 15 -15 27 -33 27 -38 0 -26 38 -44 91 -44 33 0 63 -6 76 -15 16
-11 34 -14 63 -9 31 5 44 3 53 -9 26 -32 130 -23 160 15 9 13 34 17 102 19 99
3 121 10 130 38 3 10 14 21 24 24 12 3 21 17 26 38 3 19 11 44 18 57 8 18 8
28 -1 42 -20 32 -14 47 18 52 17 3 30 0 30 -6 0 -6 8 -3 17 6 15 16 15 20 0
59 -11 28 -13 45 -7 49 13 8 1 71 -14 75 -6 2 -23 6 -39 9 -15 4 -39 20 -54
36 -19 22 -35 30 -59 30 -18 0 -36 5 -39 10 -3 6 -30 10 -58 10 -49 0 -53 -2
-67 -33z"/>
<path d="M7424 3191 c-11 -10 -33 -25 -48 -33 l-28 -15 49 -35 c47 -34 49 -37
45 -76 -4 -38 -2 -42 17 -42 39 0 81 -28 81 -54 0 -22 58 -86 78 -86 12 0 32
-76 32 -120 0 -22 -4 -40 -10 -40 -5 0 -10 -9 -10 -19 0 -11 5 -23 10 -26 6
-3 10 -31 10 -61 0 -74 13 -98 51 -90 15 3 31 1 34 -4 9 -14 45 -12 45 1 0 8
15 10 45 7 33 -4 45 -2 45 8 0 7 -4 16 -10 19 -14 9 -12 51 3 62 6 5 32 10 56
11 24 1 49 6 55 12 5 5 21 10 34 10 19 0 23 5 20 23 -2 15 -17 28 -45 41 -39
17 -59 46 -33 46 20 0 9 27 -25 60 -19 19 -35 42 -35 52 0 11 -7 18 -20 18
-15 0 -20 7 -20 28 0 34 -18 59 -45 64 -17 3 -20 12 -23 61 -2 31 -7 57 -12
57 -6 0 -10 8 -10 19 0 24 -23 43 -43 35 -9 -3 -30 4 -48 17 -27 19 -35 20
-51 10 -17 -11 -24 -9 -47 13 -15 14 -37 26 -49 26 -12 0 -22 5 -22 10 0 17
-55 11 -76 -9z"/>
<path d="M7224 3157 c-18 -5 -37 -20 -43 -33 -9 -21 -18 -24 -62 -24 -40 0
-58 -5 -82 -26 -23 -19 -37 -24 -56 -19 -14 4 -47 9 -73 12 -38 4 -49 2 -54
-11 -8 -22 -47 -20 -96 5 -41 21 -138 32 -153 17 -4 -4 0 -17 9 -30 9 -12 16
-29 16 -36 0 -14 -75 -86 -83 -80 -13 8 -57 -48 -57 -73 0 -14 -7 -32 -15 -39
-8 -7 -15 -29 -15 -49 0 -38 -31 -81 -58 -81 -7 0 -12 -6 -12 -13 0 -7 -21
-33 -46 -57 -38 -37 -74 -92 -74 -114 0 -2 9 -6 20 -9 17 -4 20 -14 20 -55 0
-28 5 -54 10 -57 6 -3 10 -15 10 -26 0 -12 7 -19 18 -19 10 0 30 -13 45 -28
28 -29 35 -56 17 -67 -5 -3 -10 -15 -10 -26 0 -16 7 -19 44 -19 28 0 48 -6 57
-16 25 -30 51 -32 87 -7 33 22 36 22 54 6 16 -15 17 -18 4 -31 -13 -13 -12
-17 7 -32 11 -10 22 -28 22 -41 2 -42 25 -107 39 -112 8 -3 90 -9 182 -13 93
-3 180 -12 194 -18 30 -14 69 -10 76 9 3 8 18 17 34 20 24 5 75 53 120 111 15
20 109 38 133 26 12 -6 69 -16 126 -22 72 -7 116 -17 139 -31 19 -11 35 -19
36 -17 18 30 25 63 16 72 -16 16 -12 87 7 108 15 17 15 18 0 18 -20 0 -21 13
-4 61 18 53 36 72 53 58 8 -6 14 -22 14 -35 0 -33 11 -30 48 12 38 43 41 83
10 117 -44 47 -88 59 -115 31 -9 -9 -22 -12 -32 -8 -9 4 -31 8 -49 8 -46 2
-62 27 -62 97 0 32 -4 61 -10 64 -5 3 -10 22 -10 41 0 19 5 34 10 34 6 0 10
11 10 25 0 32 -22 105 -32 105 -20 0 -78 64 -78 86 0 25 -25 43 -75 54 -28 6
-30 9 -27 47 3 39 1 43 -45 75 -70 48 -121 66 -159 55z"/>
<path d="M6222 3148 c-7 -7 -12 -17 -12 -24 0 -7 -16 -25 -35 -40 -103 -86
-129 -98 -192 -88 -42 6 -44 5 -55 -23 -9 -24 -20 -31 -62 -41 -81 -19 -120
-15 -154 13 -17 14 -33 25 -38 25 -4 0 -18 10 -31 22 -27 25 -37 20 -25 -13
13 -35 -13 -73 -39 -58 -11 6 -26 6 -35 1 -14 -8 -14 -10 0 -21 21 -17 21 -71
1 -71 -9 0 -15 -10 -15 -26 0 -33 -17 -64 -35 -64 -8 0 -15 -7 -15 -15 0 -8 8
-15 18 -15 23 0 82 -73 82 -102 0 -28 77 -108 103 -108 9 0 17 -6 17 -13 0
-17 45 -34 105 -40 46 -5 53 -2 87 29 21 19 49 34 62 34 13 0 46 11 73 25 43
23 51 24 81 13 27 -11 34 -10 41 1 7 10 23 12 62 9 l52 -5 56 60 c31 33 59 68
63 78 4 11 14 19 21 19 24 0 47 35 47 73 0 20 5 39 10 42 6 3 10 19 10 34 0
26 44 81 66 81 19 0 85 70 78 83 -25 41 -50 67 -66 67 -10 0 -18 5 -18 10 0
19 -46 33 -69 21 -22 -12 -57 1 -74 27 -11 16 -149 16 -165 0z"/>
<path d="M3837 3023 c-2 -5 -7 -20 -11 -35 -8 -33 -44 -59 -94 -67 -26 -5 -38
-12 -41 -26 -2 -11 -16 -35 -32 -53 -30 -34 -35 -57 -20 -81 7 -11 14 -9 35
12 14 14 26 31 26 37 0 5 7 10 15 10 8 0 15 5 15 10 0 18 29 11 40 -9 17 -33
12 -61 -10 -61 -23 0 -26 -10 -8 -28 9 -9 9 -12 0 -12 -18 0 -14 -25 8 -45 17
-15 25 -16 66 -6 33 8 50 9 57 2 15 -15 74 -14 84 2 4 6 13 26 18 42 18 55 85
39 85 -20 0 -12 11 -32 25 -45 l24 -23 35 29 c22 19 35 40 37 59 5 37 39 42
54 8 7 -17 18 -23 42 -23 17 0 39 -3 48 -6 13 -5 15 -2 11 17 -7 30 38 69 57
50 18 -18 27 -13 27 19 0 28 -2 30 -38 30 -26 0 -45 7 -56 19 -10 11 -24 17
-32 14 -37 -14 -61 60 -28 88 14 11 13 14 -10 26 -14 8 -26 18 -26 23 0 6 -9
10 -19 10 -11 0 -21 5 -23 10 -2 6 -45 12 -98 14 -52 3 -115 6 -139 8 -28 2
-45 -1 -48 -9 -7 -17 -28 -16 -43 2 -14 16 -26 19 -33 8z"/>
<path d="M4280 2905 c-17 -20 -6 -45 20 -45 17 0 21 5 18 27 -4 31 -20 40 -38
18z"/>
<path d="M990 2841 c-8 -5 -36 -8 -63 -7 -32 1 -46 -2 -43 -10 3 -7 -6 -22
-20 -35 l-24 -23 -16 22 c-8 12 -25 22 -38 22 -12 0 -27 5 -34 12 -7 7 -12 8
-12 3 0 -6 -4 -16 -9 -24 -7 -12 -13 -12 -24 -3 -21 18 -55 -21 -37 -43 7 -8
16 -12 21 -9 5 3 9 -7 9 -21 0 -15 4 -24 10 -20 13 8 13 -21 -1 -47 -6 -11
-12 -37 -13 -57 -1 -33 -3 -36 -31 -36 -23 0 -31 -5 -33 -22 -3 -20 1 -23 27
-23 22 0 31 5 31 16 0 9 3 14 8 12 4 -2 24 -10 45 -18 34 -13 38 -18 35 -45
-3 -28 0 -30 32 -33 19 -2 39 -8 45 -13 5 -5 17 -9 26 -9 9 0 22 -6 28 -13 6
-8 23 -12 40 -9 16 2 32 -1 35 -7 4 -6 15 -11 25 -11 29 0 47 -28 33 -51 -18
-28 -15 -43 10 -54 13 -6 24 -18 26 -28 4 -20 -24 -46 -49 -47 -9 0 -19 -7
-23 -15 -3 -8 -15 -15 -26 -15 -11 0 -20 -4 -20 -10 0 -5 -6 -10 -14 -10 -23
0 -76 -117 -76 -167 0 -37 -3 -43 -21 -43 -26 0 -52 -30 -82 -93 -21 -46 -24
-48 -54 -42 -31 6 -33 4 -33 -23 0 -15 7 -37 15 -48 23 -30 18 -70 -10 -92
-14 -11 -25 -27 -25 -36 0 -9 -8 -16 -19 -16 -27 0 -48 -60 -26 -76 25 -18 18
-57 -12 -71 -15 -7 -33 -13 -41 -13 -30 0 -62 -56 -62 -110 0 -32 4 -40 18
-40 19 0 92 -69 92 -87 0 -6 16 -21 36 -32 29 -18 35 -26 31 -46 -3 -17 0 -25
10 -25 11 0 13 -5 8 -17 -4 -10 -10 -28 -12 -40 -3 -13 -12 -23 -20 -23 -26 0
-12 -63 17 -77 14 -7 35 -25 48 -40 22 -27 22 -27 28 -7 6 23 42 44 75 44 10
0 28 5 39 12 15 10 26 10 53 0 46 -16 55 -15 62 8 9 27 73 27 108 0 14 -11 36
-20 49 -20 17 0 29 -8 36 -25 11 -23 17 -25 82 -25 39 0 81 -5 93 -11 16 -9
22 -9 25 0 6 18 58 13 97 -9 42 -24 55 -19 55 19 0 20 7 31 25 39 14 6 25 16
25 22 0 5 10 10 23 10 13 0 28 5 34 11 7 7 35 10 75 7 49 -4 69 -1 95 14 20
12 30 25 26 34 -7 18 14 43 44 55 13 5 23 15 23 23 0 21 51 46 93 46 45 0 71
28 58 63 -5 14 -15 28 -20 32 -6 3 -11 39 -11 80 0 66 3 77 25 100 14 13 38
31 53 39 15 8 36 23 46 35 11 12 24 21 29 21 6 0 34 21 63 48 29 26 67 58 83
72 17 14 31 30 31 37 0 24 40 33 147 33 97 0 169 13 189 33 4 4 22 7 39 7 52
0 116 40 142 90 37 69 33 80 -30 80 -32 0 -61 6 -76 16 -16 12 -34 15 -62 10
-51 -8 -87 1 -94 25 -4 10 -14 19 -24 19 -26 0 -41 20 -41 57 0 39 -23 55 -59
42 -26 -10 -81 -3 -81 10 0 5 -24 16 -54 25 -30 10 -66 30 -81 46 -16 17 -39
30 -52 30 -15 0 -27 9 -35 25 -6 14 -16 25 -23 25 -6 0 -22 11 -35 25 -13 14
-34 25 -47 25 -17 0 -23 6 -23 21 0 33 -72 99 -107 99 -17 0 -42 9 -56 20 -16
12 -40 20 -65 20 -54 0 -70 7 -88 41 -10 20 -22 29 -38 29 -13 0 -29 6 -35 14
-7 8 -30 13 -57 13 -24 0 -50 5 -56 11 -7 7 -23 12 -37 12 -14 0 -36 10 -50
23 -15 13 -46 29 -71 36 -68 20 -90 30 -90 41 0 5 -11 10 -24 10 -13 0 -29 7
-36 15 -7 8 -28 15 -48 15 -22 0 -44 8 -58 21 -18 17 -26 19 -44 9 -12 -6 -23
-10 -24 -8 -20 27 -46 79 -46 92 0 18 -8 20 -30 7z"/>
<path d="M4440 2774 c0 -36 -1 -36 -31 -30 -39 8 -65 -9 -47 -31 16 -20 -16
-53 -34 -35 -7 7 -29 12 -50 12 -26 0 -38 4 -38 14 0 7 -7 19 -15 26 -13 11
-15 7 -15 -24 0 -24 -5 -36 -14 -36 -8 0 -27 -15 -44 -34 l-30 -34 -35 36
c-21 22 -37 49 -39 67 -5 46 -36 40 -53 -9 -8 -21 -20 -43 -27 -47 -20 -13
-62 -11 -83 5 -16 11 -26 12 -62 1 -23 -7 -44 -10 -47 -8 -3 3 -13 -2 -22 -12
-16 -15 -16 -19 5 -57 l22 -41 -38 -39 c-29 -30 -45 -38 -72 -38 -38 0 -34
-12 11 -34 25 -13 38 -70 19 -89 -14 -14 -14 -92 -1 -118 7 -13 21 -19 44 -19
42 0 62 -21 47 -49 -16 -28 -15 -29 34 -21 45 7 85 33 85 55 0 6 10 21 23 33
29 27 107 31 127 7 7 -9 20 -13 28 -10 8 3 29 -4 46 -14 32 -20 32 -20 44 -1
8 13 23 20 43 20 29 0 30 -1 15 -22 -14 -20 -14 -24 0 -39 11 -12 12 -19 4
-24 -8 -5 -5 -14 9 -29 11 -12 30 -60 42 -111 13 -50 31 -101 40 -115 9 -14
25 -46 35 -72 11 -27 24 -48 31 -48 6 0 24 -16 40 -36 52 -66 297 -314 310
-314 7 0 19 -11 25 -25 7 -16 19 -25 34 -25 13 0 28 -9 34 -21 8 -15 15 -17
24 -10 9 8 28 -5 71 -49 33 -33 64 -60 70 -60 7 0 22 -11 34 -24 13 -14 33
-26 45 -28 18 -3 21 -11 24 -53 3 -56 28 -84 74 -85 67 0 95 -34 144 -174 36
-103 29 -156 -21 -156 -23 0 -25 -4 -25 -44 0 -33 -6 -50 -26 -71 -20 -22 -24
-33 -17 -44 22 -34 72 -26 121 19 18 16 37 30 43 30 5 0 9 17 9 38 0 49 48 99
100 104 l35 3 3 60 c2 32 0 70 -3 83 -5 21 -10 23 -40 18 -28 -6 -36 -3 -45
14 -18 33 -15 111 4 122 9 5 16 19 16 32 0 27 38 66 64 66 11 0 29 -11 42 -25
19 -21 32 -25 79 -25 48 0 55 -2 55 -20 0 -11 5 -30 12 -43 6 -12 14 -29 18
-37 11 -22 49 -24 65 -3 8 10 15 39 15 65 0 42 -3 49 -29 62 -16 9 -31 26 -35
38 -7 29 -64 68 -98 68 -14 0 -42 14 -63 30 -21 17 -44 30 -51 30 -7 0 -29 14
-47 30 -23 20 -45 30 -66 30 -17 0 -45 9 -63 20 -18 11 -41 20 -50 20 -29 0
-21 17 17 34 26 13 35 23 35 41 0 31 -46 45 -148 45 -82 0 -76 -4 -170 112
-23 29 -56 69 -72 89 -31 37 -38 77 -19 96 9 9 -4 49 -42 125 -5 10 -9 27 -9
38 0 11 -8 23 -17 26 -10 3 -34 14 -54 25 -20 10 -44 19 -52 19 -33 0 -63 22
-78 58 -37 83 -40 95 -29 106 5 5 10 19 10 30 0 11 12 32 26 47 l25 27 -36 35
-37 36 26 16 c14 10 26 26 26 36 0 16 8 19 53 19 51 0 107 17 107 33 0 4 13 7
29 7 20 0 31 -6 34 -17 4 -17 5 -17 6 0 0 9 6 17 11 17 16 0 12 36 -6 51 -15
12 -14 15 6 31 18 14 20 23 14 55 -9 51 -28 62 -98 63 -51 0 -64 4 -88 27 -15
15 -28 32 -28 38 0 6 -10 21 -23 33 -18 17 -36 22 -78 22 -30 0 -60 5 -66 11
-8 8 -17 5 -32 -10 -39 -39 -101 -40 -101 -1 0 11 -7 20 -15 20 -11 0 -15 -11
-15 -36z"/>
<path d="M8621 2737 c-1 -32 -6 -41 -36 -58 -19 -12 -35 -27 -35 -35 0 -9 -11
-14 -30 -14 -20 0 -33 -6 -37 -17 -3 -10 -15 -26 -27 -36 -21 -17 -21 -17 5
-8 34 12 46 10 88 -17 26 -16 38 -18 48 -10 16 13 15 13 30 -31 9 -24 9 -38 2
-47 -7 -9 -7 -19 1 -34 9 -16 9 -25 1 -33 -19 -19 -12 -27 22 -27 18 0 38 -5
44 -11 7 -7 24 -8 42 -4 25 5 33 14 43 46 12 40 67 99 92 99 8 0 16 -7 20 -15
10 -26 24 -16 31 23 3 20 18 49 33 65 26 28 67 36 74 15 4 -12 70 -15 106 -4
23 8 30 30 12 41 -14 9 -12 42 3 48 6 3 -3 6 -21 6 -38 1 -78 -17 -106 -48
-28 -31 -111 -30 -119 0 -4 15 -11 20 -24 17 -10 -3 -25 -7 -33 -9 -8 -2 -19
6 -25 19 -6 13 -19 22 -32 22 -17 0 -23 6 -23 23 0 21 -35 67 -43 56 -2 -2
-11 -17 -21 -33 l-19 -29 -14 26 c-7 15 -20 27 -27 27 -8 0 -17 6 -19 13 -3 6
-6 -5 -6 -26z"/>
<path d="M5448 2689 c-9 -5 -60 -12 -112 -16 -82 -5 -96 -9 -102 -25 -4 -13
-12 -17 -24 -13 -10 3 -25 -2 -35 -11 -14 -14 -21 -15 -36 -6 -10 7 -28 12
-40 12 -12 0 -27 7 -34 16 -9 13 -18 15 -41 7 -27 -9 -29 -13 -26 -52 3 -31
-1 -46 -13 -55 -15 -11 -15 -13 -1 -25 9 -8 16 -20 16 -27 0 -17 12 -18 29 -1
10 10 12 2 9 -38 -3 -44 -7 -52 -31 -63 -21 -10 -26 -17 -18 -25 6 -6 11 -28
11 -48 0 -21 5 -41 10 -44 6 -3 10 -15 10 -26 0 -10 4 -19 9 -19 14 0 71 91
71 112 0 32 36 20 78 -26 45 -48 59 -83 43 -99 -6 -6 -11 -28 -11 -49 0 -31 4
-38 20 -38 11 0 20 -7 20 -15 0 -8 6 -15 13 -15 14 0 57 -41 57 -53 0 -4 -12
-7 -26 -7 l-26 0 26 -31 c14 -17 26 -35 26 -40 0 -5 6 -9 13 -9 16 0 57 -42
57 -58 0 -21 45 -36 68 -23 11 6 29 11 39 11 20 0 87 -66 116 -112 12 -19 26
-28 42 -28 14 0 25 -5 25 -10 0 -15 50 -60 67 -60 8 0 30 -16 50 -35 28 -27
45 -35 72 -35 43 0 57 -8 62 -35 2 -11 14 -24 27 -30 12 -5 22 -18 22 -27 0
-11 8 -18 19 -18 10 0 21 -7 25 -15 3 -8 12 -15 20 -15 11 0 16 15 18 62 l3
63 45 21 45 22 26 -24 c14 -13 36 -24 50 -24 21 0 27 -7 38 -46 11 -36 11 -51
3 -65 -15 -23 -16 -86 -2 -94 6 -3 10 -22 10 -41 0 -19 4 -34 9 -34 5 0 11
-12 13 -27 2 -23 7 -28 27 -25 13 1 29 9 36 18 10 14 12 14 24 0 16 -20 58
-20 91 -1 14 8 37 14 51 15 14 0 34 9 44 20 19 21 45 27 45 10 0 -20 43 -9 77
20 18 17 39 30 46 30 7 1 1 7 -12 14 -15 8 -20 16 -12 20 6 4 11 22 11 40 0
27 -9 42 -44 74 -24 22 -53 45 -65 51 -18 10 -21 20 -21 76 0 37 4 65 10 65 6
0 10 15 10 34 0 26 5 36 21 41 21 7 43 50 33 66 -3 5 -15 9 -27 9 -22 0 -27 8
-54 85 -6 17 -14 38 -18 48 -5 13 -2 17 12 17 30 0 76 54 68 79 -3 12 -13 21
-21 21 -17 0 -19 31 -3 47 23 23 -13 25 -44 3 l-30 -23 -41 21 c-24 13 -59 22
-83 22 -42 0 -43 1 -43 33 0 18 5 38 12 45 16 16 -27 62 -59 62 -18 0 -23 6
-23 24 0 13 -7 29 -15 36 -10 8 -15 30 -15 61 0 42 -3 49 -20 49 -17 0 -19 5
-14 24 5 23 2 25 -41 32 -28 4 -50 3 -54 -3 -11 -19 -49 -24 -71 -11 -18 11
-26 10 -60 -9 -21 -13 -50 -23 -64 -23 -16 0 -42 -14 -65 -35 -38 -34 -41 -35
-97 -29 -73 7 -96 18 -157 74 -27 25 -55 49 -63 53 -8 4 -14 19 -14 33 0 32
-59 104 -85 104 -11 -1 -28 -5 -37 -11z"/>
<path d="M704 2519 c-3 -5 -21 -9 -40 -9 -33 0 -34 -1 -34 -39 0 -22 -4 -43
-10 -46 -5 -3 -10 -23 -10 -44 0 -25 -7 -44 -20 -56 -11 -10 -20 -28 -20 -40
0 -12 -11 -32 -25 -45 -14 -13 -25 -34 -25 -46 0 -25 -45 -97 -79 -128 -12
-11 -21 -23 -21 -28 0 -5 -11 -26 -25 -48 -21 -33 -31 -40 -58 -40 -43 0 -57
-15 -57 -60 0 -24 -7 -43 -20 -55 -25 -23 -26 -55 -2 -55 10 0 30 -6 45 -12
38 -18 38 -80 1 -119 -15 -16 -26 -39 -26 -56 0 -49 -20 -101 -39 -106 -11 -3
-22 -13 -25 -24 -4 -15 -17 -43 -42 -95 -6 -13 33 -9 47 5 10 10 16 8 31 -10
10 -13 27 -23 38 -23 11 0 25 -7 32 -14 23 -29 77 -55 89 -43 8 8 11 8 11 -2
0 -8 10 -11 28 -9 25 3 27 7 30 55 2 29 9 56 17 63 8 7 15 17 15 22 0 16 27
38 47 38 18 1 63 32 63 45 0 4 -10 15 -22 25 -19 15 -21 21 -10 31 6 7 12 21
12 31 0 10 11 24 25 30 14 6 25 16 25 22 0 6 9 17 20 24 21 13 28 66 10 77 -9
6 -15 115 -6 115 2 0 16 -7 32 -15 28 -14 28 -14 45 23 10 21 27 46 38 56 12
11 21 25 21 32 0 7 10 14 23 16 18 2 23 10 25 43 2 22 9 54 17 70 7 17 19 43
24 59 6 15 20 30 31 33 11 3 20 12 20 19 0 8 10 14 25 14 14 0 25 5 25 10 0 6
7 10 15 10 8 0 24 8 35 17 14 13 17 20 8 30 -6 7 -17 13 -24 13 -16 0 -19 55
-4 65 16 10 1 25 -25 25 -13 0 -29 8 -34 18 -10 16 -12 16 -24 0 -13 -16 -15
-16 -37 7 -13 14 -31 25 -40 25 -9 0 -20 4 -26 9 -5 5 -25 11 -44 13 -31 3
-35 7 -38 33 -3 31 -46 63 -58 44z"/>
<path d="M9982 2410 c-18 -23 -30 -30 -57 -30 -24 0 -38 -6 -45 -19 -8 -16 -5
-21 22 -30 17 -6 41 -11 52 -11 12 0 28 -6 34 -12 10 -10 17 -10 32 0 24 15
60 16 60 2 0 -5 14 -10 30 -10 25 0 30 -4 30 -24 0 -21 5 -25 37 -28 34 -3 40
-8 59 -48 12 -25 43 -65 68 -90 45 -43 60 -80 33 -80 -14 0 -37 -40 -37 -65 0
-8 5 -15 10 -15 6 0 10 7 10 15 0 12 14 15 70 15 50 0 79 5 103 19 29 16 39
17 70 8 24 -8 37 -19 39 -32 4 -30 52 -32 97 -2 66 44 120 67 155 67 21 0 36
6 40 15 3 9 19 15 41 15 27 0 35 4 35 18 0 9 16 35 34 57 l34 40 24 -22 c13
-13 34 -23 47 -23 12 0 31 -5 41 -10 13 -7 21 -7 25 0 3 5 24 10 46 10 39 0
40 1 37 33 -2 27 -10 35 -45 52 -39 18 -43 23 -43 57 0 32 -4 39 -26 44 -14 4
-36 2 -50 -4 -33 -16 -54 -5 -61 30 -10 48 -58 63 -93 28 -11 -11 -27 -20 -35
-20 -8 0 -15 9 -15 20 0 11 -7 20 -15 20 -8 0 -15 -6 -15 -14 0 -20 -27 -28
-74 -21 -33 5 -47 2 -68 -14 -18 -14 -41 -21 -72 -21 -41 0 -46 2 -43 23 2 21
-2 22 -68 25 -38 1 -80 7 -92 13 -16 9 -30 9 -54 0 -40 -14 -166 -15 -174 -1
-3 6 -32 10 -63 10 -35 0 -74 8 -101 20 -24 11 -44 20 -45 20 -1 0 -12 -13
-24 -30z"/>
<path d="M11582 2395 c-7 -14 -12 -35 -12 -45 0 -15 -7 -20 -26 -20 -14 0 -23
-4 -19 -9 9 -16 -16 -58 -42 -70 -57 -26 -162 0 -179 44 -5 11 -21 15 -60 15
-53 0 -54 0 -54 -30 0 -24 6 -33 27 -41 44 -17 63 -39 63 -76 0 -31 -2 -33
-35 -33 -49 0 -49 0 -58 -15 -6 -12 -13 -12 -42 1 -19 8 -42 14 -51 14 -10 0
-26 8 -37 17 -18 17 -20 17 -39 -6 -18 -24 -18 -25 -1 -34 10 -6 22 -16 26
-24 4 -7 16 -13 25 -13 10 0 35 -12 56 -27 l39 -26 -28 -25 -29 -25 23 -18
c13 -11 34 -19 47 -19 13 0 35 -5 49 -12 32 -15 30 -47 -5 -65 l-24 -12 28
-10 c15 -6 31 -11 35 -11 4 0 18 -11 31 -24 15 -17 36 -26 64 -28 30 -2 43 -9
51 -24 22 -45 36 -54 59 -43 31 17 76 61 76 76 0 7 10 33 22 58 17 34 28 45
45 45 15 0 27 9 35 25 16 35 38 31 82 -14 28 -29 37 -46 35 -67 -1 -16 3 -42
10 -57 16 -41 14 -55 -11 -68 -21 -12 -21 -12 7 -26 21 -12 32 -12 49 -4 15 8
31 8 55 1 42 -12 61 6 32 30 -28 22 -41 54 -30 71 5 7 9 24 9 37 0 27 28 41
41 21 20 -32 8 58 -13 100 -17 32 -20 45 -10 48 17 7 15 78 -3 93 -20 17 -19
23 10 67 37 57 44 63 70 63 26 0 30 7 17 27 -5 8 -13 9 -22 3 -8 -6 -41 -10
-72 -10 -47 0 -59 4 -68 20 -6 12 -21 20 -35 20 -15 0 -31 10 -42 26 -41 59
-88 106 -121 120 -19 8 -35 14 -37 14 -1 0 -7 -11 -13 -25z"/>
<path d="M7368 2083 c-27 -8 -48 -18 -48 -24 0 -19 -76 -91 -112 -106 -21 -8
-38 -19 -38 -23 0 -17 -59 -21 -87 -7 -19 10 -83 17 -197 21 -93 4 -178 11
-188 17 -10 5 -18 19 -18 30 0 11 -5 29 -11 41 -11 20 -12 19 -44 -12 -30 -29
-32 -34 -22 -63 25 -76 32 -87 53 -87 12 0 27 -6 33 -14 14 -17 -12 -72 -39
-81 -15 -5 -20 -15 -20 -40 0 -19 -4 -37 -10 -40 -5 -3 -10 -28 -10 -55 0 -40
4 -51 22 -61 12 -6 43 -32 70 -57 49 -45 62 -84 37 -109 -19 -19 20 -31 116
-34 78 -3 90 -1 89 13 -3 32 115 58 138 31 6 -7 17 -13 24 -13 8 0 14 -5 14
-11 0 -6 5 -7 13 -2 11 7 66 16 178 29 46 6 46 6 45 42 -1 33 2 38 33 48 19 6
38 21 42 33 5 12 17 21 28 21 11 0 23 5 26 10 3 6 26 10 51 10 24 0 44 -4 44
-10 0 -6 28 -10 64 -10 62 0 64 1 58 23 -3 12 -14 28 -24 35 -10 7 -18 20 -18
28 0 16 -36 19 -45 4 -13 -21 -25 -8 -25 28 0 28 7 44 30 65 32 30 36 42 20
52 -15 10 -12 55 5 61 10 4 15 20 15 50 l0 43 53 3 c44 3 52 6 52 23 0 12 -17
30 -48 49 -39 24 -59 29 -111 30 -36 1 -68 4 -72 9 -4 4 -24 7 -45 7 -21 0
-41 5 -44 10 -8 12 -18 12 -77 -7z"/>
<path d="M10978 2078 c-2 -17 -11 -24 -33 -26 -16 -2 -34 -8 -39 -13 -6 -5
-25 -9 -43 -9 -35 0 -110 -33 -152 -67 l-24 -20 24 -6 c33 -9 55 -60 40 -94
-9 -20 -8 -32 6 -62 17 -35 20 -36 76 -39 37 -2 64 2 74 10 13 10 18 9 33 -10
11 -13 29 -22 45 -22 29 0 85 -26 85 -39 0 -5 33 -30 72 -55 71 -46 74 -47
138 -43 63 3 128 23 142 41 7 11 3 60 -7 76 -3 5 -13 10 -22 10 -12 0 -13 3
-4 13 15 19 4 27 -35 27 -23 0 -44 10 -67 29 -18 16 -45 33 -59 36 -15 4 -34
15 -44 26 -16 18 -16 19 13 19 19 0 33 6 37 16 4 9 5 18 4 19 -14 12 -51 25
-67 25 -21 0 -91 39 -91 51 0 4 14 12 30 19 17 7 30 16 30 20 0 13 -66 50 -89
50 -11 0 -21 6 -21 14 0 13 -20 26 -40 26 -5 0 -10 -10 -12 -22z"/>
<path d="M2624 2010 c-18 -18 -5 -48 24 -55 33 -8 62 17 46 43 -13 20 -55 27
-70 12z"/>
<path d="M4023 1793 c-13 -2 -23 -9 -23 -14 0 -5 -6 -9 -14 -9 -7 0 -21 -11
-30 -25 -19 -28 -17 -158 3 -178 6 -6 11 -19 11 -28 0 -20 25 -43 39 -34 15 9
51 94 51 120 0 12 9 30 20 40 17 16 20 29 18 74 -3 52 -5 56 -28 57 -14 1 -35
0 -47 -3z"/>
<path d="M6110 1602 c-33 -16 -35 -20 -38 -73 -2 -41 1 -59 13 -69 19 -16 20
-56 0 -64 -12 -4 -15 -23 -15 -85 0 -44 -4 -83 -10 -86 -14 -9 -13 -48 2 -63
10 -10 10 -17 0 -32 -7 -12 -8 -20 -2 -20 5 0 10 -9 10 -20 0 -11 -4 -20 -10
-20 -5 0 -10 -9 -10 -20 0 -15 7 -20 24 -20 14 0 28 -4 31 -10 3 -5 16 -10 29
-10 16 0 28 -11 41 -37 l19 -38 5 29 c6 29 12 34 65 55 22 9 26 14 17 25 -9
11 -7 15 8 19 25 6 71 79 71 111 0 17 -12 34 -35 52 -23 17 -35 35 -35 50 0
13 -4 24 -10 24 -5 0 -10 15 -10 34 0 19 -4 38 -10 41 -13 8 -13 91 1 113 15
24 -14 92 -40 92 -10 0 -26 9 -36 20 -22 24 -30 24 -75 2z"/>
<path d="M7500 1565 c-7 -8 -20 -15 -30 -15 -9 0 -25 -9 -35 -20 -16 -17 -16
-21 -2 -35 9 -8 20 -15 26 -15 14 0 15 -67 1 -75 -5 -3 -7 -12 -3 -20 3 -9 -1
-15 -11 -15 -11 0 -16 -9 -16 -29 0 -16 -7 -34 -15 -41 -8 -7 -15 -21 -15 -31
0 -10 -5 -21 -10 -24 -6 -4 -8 -11 -5 -16 8 -12 72 -12 80 1 12 20 25 9 25
-20 0 -18 -5 -30 -13 -30 -14 0 -47 -31 -47 -43 0 -9 66 21 123 57 26 16 47
35 47 43 0 7 23 27 50 44 28 17 50 35 50 40 0 17 53 32 135 38 76 6 80 7 83
31 3 22 -3 27 -42 39 -24 7 -54 24 -67 37 -12 13 -33 24 -46 24 -15 0 -23 6
-23 18 0 32 -22 42 -92 42 -52 0 -70 4 -74 15 -4 8 -18 15 -34 15 -15 0 -33
-7 -40 -15z"/>
<path d="M7364 1486 c-3 -8 -1 -23 5 -34 14 -26 6 -32 -45 -32 -24 0 -46 -4
-49 -10 -3 -5 -27 -10 -53 -10 -26 -1 -60 -6 -76 -13 -25 -11 -32 -10 -51 6
-38 34 -135 29 -135 -7 0 -22 -29 -41 -42 -28 -17 17 -143 15 -176 -2 -15 -8
-36 -23 -46 -35 -20 -22 -65 -28 -82 -11 -7 7 -16 4 -29 -10 -10 -11 -29 -20
-42 -20 -13 0 -37 -7 -53 -15 -18 -9 -51 -14 -84 -13 -66 3 -76 -5 -48 -35 30
-32 27 -64 -14 -117 -18 -25 -38 -55 -44 -67 -5 -12 -22 -25 -37 -29 -39 -9
-53 -23 -53 -49 0 -13 -5 -25 -11 -27 -19 -6 31 -58 57 -58 21 0 24 -4 24 -39
0 -40 13 -61 25 -41 3 5 26 10 51 10 40 0 44 -2 44 -25 0 -22 -5 -25 -32 -25
-51 0 -58 -9 -45 -51 7 -25 20 -39 39 -47 15 -5 30 -7 33 -3 8 14 207 12 223
-2 8 -6 28 -10 44 -8 20 2 38 -6 62 -26 18 -15 41 -33 52 -39 16 -10 17 -13 5
-28 -7 -9 -22 -16 -32 -16 -10 0 -21 -5 -24 -10 -8 -13 -35 6 -35 24 0 24 -22
36 -44 24 -15 -8 -21 -8 -24 1 -5 14 -88 15 -97 1 -3 -6 -31 -10 -61 -10 -39
0 -56 -4 -60 -15 -8 -21 4 -65 18 -65 7 0 25 -12 40 -27 30 -29 39 -88 16
-111 -9 -9 -9 -15 0 -24 7 -7 12 -23 12 -36 0 -37 18 -62 45 -62 24 0 25 2 19
40 -5 31 -3 41 10 46 26 10 46 -15 46 -57 0 -33 4 -41 24 -49 13 -5 27 -18 31
-29 12 -37 25 -22 25 28 0 31 5 53 15 61 13 11 15 8 15 -14 0 -14 4 -26 9 -26
5 0 11 -10 13 -22 3 -20 10 -23 56 -26 28 -2 52 0 52 3 0 3 -16 22 -35 42 -20
20 -35 46 -35 60 0 12 -4 23 -8 23 -15 0 -62 81 -62 106 0 45 53 27 62 -21 5
-28 36 -29 83 -2 50 28 62 62 17 45 -69 -26 -84 28 -25 86 44 42 56 44 71 12
6 -14 20 -30 32 -36 19 -10 20 -8 20 55 0 59 -2 65 -20 65 -12 0 -33 12 -48
27 -32 32 -134 83 -167 83 -12 0 -28 7 -35 15 -11 13 -9 20 10 40 20 22 21 25
7 40 -44 43 -27 85 35 85 l40 0 -26 33 c-38 46 -38 46 -73 68 -31 17 -33 22
-33 73 0 30 -5 58 -10 61 -14 9 5 32 41 51 39 20 49 18 49 -10 0 -14 5 -28 10
-31 6 -4 22 -29 36 -56 22 -45 72 -89 99 -89 6 0 -5 9 -22 20 -26 15 -33 27
-33 50 0 16 3 30 6 30 4 0 27 -18 51 -41 25 -22 47 -38 50 -35 3 3 -4 21 -16
41 -27 46 -27 47 7 43 19 -2 28 -9 30 -25 4 -27 33 -30 72 -8 l25 13 -50 22
c-58 25 -105 66 -105 92 0 15 9 18 55 18 46 0 55 3 55 18 0 10 6 27 14 38 14
19 15 18 43 -8 43 -41 106 -33 72 9 -12 14 -8 15 36 9 130 -15 151 -19 167
-33 9 -8 21 -12 27 -9 14 9 51 94 51 117 0 11 4 19 8 19 4 0 14 16 21 35 11
33 11 38 -11 60 -25 27 -66 33 -74 11z"/>
<path d="M3988 1422 c-10 -2 -18 -8 -18 -13 0 -5 -11 -9 -24 -9 -14 0 -28 -4
-31 -10 -3 -5 -23 -10 -44 -10 -22 0 -44 -6 -51 -15 -7 -8 -16 -13 -20 -10 -4
2 -16 -5 -26 -16 -16 -18 -17 -24 -5 -52 8 -18 16 -49 18 -69 5 -36 7 -38 41
-38 l36 0 -27 -28 c-15 -16 -27 -40 -27 -54 0 -14 -7 -31 -15 -38 -8 -7 -12
-16 -10 -21 3 -4 0 -17 -7 -28 -10 -16 -10 -23 0 -33 6 -6 12 -22 12 -35 0
-24 26 -43 59 -43 15 0 21 6 21 24 0 41 21 49 75 25 26 -11 51 -17 55 -12 5 4
11 40 14 78 4 39 9 100 12 138 4 45 10 67 19 67 7 0 18 7 26 16 10 12 10 17 0
23 -9 6 -9 13 0 35 8 18 9 30 3 34 -6 4 -18 23 -27 43 -20 43 -36 57 -59 51z"/>
<path d="M2902 1308 c6 -16 67 -50 79 -43 17 11 9 25 -15 25 -13 0 -29 7 -36
15 -15 18 -33 20 -28 3z"/>
<path d="M2693 1290 c-4 -16 -15 -20 -52 -22 -43 -1 -44 -2 -8 -5 20 -2 37 -8
37 -13 0 -5 11 -21 25 -36 l25 -27 30 30 c28 29 29 31 10 36 -11 3 -24 17 -30
31 -11 31 -30 34 -37 6z"/>
<path d="M2340 1170 c0 -5 -9 -10 -19 -10 -20 0 -37 -17 -28 -26 11 -11 55 9
60 27 3 10 1 19 -4 19 -5 0 -9 -4 -9 -10z"/>
<path d="M6820 848 c0 -17 2 -18 15 -8 8 7 15 14 15 15 0 2 -7 5 -15 9 -10 4
-15 -1 -15 -16z"/>
<path d="M6787 764 c-13 -13 5 -24 40 -24 30 0 34 2 23 15 -13 15 -51 20 -63
9z"/>
<path d="M6894 717 c10 -7 31 -22 46 -34 15 -13 33 -23 38 -23 19 0 69 -49 82
-80 7 -16 16 -27 21 -24 16 9 10 31 -16 55 -13 13 -25 31 -25 40 0 19 -110 79
-143 78 -21 0 -21 -1 -3 -12z"/>
<path d="M4603 616 c-13 -6 -23 -20 -23 -31 0 -12 -5 -26 -11 -32 -21 -21 0
-43 78 -78 107 -49 106 -48 128 -83 14 -22 28 -31 47 -32 15 0 30 -4 33 -10 3
-5 17 -10 30 -10 41 0 75 -21 75 -47 0 -40 58 -81 75 -53 4 7 12 7 25 0 26
-14 30 -13 30 10 0 10 9 24 20 30 19 10 29 50 12 50 -12 0 -14 77 -2 85 5 3
10 24 10 45 0 24 6 44 16 52 43 35 54 50 54 69 0 16 -4 19 -17 14 -10 -4 -28
-8 -39 -9 -12 -1 -28 -7 -36 -14 -12 -9 -19 -9 -34 2 -14 11 -22 11 -32 3 -12
-10 -49 -18 -153 -33 -37 -6 -102 19 -141 53 -17 15 -32 14 -85 -2 -17 -6 -23
-3 -23 8 0 22 -11 25 -37 13z"/>
</g>
</svg>
